# Blender 3.4.0
# www.blender.org
mtllib building.mtl
o Plane.002
v -4.003518 -0.022736 3.978492
v 4.034405 -0.022736 3.967832
v -4.014177 -0.022736 -4.059430
v 4.023745 -0.022736 -4.070090
v -2.395934 -0.022736 3.976360
v -0.788349 -0.022736 3.974227
v 0.819236 -0.022736 3.972096
v 2.426820 -0.022736 3.969964
v 2.416161 -0.022736 -4.067959
v -0.799008 -0.022736 -4.063695
v -2.406592 -0.022736 -4.061563
v -4.012045 -0.022736 -2.451846
v -4.009914 -0.022736 -0.844262
v -4.007781 -0.022736 0.763322
v -4.005648 -0.022736 2.370907
v 4.032272 -0.022736 2.360248
v 4.030141 -0.022736 0.752663
v 4.028008 -0.022736 -0.854921
v 4.025877 -0.022736 -2.462506
v 3.230613 -0.022736 3.968898
v 3.219953 -0.022736 -4.069024
v 3.228480 -0.022736 2.361313
v 3.226349 -0.022736 0.753729
v 3.224217 -0.022736 -0.853855
v 3.222085 -0.022736 -2.461440
v 4.024811 -0.022736 -3.266298
v -2.405526 -0.022736 -3.257771
v -0.797942 -0.022736 -3.259902
v 2.417226 -0.022736 -3.264167
v -4.013111 -0.022736 -3.255638
v 3.221019 -0.022736 -3.265232
v -4.004584 -0.022736 3.174700
v 4.033339 -0.022736 3.164040
v -2.396998 -0.022736 3.172567
v -0.789414 -0.022736 3.170435
v 0.818170 -0.022736 3.168304
v 2.425755 -0.022736 3.166172
v 3.229546 -0.022736 3.165105
v -3.210384 -0.022736 -4.060497
v -3.199726 -0.022736 3.977425
v -3.201857 -0.022736 2.369841
v -3.203989 -0.022736 0.762256
v -3.206121 -0.022736 -0.845328
v -3.208253 -0.022736 -2.452912
v -3.209319 -0.022736 -3.256704
v -3.200792 -0.022736 3.173632
v -4.004584 8.800919 3.174700
v -4.003518 8.800919 3.978492
v 3.230613 8.800919 3.968899
v 4.034405 8.800919 3.967832
v 4.024811 8.800919 -3.266298
v 4.023745 8.800919 -4.070090
v -3.210384 8.800919 -4.060497
v -4.014177 8.800919 -4.059430
v -3.199726 8.800919 3.977425
v -2.395933 8.800919 3.976360
v -0.788348 8.800919 3.974228
v 0.819236 8.800919 3.972096
v 2.426820 8.800919 3.969965
v 3.219953 8.800919 -4.069024
v 2.416161 8.800919 -4.067959
v 0.808576 8.800919 -4.065826
v -0.799008 8.800919 -4.063694
v -2.406592 8.800919 -4.061562
v -2.405526 8.800919 -3.257771
v -0.797942 8.800919 -3.259902
v 0.809643 8.800919 -3.262035
v 2.417226 8.800919 -3.264167
v -4.013111 8.800919 -3.255638
v -4.012044 8.800919 -2.451846
v -4.009914 8.800919 -0.844262
v -4.007781 8.800919 0.763323
v -4.005648 8.800919 2.370907
v 4.033339 8.800919 3.164040
v 4.032273 8.800919 2.360248
v 4.030141 8.800919 0.752664
v 4.028009 8.800919 -0.854921
v 4.025877 8.800919 -2.462506
v -3.201857 8.800919 2.369841
v -3.203989 8.800919 0.762257
v -3.206120 8.800919 -0.845328
v -3.208252 8.800919 -2.452912
v 3.228480 8.800919 2.361313
v 3.226349 8.800919 0.753729
v 3.224217 8.800919 -0.853855
v 3.222085 8.800919 -2.461440
v 3.229546 8.800919 3.165105
v 3.221019 8.800919 -3.265232
v -3.209319 8.800919 -3.256704
v -2.396998 8.800919 3.172567
v -0.789414 8.800919 3.170436
v 0.818170 8.800919 3.168304
v 2.425755 8.800919 3.166172
v -3.200791 8.800919 3.173632
v -4.007781 3.590688 0.763323
v 4.034405 3.590688 3.967832
v 4.033339 3.590688 3.164040
v -4.003518 3.590688 3.978492
v -3.199726 3.590688 3.977425
v -2.395934 3.590688 3.976360
v 4.025877 3.590688 -2.462506
v -4.009914 3.590688 -0.844262
v -4.005648 3.590688 2.370907
v -4.004584 3.590688 3.174700
v -2.406592 3.590688 -4.061563
v -3.210384 3.590688 -4.060497
v -4.014177 3.590688 -4.059430
v -4.013111 3.590688 -3.255638
v -4.012045 3.590688 -2.451846
v 4.024811 3.590688 -3.266298
v 4.023745 3.590688 -4.070090
v -0.788349 3.590688 3.974228
v 0.819236 3.590688 3.972096
v 3.230613 3.590688 3.968898
v 2.426820 3.590688 3.969965
v 4.032272 3.590688 2.360248
v 3.219953 3.590688 -4.069024
v 4.030141 3.590688 0.752663
v 2.416161 3.590688 -4.067959
v 4.028008 3.590688 -0.854921
v 0.808576 3.590688 -4.065827
v -0.799008 3.590688 -4.063694
v -3.200791 3.591648 3.173632
v 2.425755 3.591648 3.166172
v 0.818170 3.591648 3.168304
v 3.228480 3.591648 2.361313
v 3.229546 3.591648 3.165105
v -3.201857 3.591648 2.369841
v -3.203989 3.591648 0.762256
v -2.405527 3.591649 -3.257770
v -3.209318 3.591649 -3.256705
v 3.222084 3.591648 -2.461439
v 3.221019 3.591648 -3.265232
v -2.396999 3.591648 3.172567
v 2.417227 3.591648 -3.264165
v -3.208252 3.591649 -2.452912
v 3.224217 3.591648 -0.853855
v -0.797942 3.591649 -3.259902
v -3.206120 3.591648 -0.845328
v 3.226348 3.591648 0.753729
v -0.789415 3.591648 3.170435
v 0.818170 0.453688 3.168304
v 4.030141 0.453561 0.752663
v 2.416161 0.453562 -4.067959
v 4.033339 0.453561 3.164040
v 4.024811 0.453561 -3.266298
v 4.028008 0.453561 -0.854921
v -3.201857 0.453688 2.369841
v 4.023745 0.453561 -4.070090
v -4.013111 0.453562 -3.255638
v 3.226348 0.453688 0.753729
v 4.025877 0.453561 -2.462506
v -2.406592 0.453562 -4.061563
v 3.229546 0.453688 3.165105
v -3.203989 0.453688 0.762256
v -2.405527 0.453688 -3.257771
v 3.230613 0.453561 3.968898
v 2.425755 0.453688 3.166172
v -4.003518 0.453561 3.978492
v -0.797942 0.453688 -3.259902
v -4.012045 0.453562 -2.451846
v -3.206121 0.453688 -0.845328
v -0.789414 0.453688 3.170435
v -4.004584 0.453561 3.174700
v -3.199726 0.453561 3.977425
v -2.395934 0.453561 3.976360
v -4.009914 0.453562 -0.844262
v -4.014177 0.453562 -4.059430
v -3.208253 0.453688 -2.452912
v 3.222085 0.453688 -2.461440
v 2.417226 0.453688 -3.264167
v -3.200792 0.453688 3.173632
v -4.007781 0.453561 0.763322
v -0.788349 0.453561 3.974227
v 3.228480 0.453688 2.361313
v -3.209319 0.453688 -3.256704
v -4.005648 0.453561 2.370907
v 0.819236 0.453561 3.972096
v -2.396998 0.453688 3.172567
v 4.034405 0.453561 3.967832
v -3.210384 0.453562 -4.060497
v 2.426820 0.453561 3.969964
v 4.032272 0.453561 2.360248
v 3.221019 0.453688 -3.265232
v 3.224217 0.453688 -0.853855
v 3.219953 0.453561 -4.069024
v -0.799008 0.453562 -4.063695
vn 1.0000 -0.0000 -0.0013
vn -1.0000 -0.0000 0.0013
vn 0.0013 -0.0000 1.0000
vn -0.0000 1.0000 -0.0000
vn -0.0013 -0.0000 -1.0000
vn -0.0000 -1.0000 -0.0000
vn -0.0000 -1.0000 0.0012
vt 1.156538 -1.344391
vt -5.408835 -1.344391
vt -2.126149 -1.344391
vt -2.126149 -4.947966
vt -2.126149 -1.344391
vt -2.126149 -4.947966
vt -5.408835 -4.947966
vt 1.156538 -4.947966
vt -4.752298 -1.344391
vt -4.095760 -1.344391
vt -3.439223 -1.344391
vt -2.782686 -1.344391
vt -4.752298 -4.947966
vt -0.156538 2.259184
vt -3.439223 -4.947966
vt 0.171731 3.735297
vt -2.782686 -4.947966
vt -1.469611 -1.344391
vt -0.813074 -1.344391
vt -0.156537 -1.344391
vt 0.500000 -1.344391
vt -1.469611 -4.947966
vt -0.813074 -4.947966
vt -0.156537 -4.947966
vt 0.500000 -4.947966
vt -2.454418 -1.344391
vt -5.080566 -4.947966
vt -3.110955 2.259184
vt -3.767492 2.259184
vt -4.424029 2.259184
vt -5.080566 2.259184
vt 0.828269 -4.947966
vt -2.454418 2.259184
vt -1.797880 2.259184
vt 0.500000 3.735297
vt -0.484806 2.259184
vt 0.171731 2.259184
vt -1.797880 -1.344391
vt -0.156538 2.259184
vt -5.408835 2.259184
vt 0.828269 -1.344391
vt -1.797880 -4.947966
vt 3.454418 1.938296
vt 2.797881 1.938296
vt 2.141344 1.938296
vt 1.484806 1.938296
vt 1.156538 1.938296
vt -2.782686 2.259184
vt -2.454418 -4.947966
vt -5.080566 -1.344391
vt 1.484806 -1.665280
vt 2.141344 -1.665280
vt 2.797881 -1.665280
vt 3.454418 -1.665280
vt -2.782686 2.259184
vt 3.782686 -1.665280
vt 1.156538 -1.665280
vt 3.782686 1.938296
vt 4.439224 -1.993548
vt 0.828269 2.259184
vt 4.439224 -1.665280
vt 1.156538 2.259184
vt -5.408835 2.259184
vt -2.454418 2.259184
vt 1.484806 -1.665280
vt 1.156538 -1.665280
vt -2.126149 2.259184
vt -2.126149 -1.344391
vt 1.156538 -4.619698
vt 0.828269 -1.344391
vt 1.156538 -4.947966
vt -5.408835 -1.344391
vt 1.156538 -1.344391
vt 4.110955 -4.947966
vt -2.454418 -1.344391
vt -2.126149 2.259184
vt -2.126149 -1.344391
vt 4.439224 -4.947966
vt 4.110955 -1.665280
vt -5.080566 2.259184
vt 3.782686 -1.665280
vt -4.752298 2.259184
vt 3.126149 -1.665280
vt -4.095761 2.259184
vt 2.469612 -1.665280
vt -3.439224 2.259184
vt 1.813075 -1.665280
vt -2.782686 2.259184
vt 1.484806 -4.947966
vt -5.080566 -1.344391
vt 1.813075 -4.947966
vt -4.752298 -1.344391
vt 2.469613 -4.947966
vt -4.095761 -1.344391
vt 3.126150 -4.947966
vt -3.439224 -1.344391
vt 3.782686 -4.947966
vt -2.782686 -1.344391
vt 3.782686 -4.619698
vt -2.454418 5.862759
vt 3.126150 -4.619698
vt -1.797881 5.862759
vt 2.469613 -4.619698
vt -1.141343 5.862759
vt 1.813075 -4.619698
vt -0.484806 5.862759
vt 4.439224 -4.619698
vt -1.797880 2.259184
vt 4.439224 -4.291429
vt -1.469611 2.259184
vt 4.439224 -3.634891
vt -0.813075 2.259184
vt 4.439224 -2.978354
vt -0.156538 2.259184
vt 0.500000 2.259184
vt 4.439224 -2.321817
vt 1.156538 -1.993548
vt -1.797880 -1.344391
vt -1.469611 -1.344391
vt 1.156538 -2.321817
vt 1.156538 -2.978355
vt -0.813075 -1.344391
vt 1.156538 -3.634892
vt -0.156538 -1.344391
vt 1.156538 -4.291429
vt 0.500000 -1.344391
vt 1.484806 1.938295
vt 4.110955 -2.321817
vt 4.110955 -2.978354
vt 2.141343 1.938295
vt 4.110955 -3.634891
vt 2.797881 1.938295
vt 4.110955 -4.291429
vt 3.454418 1.938295
vt 1.484806 -2.321817
vt -3.110955 5.862759
vt 1.484806 -2.978355
vt -3.767492 5.862759
vt 1.484806 -3.634892
vt -4.424030 5.862759
vt 1.484806 -4.291429
vt -5.080566 5.862759
vt -2.782686 5.862759
vt 1.484806 -1.993548
vt 1.156538 5.541871
vt 1.484806 -4.619698
vt -0.156538 5.862759
vt -5.408835 5.862759
vt 3.782686 1.938295
vt 4.110955 -4.619698
vt -2.782686 5.862759
vt 3.782686 -1.993548
vt 3.454418 5.541871
vt 3.126149 -1.993548
vt 2.797881 5.541871
vt 2.469612 -1.993548
vt 2.141343 5.541871
vt 1.813075 -1.993548
vt 1.484806 5.541871
vt 3.782686 5.541871
vt 1.156538 1.938295
vt 4.110955 -1.993548
vt -0.156537 0.131329
vt -2.126149 0.131330
vt -2.126149 -3.472246
vt -1.797880 -3.472246
vt 1.156538 0.131330
vt -5.408835 0.131329
vt -5.080566 0.131329
vt -4.752298 0.131329
vt 0.500000 -3.472246
vt -0.813075 0.131329
vt 0.500000 0.131330
vt 0.828269 0.131330
vt -2.782686 -3.472246
vt -2.454418 -3.472246
vt -2.126149 -3.472246
vt -2.126149 0.131329
vt -1.797880 0.131329
vt -1.469611 0.131329
vt 0.828269 -3.472246
vt -5.408835 -3.472246
vt 1.156538 -3.472246
vt -4.095761 0.131329
vt -3.439223 0.131329
vt -2.454418 0.131330
vt -2.782686 0.131330
vt -1.469611 -3.472246
vt -5.080566 -3.472246
vt -0.813075 -3.472246
vt 0.828269 3.572258
vt -4.752298 -3.472246
vt -0.156538 3.734904
vt -0.156537 -3.472246
vt 0.828269 2.915721
vt -4.095761 -3.472246
vt 0.828269 2.259184
vt 0.171731 2.259576
vt -3.439223 -3.472246
vt 3.782686 3.414408
vt 1.156538 -0.189167
vt 1.484806 3.414408
vt 2.141344 3.414408
vt -3.110955 3.735296
vt -2.782686 3.735296
vt 1.156538 3.414408
vt 1.484806 -0.189167
vt 2.141344 -0.189167
vt -2.454418 3.735296
vt -2.782686 3.735296
vt 3.782686 -0.189167
vt -5.080566 3.735296
vt -0.156538 3.735296
vt -5.408835 3.735296
vt 3.454418 3.414408
vt 0.171731 3.735297
vt 0.500000 3.572258
vt -0.484806 3.735296
vt 3.454418 -0.189167
vt -4.424029 3.735296
vt 0.500000 2.259184
vt -1.797880 3.735296
vt 2.797881 -0.189167
vt -3.767492 3.735296
vt 2.797881 3.414408
vt 2.141344 2.132867
vt -0.813074 -4.753447
vt -0.156538 2.453703
vt -4.752298 -4.753447
vt -1.797880 -4.753447
vt 0.828269 -4.753447
vt -0.156537 -4.753447
vt 1.484806 -1.470709
vt 1.156538 -4.753447
vt -5.408835 -4.753447
vt -1.797880 -1.149871
vt -3.767492 2.453755
vt 0.500000 -4.753447
vt -2.782686 -4.753447
vt 1.156538 2.132867
vt -2.782686 2.453755
vt 2.141344 -1.470709
vt -2.454418 2.453755
vt -2.454418 -1.149871
vt 1.484806 2.132867
vt 1.156538 -1.149871
vt -5.408835 -1.149871
vt 0.500000 3.540726
vt -1.797880 2.453755
vt -1.469611 -1.149871
vt 2.797881 -1.470709
vt 2.797881 2.132867
vt 0.828269 -1.149871
vt -5.080566 -1.149871
vt -4.752298 -1.149871
vt -0.813074 -1.149872
vt -2.126149 -1.149871
vt -2.126149 -4.753447
vt 3.454418 -1.470709
vt -5.080566 2.453755
vt 0.171731 2.453755
vt -0.484806 2.453755
vt 1.156538 -1.470709
vt 3.782686 2.132867
vt -0.156537 -1.149871
vt -4.095760 -1.149872
vt -3.110955 2.453755
vt 3.782686 -1.470709
vt -2.782686 2.453755
vt 0.500000 -1.149871
vt -3.439223 -1.149872
vt 3.454418 2.132867
vt -2.126149 -1.149871
vt -2.126149 -4.753446
vt -2.454418 -4.753447
vt -2.782686 -1.149871
vt -1.469611 -4.753447
vt -0.156538 2.453755
vt -5.408835 2.453755
vt -4.424029 2.453755
vt -5.080566 -4.753447
vt 0.171731 3.540777
vt -3.439223 -4.753447
s 0
usemtl Material.002
f 77/124/1 118/190/1 120/194/1
f 87/143/2 126/204/2 127/205/2
f 50/67/3 114/186/3 96/164/3
f 75/119/1 97/166/1 116/188/1
f 101/171/1 147/232/1 152/238/1
f 51/69/4 60/89/4 88/146/4
f 92/156/4 57/83/4 58/85/4
f 80/129/4 73/116/4 79/128/4
f 63/95/4 65/99/4 66/101/4
f 126/204/2 151/237/2 175/267/2
f 184/278/3 135/218/3 171/262/3
f 90/153/5 141/225/5 134/215/5
f 172/264/5 134/215/5 179/272/5
f 55/79/4 47/59/4 48/61/4
f 76/121/4 83/135/4 75/120/4
f 82/133/4 71/111/4 81/131/4
f 76/122/1 116/188/1 118/190/1
f 120/194/1 143/227/1 147/232/1
f 98/167/2 164/253/2 159/246/2
f 118/190/1 183/277/1 143/227/1
f 57/83/4 90/152/4 56/81/4
f 74/117/4 49/65/4 50/66/4
f 90/152/4 55/79/4 56/81/4
f 81/131/4 72/113/4 80/129/4
f 116/188/1 145/230/1 183/277/1
f 128/207/1 172/263/1 148/233/1
f 62/93/4 66/101/4 67/103/4
f 103/173/2 173/265/2 177/270/2
f 73/115/2 95/163/2 103/173/2
f 64/98/5 122/199/5 105/175/5
f 113/185/3 174/266/3 178/271/3
f 69/108/2 107/178/2 108/179/2
f 58/86/3 112/184/3 113/185/3
f 57/84/3 100/170/3 112/184/3
f 124/202/5 154/240/5 158/245/5
f 62/94/5 119/192/5 121/196/5
f 81/132/1 129/208/1 139/223/1
f 49/64/3 115/187/3 114/186/3
f 139/223/1 155/242/1 162/251/1
f 96/164/3 157/244/3 180/273/3
f 78/125/4 88/146/4 86/141/4
f 88/147/3 135/218/3 133/213/3
f 89/150/4 70/109/4 82/133/4
f 91/155/5 125/203/5 141/225/5
f 66/102/3 130/209/3 138/222/3
f 77/123/4 84/137/4 76/121/4
f 61/91/4 67/103/4 68/105/4
f 54/77/5 106/176/5 107/177/5
f 89/149/1 136/219/1 131/211/1
f 93/158/4 58/85/4 59/87/4
f 65/99/4 53/74/4 89/150/4
f 107/177/5 181/275/5 168/258/5
f 86/142/2 133/214/2 132/212/2
f 89/150/4 54/78/4 69/107/4
f 60/89/4 68/105/4 88/146/4
f 84/138/2 137/220/2 140/224/2
f 132/212/2 184/279/2 170/260/2
f 160/248/1 122/198/1 138/221/1
f 65/100/3 131/210/3 130/209/3
f 125/203/5 158/245/5 142/226/5
f 51/70/1 101/171/1 110/181/1
f 92/157/5 124/202/5 125/203/5
f 130/209/3 176/269/3 156/243/3
f 95/163/2 167/256/2 173/265/2
f 138/222/3 156/243/3 160/249/3
f 102/172/2 161/250/2 167/256/2
f 141/225/5 142/226/5 163/252/5
f 75/120/4 87/144/4 74/117/4
f 115/187/3 178/271/3 182/276/3
f 176/268/1 136/219/1 169/259/1
f 140/224/2 185/280/2 151/237/2
f 109/180/2 150/236/2 161/250/2
f 56/82/3 99/169/3 100/170/3
f 77/123/4 86/141/4 85/139/4
f 74/118/1 96/165/1 97/166/1
f 85/140/2 132/212/2 137/220/2
f 110/181/1 152/238/1 146/231/1
f 117/189/5 149/235/5 186/281/5
f 53/75/5 105/175/5 106/176/5
f 129/208/1 148/233/1 155/242/1
f 105/175/5 187/283/5 153/239/5
f 59/88/3 113/185/3 115/187/3
f 82/134/1 139/223/1 136/219/1
f 108/179/2 168/257/2 150/236/2
f 179/272/5 141/225/5 163/252/5
f 72/114/2 102/172/2 95/163/2
f 99/169/3 159/247/3 165/254/3
f 106/176/5 153/239/5 181/275/5
f 47/60/2 103/173/2 104/174/2
f 61/92/5 117/189/5 119/192/5
f 100/170/3 165/254/3 166/255/3
f 60/90/5 111/182/5 117/189/5
f 70/110/2 108/179/2 109/180/2
f 78/126/1 120/194/1 101/171/1
f 71/112/2 109/180/2 102/172/2
f 63/96/5 121/196/5 122/199/5
f 52/73/1 110/181/1 111/183/1
f 48/62/2 104/174/2 98/167/2
f 80/130/1 128/207/1 129/208/1
f 111/183/1 146/231/1 149/234/1
f 119/192/5 186/281/5 144/229/5
f 97/166/1 180/274/1 145/230/1
f 21/27/6 29/36/6 9/14/6
f 185/280/2 132/212/2 170/260/2
f 94/160/5 134/215/5 123/200/5
f 104/174/2 177/270/2 164/253/2
f 79/127/1 123/201/1 128/207/1
f 154/241/2 126/204/2 175/267/2
f 83/136/2 140/224/2 126/204/2
f 49/65/4 93/158/4 59/87/4
f 93/159/5 127/206/5 124/202/5
f 17/23/6 22/28/6 23/29/6
f 18/24/6 23/29/6 24/30/6
f 94/162/4 73/116/4 47/59/4
f 114/186/3 182/276/3 157/244/3
f 112/184/3 166/255/3 174/266/3
f 136/219/1 162/251/1 169/259/1
f 18/24/6 25/31/6 19/25/6
f 121/195/7 135/217/7 138/221/7
f 119/193/2 171/261/2 135/216/2
f 135/218/3 67/104/3 138/222/3
f 144/228/2 29/37/2 171/261/2
f 147/232/1 17/23/1 18/24/1
f 28/35/1 187/282/1 160/248/1
f 179/272/5 35/44/5 34/43/5
f 149/234/1 26/32/1 4/8/1
f 45/56/1 169/259/1 44/54/1
f 146/231/1 19/25/1 26/32/1
f 35/44/5 142/226/5 36/45/5
f 180/273/3 20/26/3 2/3/3
f 166/255/3 40/50/3 5/9/3
f 158/245/5 38/47/5 37/46/5
f 161/250/2 30/38/2 12/18/2
f 178/271/3 6/10/3 7/11/3
f 159/246/2 32/41/2 1/1/2
f 155/242/1 41/51/1 42/52/1
f 142/226/5 37/46/5 36/45/5
f 31/39/3 171/262/3 29/36/3
f 150/236/2 3/5/2 30/38/2
f 152/238/1 18/24/1 19/25/1
f 175/267/2 23/29/2 22/28/2
f 173/265/2 13/19/2 14/20/2
f 143/227/1 16/22/1 17/23/1
f 181/275/5 11/17/5 39/49/5
f 186/281/5 4/7/5 21/27/5
f 182/276/3 7/11/3 8/12/3
f 151/237/2 24/30/2 23/29/2
f 183/277/1 33/42/1 16/22/1
f 144/229/5 21/27/5 9/13/5
f 156/243/3 45/55/3 27/33/3
f 168/258/5 39/49/5 3/6/5
f 38/48/2 175/267/2 22/28/2
f 145/230/1 2/4/1 33/42/1
f 185/280/2 25/31/2 24/30/2
f 148/233/1 46/57/1 41/51/1
f 153/239/5 10/15/5 11/17/5
f 160/249/3 27/33/3 28/34/3
f 46/58/5 179/272/5 34/43/5
f 31/39/6 19/25/6 25/31/6
f 21/27/6 26/32/6 31/39/6
f 177/270/2 14/20/2 15/21/2
f 167/256/2 12/18/2 13/19/2
f 165/254/3 1/2/3 40/50/3
f 170/260/2 31/40/2 25/31/2
f 164/253/2 15/21/2 32/41/2
f 162/251/1 42/52/1 43/53/1
f 138/221/7 122/197/7 121/195/7
f 121/195/7 119/191/7 135/217/7
f 169/259/1 43/53/1 44/54/1
f 67/104/3 66/102/3 138/222/3
f 174/266/3 5/9/3 6/10/3
f 157/244/3 8/12/3 20/26/3
f 55/80/3 98/168/3 99/169/3
f 38/48/6 16/22/6 33/42/6
f 20/26/6 33/42/6 2/4/6
f 20/26/6 37/46/6 38/48/6
f 8/12/6 36/45/6 37/46/6
f 7/11/6 35/44/6 36/45/6
f 6/10/6 34/43/6 35/44/6
f 34/43/6 40/50/6 46/58/6
f 32/41/6 40/50/6 1/2/6
f 46/58/6 15/21/6 41/51/6
f 15/21/6 42/52/6 41/51/6
f 14/20/6 43/53/6 42/52/6
f 12/18/6 43/53/6 13/19/6
f 45/56/6 12/18/6 30/38/6
f 3/6/6 45/56/6 30/38/6
f 39/49/6 27/33/6 45/56/6
f 10/16/6 27/33/6 11/17/6
f 77/124/1 76/122/1 118/190/1
f 87/143/2 83/136/2 126/204/2
f 50/67/3 49/64/3 114/186/3
f 75/119/1 74/118/1 97/166/1
f 101/171/1 120/194/1 147/232/1
f 51/69/4 52/71/4 60/89/4
f 92/156/4 91/154/4 57/83/4
f 80/129/4 72/113/4 73/116/4
f 63/95/4 64/97/4 65/99/4
f 126/204/2 140/224/2 151/237/2
f 184/278/3 133/213/3 135/218/3
f 90/153/5 91/155/5 141/225/5
f 172/264/5 123/200/5 134/215/5
f 55/79/4 94/162/4 47/59/4
f 76/121/4 84/137/4 83/135/4
f 82/133/4 70/109/4 71/111/4
f 76/122/1 75/119/1 116/188/1
f 120/194/1 118/190/1 143/227/1
f 98/167/2 104/174/2 164/253/2
f 118/190/1 116/188/1 183/277/1
f 57/83/4 91/154/4 90/152/4
f 74/117/4 87/144/4 49/65/4
f 90/152/4 94/162/4 55/79/4
f 81/131/4 71/111/4 72/113/4
f 116/188/1 97/166/1 145/230/1
f 128/207/1 123/201/1 172/263/1
f 62/93/4 63/95/4 66/101/4
f 103/173/2 95/163/2 173/265/2
f 73/115/2 72/114/2 95/163/2
f 64/98/5 63/96/5 122/199/5
f 113/185/3 112/184/3 174/266/3
f 69/108/2 54/76/2 107/178/2
f 58/86/3 57/84/3 112/184/3
f 57/84/3 56/82/3 100/170/3
f 124/202/5 127/206/5 154/240/5
f 62/94/5 61/92/5 119/192/5
f 81/132/1 80/130/1 129/208/1
f 49/64/3 59/88/3 115/187/3
f 139/223/1 129/208/1 155/242/1
f 96/164/3 114/186/3 157/244/3
f 78/125/4 51/69/4 88/146/4
f 88/147/3 68/106/3 135/218/3
f 89/150/4 69/107/4 70/109/4
f 91/155/5 92/157/5 125/203/5
f 66/102/3 65/100/3 130/209/3
f 77/123/4 85/139/4 84/137/4
f 61/91/4 62/93/4 67/103/4
f 54/77/5 53/75/5 106/176/5
f 89/149/1 82/134/1 136/219/1
f 93/158/4 92/156/4 58/85/4
f 65/99/4 64/97/4 53/74/4
f 107/177/5 106/176/5 181/275/5
f 86/142/2 88/148/2 133/214/2
f 89/150/4 53/74/4 54/78/4
f 60/89/4 61/91/4 68/105/4
f 84/138/2 85/140/2 137/220/2
f 132/212/2 133/214/2 184/279/2
f 160/248/1 187/282/1 122/198/1
f 65/100/3 89/151/3 131/210/3
f 125/203/5 124/202/5 158/245/5
f 51/70/1 78/126/1 101/171/1
f 92/157/5 93/159/5 124/202/5
f 130/209/3 131/210/3 176/269/3
f 95/163/2 102/172/2 167/256/2
f 138/222/3 130/209/3 156/243/3
f 102/172/2 109/180/2 161/250/2
f 141/225/5 125/203/5 142/226/5
f 75/120/4 83/135/4 87/144/4
f 115/187/3 113/185/3 178/271/3
f 176/268/1 131/211/1 136/219/1
f 140/224/2 137/220/2 185/280/2
f 109/180/2 108/179/2 150/236/2
f 56/82/3 55/80/3 99/169/3
f 77/123/4 78/125/4 86/141/4
f 74/118/1 50/68/1 96/165/1
f 85/140/2 86/142/2 132/212/2
f 110/181/1 101/171/1 152/238/1
f 117/189/5 111/182/5 149/235/5
f 53/75/5 64/98/5 105/175/5
f 129/208/1 128/207/1 148/233/1
f 105/175/5 122/199/5 187/283/5
f 59/88/3 58/86/3 113/185/3
f 82/134/1 81/132/1 139/223/1
f 108/179/2 107/178/2 168/257/2
f 179/272/5 134/215/5 141/225/5
f 72/114/2 71/112/2 102/172/2
f 99/169/3 98/168/3 159/247/3
f 106/176/5 105/175/5 153/239/5
f 47/60/2 73/115/2 103/173/2
f 61/92/5 60/90/5 117/189/5
f 100/170/3 99/169/3 165/254/3
f 60/90/5 52/72/5 111/182/5
f 70/110/2 69/108/2 108/179/2
f 78/126/1 77/124/1 120/194/1
f 71/112/2 70/110/2 109/180/2
f 63/96/5 62/94/5 121/196/5
f 52/73/1 51/70/1 110/181/1
f 48/62/2 47/60/2 104/174/2
f 80/130/1 79/127/1 128/207/1
f 111/183/1 110/181/1 146/231/1
f 119/192/5 117/189/5 186/281/5
f 97/166/1 96/165/1 180/274/1
f 21/27/6 31/39/6 29/36/6
f 185/280/2 137/220/2 132/212/2
f 94/160/5 90/153/5 134/215/5
f 104/174/2 103/173/2 177/270/2
f 79/127/1 94/161/1 123/201/1
f 154/241/2 127/205/2 126/204/2
f 83/136/2 84/138/2 140/224/2
f 49/65/4 87/144/4 93/158/4
f 93/159/5 87/145/5 127/206/5
f 17/23/6 16/22/6 22/28/6
f 18/24/6 17/23/6 23/29/6
f 94/162/4 79/128/4 73/116/4
f 114/186/3 115/187/3 182/276/3
f 112/184/3 100/170/3 166/255/3
f 136/219/1 139/223/1 162/251/1
f 18/24/6 24/30/6 25/31/6
f 119/193/2 144/228/2 171/261/2
f 135/218/3 68/106/3 67/104/3
f 144/228/2 9/14/2 29/37/2
f 147/232/1 143/227/1 17/23/1
f 28/35/1 10/16/1 187/282/1
f 179/272/5 163/252/5 35/44/5
f 149/234/1 146/231/1 26/32/1
f 45/56/1 176/268/1 169/259/1
f 146/231/1 152/238/1 19/25/1
f 35/44/5 163/252/5 142/226/5
f 180/273/3 157/244/3 20/26/3
f 166/255/3 165/254/3 40/50/3
f 158/245/5 154/240/5 38/47/5
f 161/250/2 150/236/2 30/38/2
f 178/271/3 174/266/3 6/10/3
f 159/246/2 164/253/2 32/41/2
f 155/242/1 148/233/1 41/51/1
f 142/226/5 158/245/5 37/46/5
f 31/39/3 184/278/3 171/262/3
f 150/236/2 168/257/2 3/5/2
f 152/238/1 147/232/1 18/24/1
f 175/267/2 151/237/2 23/29/2
f 173/265/2 167/256/2 13/19/2
f 143/227/1 183/277/1 16/22/1
f 181/275/5 153/239/5 11/17/5
f 186/281/5 149/235/5 4/7/5
f 182/276/3 178/271/3 7/11/3
f 151/237/2 185/280/2 24/30/2
f 183/277/1 145/230/1 33/42/1
f 144/229/5 186/281/5 21/27/5
f 156/243/3 176/269/3 45/55/3
f 168/258/5 181/275/5 39/49/5
f 38/48/2 154/241/2 175/267/2
f 145/230/1 180/274/1 2/4/1
f 185/280/2 170/260/2 25/31/2
f 148/233/1 172/263/1 46/57/1
f 153/239/5 187/283/5 10/15/5
f 160/249/3 156/243/3 27/33/3
f 46/58/5 172/264/5 179/272/5
f 31/39/6 26/32/6 19/25/6
f 21/27/6 4/8/6 26/32/6
f 177/270/2 173/265/2 14/20/2
f 167/256/2 161/250/2 12/18/2
f 165/254/3 159/247/3 1/2/3
f 170/260/2 184/279/2 31/40/2
f 164/253/2 177/270/2 15/21/2
f 162/251/1 155/242/1 42/52/1
f 169/259/1 162/251/1 43/53/1
f 174/266/3 166/255/3 5/9/3
f 157/244/3 182/276/3 8/12/3
f 55/80/3 48/63/3 98/168/3
f 38/48/6 22/28/6 16/22/6
f 20/26/6 38/48/6 33/42/6
f 20/26/6 8/12/6 37/46/6
f 8/12/6 7/11/6 36/45/6
f 7/11/6 6/10/6 35/44/6
f 6/10/6 5/9/6 34/43/6
f 34/43/6 5/9/6 40/50/6
f 32/41/6 46/58/6 40/50/6
f 46/58/6 32/41/6 15/21/6
f 15/21/6 14/20/6 42/52/6
f 14/20/6 13/19/6 43/53/6
f 12/18/6 44/54/6 43/53/6
f 45/56/6 44/54/6 12/18/6
f 3/6/6 39/49/6 45/56/6
f 39/49/6 11/17/6 27/33/6
f 10/16/6 28/35/6 27/33/6
o Cube
v -4.016391 -0.035593 4.016391
v -4.016391 0.419647 4.016391
v -4.016391 -0.035593 -4.016391
v -4.016391 0.419647 -4.016391
v 4.016391 -0.035593 4.016391
v 4.016391 0.419647 4.016391
v 4.016391 -0.035593 -4.016391
v 4.016391 0.419647 -4.016391
vn -1.0000 -0.0000 -0.0000
vn -0.0000 -0.0000 -1.0000
vn 1.0000 -0.0000 -0.0000
vn -0.0000 -0.0000 1.0000
vn -0.0000 -1.0000 -0.0000
vn -0.0000 1.0000 -0.0000
vt 0.375000 0.000000
vt 0.375000 1.000000
vt 0.125000 0.750000
vt 0.625000 0.000000
vt 0.625000 1.000000
vt 0.999900 0.999900
vt 1.000000 0.459758
vt 0.125000 0.500000
vt 0.375000 0.250000
vt 0.625000 0.250000
vt 1.000000 0.540242
vt 0.999900 0.000100
vt 0.375000 0.750000
vt 0.625000 0.750000
vt 0.000100 0.999900
vt 0.000000 0.459758
vt 0.375000 0.500000
vt 0.000100 0.000100
vt 0.000000 0.540242
vt 0.625000 0.500000
s 0
usemtl gravel
f 189/287/8 190/292/8 188/284/8
f 191/294/9 194/299/9 190/290/9
f 195/303/10 192/296/10 194/300/10
f 193/297/11 188/285/11 192/296/11
f 194/300/12 188/286/12 190/291/12
f 191/295/13 193/298/13 195/301/13
f 189/287/8 191/293/8 190/292/8
f 191/294/9 195/302/9 194/299/9
f 195/303/10 193/297/10 192/296/10
f 193/297/11 189/288/11 188/285/11
f 194/300/12 192/296/12 188/286/12
f 191/295/13 189/289/13 193/298/13
