# Blender 3.4.1
# www.blender.org
o Plane
v -10.000000 0.000000 10.000000
v 10.000000 0.000000 10.000000
v -10.000000 0.000000 -10.000000
v 10.000000 0.000000 -10.000000
vn -0.0000 1.0000 -0.0000
vt 0.000000 0.000000
vt 1.000000 0.000000
vt 0.000000 1.000000
vt 1.000000 1.000000
s 0
f 2/2/1 3/3/1 1/1/1
f 2/2/1 4/4/1 3/3/1
o Cube
v -0.320303 -0.314274 0.320303
v -0.320303 1.762592 0.320303
v -0.320303 -0.314274 -0.320303
v -0.320303 1.762592 -0.320303
v 0.320303 -0.314274 0.320303
v 0.320303 1.762592 0.320303
v 0.320303 -0.314274 -0.320303
v 0.320303 1.762592 -0.320303
v -0.692266 2.762592 0.692266
v -0.692266 2.762592 -0.692266
v 0.692266 2.762592 -0.692266
v 0.692266 2.762592 0.692266
v -1.611755 3.762591 1.611755
v -1.611755 3.762591 -1.611755
v 1.611755 3.762591 -1.611755
v 1.611755 3.762591 1.611755
v -4.805499 4.762591 4.805499
v -4.805499 4.762591 -4.805499
v 4.805499 4.762591 -4.805499
v 4.805499 4.762591 4.805499
v -4.805499 7.100740 4.805499
v -4.805499 7.100740 -4.805499
v 4.805499 7.100740 -4.805499
v 4.805499 7.100740 4.805499
vn -1.0000 -0.0000 -0.0000
vn -0.0000 -0.0000 -1.0000
vn 1.0000 -0.0000 -0.0000
vn -0.0000 -0.0000 1.0000
vn -0.0000 -1.0000 -0.0000
vn -0.0000 -0.3486 -0.9373
vn 0.7361 -0.6769 -0.0000
vn 0.9373 -0.3486 -0.0000
vn -0.9373 -0.3486 -0.0000
vn -0.0000 -0.3486 0.9373
vn -0.0000 -0.9543 0.2988
vn -0.7361 -0.6769 -0.0000
vn -0.0000 -0.6769 0.7361
vn -0.0000 -0.6769 -0.7361
vn -0.0000 -0.9543 -0.2988
vn 0.2988 -0.9543 -0.0000
vn -0.2988 -0.9543 -0.0000
vn -0.0000 1.0000 -0.0000
vt 0.558559 0.533327
vt 0.575696 0.533327
vt 0.500000 0.533327
vt 0.533327 0.533327
vt 0.550464 0.533327
vt 0.233336 0.266664
vt 0.525232 0.566653
vt 0.500000 0.500000
vt 0.558559 0.500000
vt 0.533327 0.500000
vt 0.500000 0.566653
vt 0.233336 0.233336
vt 0.575696 0.566653
vt 0.550464 0.533327
vt 0.533327 0.533327
vt 0.525232 0.533327
vt 0.550464 0.566653
vt 0.266664 0.266664
vt 0.550464 0.566653
vt 0.525232 0.533327
vt 0.533327 0.500000
vt 0.500000 0.533327
vt 0.525232 0.566653
vt 0.266664 0.233336
vt 0.213985 0.286015
vt 0.213985 0.213985
vt 0.286015 0.213985
vt 0.286015 0.286015
vt 0.166150 0.333850
vt 0.166150 0.166150
vt 0.333850 0.166150
vt 0.333850 0.333850
vt 0.613626 0.000000
vt 0.000000 0.500000
vt 0.585219 0.500000
vt 0.585219 0.000000
vt 0.528407 0.500000
vt 0.000000 0.000000
vt 0.528407 0.000000
vt 0.500000 0.000000
vt 0.556813 0.500000
vt 0.556813 0.000000
vt 0.500000 0.500000
vt 0.613626 0.500000
vt 0.500000 1.000000
vt 0.556813 0.500000
vt 0.585219 0.000000
vt 0.500000 0.500000
vt 0.556813 0.000000
vt 0.000000 0.500000
vt 0.500000 0.000000
vt 0.528407 0.500000
vt 0.000000 1.000000
vt 0.528407 0.000000
vt 0.585219 0.500000
s 0
f 6/8/2 7/13/2 5/5/2
f 8/15/3 11/24/3 7/11/3
f 12/27/4 9/18/4 11/23/4
f 10/21/5 5/6/5 9/17/5
f 11/25/6 5/7/6 7/12/6
f 8/16/7 15/31/7 12/28/7
f 15/31/8 20/36/8 16/32/8
f 12/28/9 16/32/9 10/22/9
f 6/10/10 14/30/10 8/16/10
f 10/22/11 13/29/11 6/10/11
f 20/36/12 21/38/12 17/33/12
f 13/29/13 18/34/13 14/30/13
f 16/32/14 17/33/14 13/29/14
f 14/30/15 19/35/15 15/31/15
f 22/41/3 27/55/3 23/43/3
f 18/34/16 23/44/16 19/35/16
f 19/35/17 24/47/17 20/36/17
f 17/33/18 22/42/18 18/34/18
f 26/52/19 28/57/19 27/54/19
f 23/45/4 28/58/4 24/46/4
f 21/39/2 26/53/2 22/40/2
f 24/48/5 25/51/5 21/37/5
f 6/8/2 8/14/2 7/13/2
f 8/15/3 12/26/3 11/24/3
f 12/27/4 10/20/4 9/18/4
f 10/21/5 6/9/5 5/6/5
f 11/25/6 9/19/6 5/7/6
f 8/16/7 14/30/7 15/31/7
f 15/31/8 19/35/8 20/36/8
f 12/28/9 15/31/9 16/32/9
f 6/10/10 13/29/10 14/30/10
f 10/22/11 16/32/11 13/29/11
f 20/36/12 24/47/12 21/38/12
f 13/29/13 17/33/13 18/34/13
f 16/32/14 20/36/14 17/33/14
f 14/30/15 18/34/15 19/35/15
f 22/41/3 26/52/3 27/55/3
f 18/34/16 22/42/16 23/44/16
f 19/35/17 23/44/17 24/47/17
f 17/33/18 21/38/18 22/42/18
f 26/52/19 25/49/19 28/57/19
f 23/45/4 27/56/4 28/58/4
f 21/39/2 25/50/2 26/53/2
f 24/48/5 28/59/5 25/51/5
