# Blender 3.4.1
# www.blender.org
o Plane
v -19.554390 -2.724311 18.899893
v -11.037826 -3.448371 18.503752
v -19.554390 -2.724309 12.840787
v -11.037826 -3.448370 12.444646
v -4.965838 -5.216005 18.109337
v -4.965838 -5.216003 14.301737
v -16.515022 -2.724309 10.191051
v -11.037826 -3.448370 9.794910
v 0.528069 -5.890405 18.781178
v 0.528069 -5.890403 14.973578
v 4.011362 -5.521348 18.781178
v 4.011362 -5.521348 14.973578
v 7.780607 -4.481739 18.781178
v 7.780607 -4.481739 17.259010
v -4.907057 -7.118549 22.396019
v 0.586851 -7.053460 22.396019
v -4.907057 -10.029307 28.909304
v 0.586851 -9.964216 28.909304
v -4.907057 -11.412491 33.987366
v 0.586851 -11.347403 33.987366
v -19.554390 -2.724311 15.870340
v -11.037826 -3.448371 15.474199
v -4.965838 -5.216003 16.205536
v 0.528069 -5.890405 16.877378
v 4.011362 -5.521348 16.877378
v 7.780607 -4.481739 17.882969
v -2.218885 -5.553205 18.445257
v -2.218885 -5.553205 14.637657
v -2.160103 -7.086004 22.396019
v -2.160103 -9.996761 28.909304
v -2.160103 -11.379948 33.987366
v -2.218885 -5.553205 16.541458
v -15.296108 -3.086341 18.701822
v -15.296108 -3.086339 12.642716
v -13.776424 -3.086339 9.992981
v -15.296108 -3.086341 15.672270
v 15.276817 -3.012414 18.598343
v 15.276817 -3.012414 17.076176
v 15.276817 -3.012414 17.700134
v 19.292433 -2.215001 18.598343
v 19.292433 -2.215001 14.790744
v 19.292433 -2.215001 16.694544
v 19.997597 -2.215001 18.598343
v 19.997597 -2.215001 14.790744
v 19.997597 -2.215001 16.694544
v 20.680475 -2.215001 18.598343
v 20.680475 -2.215001 14.790744
v 20.680475 -2.215001 16.694544
v 17.555506 -0.800546 9.698133
v 19.144369 -0.800546 9.698133
v 20.680475 -0.800546 9.698133
v 17.930351 -0.800546 7.805028
v 19.519215 -0.800546 7.805028
v 21.055321 -0.800546 7.805028
v 18.310884 -0.964084 5.501284
v 19.899748 -0.964084 5.501284
v 21.435854 -0.964084 5.501284
v 10.311399 -0.136011 9.698133
v 10.686245 -0.136011 7.805028
v 11.066778 -0.299549 5.501284
v 1.879541 0.715810 9.698133
v 2.254387 0.715810 7.805028
v 2.634920 0.552272 5.501284
v -4.069988 1.578929 9.095622
v -3.695142 1.578929 7.202517
v -3.314609 1.415391 4.898772
v -8.245232 2.773778 8.042254
v -7.870386 3.176212 6.149149
v -7.625034 3.474313 4.322716
v -4.907057 -11.412491 37.900024
v 0.586851 -11.347403 37.900024
v -2.160103 -11.379948 37.900024
v 18.820185 -2.613708 17.533169
v 18.820185 -2.613708 16.819752
v 18.820185 -2.613708 18.598343
v -13.507133 4.446156 6.320838
v -13.132288 4.946912 4.427732
v -12.751755 5.536867 2.123988
v -17.070225 5.446177 5.859640
v -16.695379 5.946933 3.966535
v -16.314846 6.353130 1.662790
v -10.729428 6.242993 -1.563907
v -14.292520 6.680113 -2.025105
v -10.418658 7.077905 -4.418710
v -13.981750 7.515025 -4.879908
v 10.082066 -9.920169 33.987366
v 10.082066 -10.659099 37.900024
v 6.979553 -10.719002 37.900024
v 6.979553 -10.221514 33.987366
v -9.970231 7.652582 -6.897277
v -13.395115 8.227439 -6.852395
v -4.120901 7.844925 -5.779143
v -4.225434 8.146190 -8.045449
v 5.692479 8.415925 -6.967792
v 5.587946 8.254922 -9.234098
vn 0.0847 0.9964 -0.0000
vn 0.2795 0.9601 -0.0000
vn 0.0869 0.9950 0.0498
vn 0.1218 0.9925 -0.0000
vn -0.1054 0.9944 -0.0000
vn -0.2659 0.9640 -0.0000
vn -0.0108 0.9129 0.4080
vn -0.0110 0.9322 0.3618
vn -0.0114 0.9648 0.2628
vn -0.0113 0.9518 0.3064
vn 0.0890 0.9908 0.1021
vn 0.1311 0.9914 -0.0000
vn 0.0626 0.9125 0.4042
vn 0.0702 0.9303 0.3599
vn 0.1362 0.9876 0.0781
vn -0.1923 0.9813 -0.0000
vn -0.6451 0.7641 -0.0000
vn -0.0000 1.0000 -0.0000
vn -0.0000 0.9635 0.2676
vn -0.0000 0.9975 -0.0708
vn 0.0912 0.9943 -0.0555
vn 0.0913 0.9957 0.0181
vn 0.1004 0.9935 -0.0539
vn 0.1005 0.9947 0.0199
vn 0.1480 0.9879 -0.0457
vn 0.1407 0.9897 0.0279
vn 0.3076 0.9316 0.1934
vn 0.2098 0.9471 0.2429
vn -0.0118 0.9999 -0.0000
vn -0.1118 0.9937 -0.0000
vn 0.1408 0.9897 0.0279
vn 0.4302 0.9027 0.0070
vn 0.3416 0.9374 0.0676
vn 0.2202 0.9444 0.2444
vn 0.2570 0.9477 0.1892
vn 0.2236 0.9304 0.2904
vn 0.2263 0.9340 0.2766
vn 0.1954 0.9617 0.1924
vn 0.0798 0.9544 0.2878
vn -0.0950 0.9782 0.1847
vn -0.1721 0.9772 0.1243
vn -0.1675 0.9512 0.2591
vn 0.0681 0.9317 0.3568
vn -0.0582 0.9892 0.1342
vn -0.0195 0.9974 -0.0700
vn 0.2187 0.9318 0.2898
vn 0.2530 0.9264 0.2790
vn 0.1939 0.9601 0.2013
vn 0.0885 0.9682 0.2339
vn -0.0192 0.9918 0.1261
vn -0.0978 0.9952 -0.0000
vn 0.1634 0.9541 0.2508
vn -0.0727 0.9744 0.2128
vn -0.0414 0.9902 0.1335
vt 0.000000 0.000000
vt 1.000000 0.000000
vt 0.000000 1.000000
vt 1.000000 1.000000
vt 1.000000 0.000000
vt 1.000000 1.000000
vt 0.000000 1.000000
vt 1.000000 1.000000
vt 1.000000 0.000000
vt 1.000000 1.000000
vt 1.000000 0.000000
vt 1.000000 1.000000
vt 1.000000 0.000000
vt 1.000000 1.000000
vt 1.000000 0.000000
vt 1.000000 0.000000
vt 1.000000 0.000000
vt 1.000000 0.000000
vt 1.000000 0.000000
vt 1.000000 0.000000
vt 0.000000 0.500000
vt 1.000000 0.500000
vt 1.000000 0.500000
vt 1.000000 0.500000
vt 1.000000 0.500000
vt 1.000000 0.500000
vt 1.000000 0.000000
vt 1.000000 1.000000
vt 1.000000 0.000000
vt 1.000000 0.000000
vt 1.000000 0.000000
vt 1.000000 0.500000
vt 0.500000 0.000000
vt 0.500000 1.000000
vt 0.500000 1.000000
vt 0.500000 0.500000
vt 1.000000 0.000000
vt 1.000000 1.000000
vt 1.000000 0.500000
vt 1.000000 0.000000
vt 1.000000 1.000000
vt 1.000000 0.500000
vt 1.000000 0.000000
vt 1.000000 1.000000
vt 1.000000 0.500000
vt 1.000000 0.000000
vt 1.000000 1.000000
vt 1.000000 0.500000
vt 1.000000 1.000000
vt 1.000000 1.000000
vt 1.000000 1.000000
vt 1.000000 1.000000
vt 1.000000 1.000000
vt 1.000000 1.000000
vt 1.000000 1.000000
vt 1.000000 1.000000
vt 1.000000 1.000000
vt 1.000000 1.000000
vt 1.000000 1.000000
vt 1.000000 1.000000
vt 1.000000 1.000000
vt 1.000000 1.000000
vt 1.000000 1.000000
vt 1.000000 1.000000
vt 1.000000 1.000000
vt 1.000000 1.000000
vt 1.000000 1.000000
vt 1.000000 1.000000
vt 1.000000 1.000000
vt 1.000000 0.000000
vt 1.000000 0.000000
vt 1.000000 0.000000
vt 1.000000 0.500000
vt 1.000000 1.000000
vt 1.000000 0.000000
vt 1.000000 1.000000
vt 1.000000 1.000000
vt 1.000000 1.000000
vt 1.000000 1.000000
vt 1.000000 1.000000
vt 1.000000 1.000000
vt 1.000000 1.000000
vt 1.000000 1.000000
vt 1.000000 1.000000
vt 1.000000 1.000000
vt 1.000000 0.000000
vt 1.000000 0.000000
vt 1.000000 0.000000
vt 1.000000 0.000000
vt 1.000000 1.000000
vt 1.000000 1.000000
vt 1.000000 1.000000
vt 1.000000 1.000000
vt 1.000000 1.000000
vt 1.000000 1.000000
s 0
f 22/22/1 34/34/1 36/36/1
f 2/2/2 23/23/2 22/22/2
f 4/4/3 35/35/3 34/34/3
f 27/27/4 24/24/4 32/32/4
f 9/9/5 25/25/5 24/24/5
f 11/11/6 26/26/6 25/25/6
f 15/15/7 30/30/7 29/29/7
f 27/27/8 15/15/8 29/29/8
f 17/17/9 31/31/9 30/30/9
f 25/25/6 14/14/6 12/12/6
f 24/24/5 12/12/5 10/10/5
f 32/32/4 10/10/4 28/28/4
f 22/22/2 6/6/2 4/4/2
f 2/2/1 36/36/1 33/33/1
f 23/23/4 28/28/4 6/6/4
f 30/30/9 20/20/9 18/18/9
f 9/9/10 29/29/10 16/16/10
f 29/29/7 18/18/7 16/16/7
f 5/5/4 32/32/4 23/23/4
f 33/33/1 21/21/1 1/1/1
f 34/34/11 7/7/11 3/3/11
f 36/36/1 3/3/1 21/21/1
f 22/22/1 4/4/1 34/34/1
f 2/2/2 5/5/2 23/23/2
f 4/4/12 8/8/12 35/35/12
f 27/27/4 9/9/4 24/24/4
f 9/9/5 11/11/5 25/25/5
f 11/11/6 13/13/6 26/26/6
f 15/15/7 17/17/7 30/30/7
f 27/27/13 5/5/13 15/15/13
f 17/17/9 19/19/9 31/31/9
f 25/25/6 26/26/6 14/14/6
f 24/24/5 25/25/5 12/12/5
f 32/32/4 24/24/4 10/10/4
f 22/22/2 23/23/2 6/6/2
f 2/2/1 22/22/1 36/36/1
f 23/23/4 32/32/4 28/28/4
f 30/30/9 31/31/9 20/20/9
f 9/9/14 27/27/14 29/29/14
f 29/29/7 30/30/7 18/18/7
f 5/5/4 27/27/4 32/32/4
f 33/33/1 36/36/1 21/21/1
f 34/34/15 35/35/15 7/7/15
f 36/36/1 34/34/1 3/3/1
f 14/14/16 39/39/16 38/38/16
f 26/26/16 37/37/16 39/39/16
f 74/74/17 42/42/17 41/41/17
f 73/73/17 40/40/17 42/42/17
f 42/42/18 44/44/18 41/41/18
f 40/40/18 45/45/18 42/42/18
f 45/45/18 47/47/18 44/44/18
f 43/43/18 48/48/18 45/45/18
f 44/44/19 51/51/19 50/50/19
f 41/41/19 50/50/19 49/49/19
f 51/51/18 53/53/18 50/50/18
f 50/50/18 52/52/18 49/49/18
f 54/54/20 56/56/20 53/53/20
f 53/53/20 55/55/20 52/52/20
f 52/52/21 60/60/21 59/59/21
f 49/49/22 59/59/22 58/58/22
f 59/59/23 63/63/23 62/62/23
f 58/58/24 62/62/24 61/61/24
f 62/62/25 66/66/25 65/65/25
f 61/61/26 65/65/26 64/64/26
f 65/65/27 69/69/27 68/68/27
f 64/64/28 68/68/28 67/67/28
f 31/31/29 71/71/29 20/20/29
f 19/19/29 72/72/29 31/31/29
f 39/39/30 75/75/30 73/73/30
f 38/38/30 73/73/30 74/74/30
f 14/14/16 26/26/16 39/39/16
f 26/26/16 13/13/16 37/37/16
f 74/74/17 73/73/17 42/42/17
f 73/73/17 75/75/17 40/40/17
f 42/42/18 45/45/18 44/44/18
f 40/40/18 43/43/18 45/45/18
f 45/45/18 48/48/18 47/47/18
f 43/43/18 46/46/18 48/48/18
f 44/44/19 47/47/19 51/51/19
f 41/41/19 44/44/19 50/50/19
f 51/51/18 54/54/18 53/53/18
f 50/50/18 53/53/18 52/52/18
f 54/54/20 57/57/20 56/56/20
f 53/53/20 56/56/20 55/55/20
f 52/52/21 55/55/21 60/60/21
f 49/49/22 52/52/22 59/59/22
f 59/59/23 60/60/23 63/63/23
f 58/58/24 59/59/24 62/62/24
f 62/62/25 63/63/25 66/66/25
f 61/61/31 62/62/31 65/65/31
f 65/65/32 66/66/32 69/69/32
f 64/64/33 65/65/33 68/68/33
f 31/31/29 72/72/29 71/71/29
f 19/19/29 70/70/29 72/72/29
f 39/39/30 37/37/30 75/75/30
f 38/38/30 39/39/30 73/73/30
f 68/68/34 76/76/34 67/67/34
f 69/69/35 77/77/35 68/68/35
f 77/77/36 79/79/36 76/76/36
f 78/78/37 80/80/37 77/77/37
f 78/78/38 83/83/38 81/81/38
f 83/83/39 84/84/39 85/85/39
f 89/89/40 87/87/40 86/86/40
f 20/20/41 88/88/41 89/89/41
f 20/20/42 89/89/42 18/18/42
f 84/84/43 91/91/43 85/85/43
f 90/90/44 92/92/44 93/93/44
f 93/93/45 94/94/45 95/95/45
f 68/68/46 77/77/46 76/76/46
f 69/69/47 78/78/47 77/77/47
f 77/77/36 80/80/36 79/79/36
f 78/78/48 81/81/48 80/80/48
f 78/78/49 82/82/49 83/83/49
f 83/83/39 82/82/39 84/84/39
f 89/89/50 88/88/50 87/87/50
f 20/20/51 71/71/51 88/88/51
f 84/84/52 90/90/52 91/91/52
f 90/90/53 84/84/53 92/92/53
f 93/93/54 92/92/54 94/94/54
