# Blender 3.4.1
# www.blender.org
o Plane
v -19.554390 -2.724309 18.899893
v -11.037826 -3.448369 18.503752
v -19.554390 -2.724309 12.840787
v -11.037826 -3.448369 12.444646
v -4.965838 -5.216003 18.109337
v -4.965838 -5.216003 14.301737
v -16.515022 -2.724309 10.191051
v -11.037826 -3.448369 9.794910
v 0.528069 -5.890403 18.781178
v 0.528069 -5.890403 14.973578
v 4.011362 -5.521346 18.781178
v 4.011362 -5.521346 14.973578
v 7.780607 -4.481737 18.781178
v 7.780607 -4.481737 14.973578
v -4.907057 -7.118547 22.396019
v 0.586851 -7.053458 22.396019
v -4.907057 -10.029305 28.909304
v 0.586851 -9.964214 28.909304
v -4.907057 -11.844820 33.987366
v 0.586851 -11.779732 33.987366
v -19.554390 -2.724309 15.870340
v -11.037826 -3.448369 15.474199
v -4.965838 -5.216003 16.205536
v 0.528069 -5.890403 16.877378
v 4.011362 -5.521346 16.877378
v 7.780607 -4.481737 16.877378
v -2.218885 -5.553203 18.445257
v -2.218885 -5.553203 14.637657
v -2.160103 -7.086002 22.396019
v -2.160103 -9.996759 28.909304
v -2.160103 -11.812277 33.987366
v -2.218885 -5.553203 16.541458
v -15.296108 -3.086339 18.701822
v -15.296108 -3.086339 12.642716
v -13.776424 -3.086339 9.992981
v -15.296108 -3.086339 15.672270
vn 0.0847 0.9964 -0.0000
vn 0.2795 0.9601 -0.0000
vn 0.0869 0.9950 0.0498
vn 0.1218 0.9925 -0.0000
vn -0.1054 0.9944 -0.0000
vn -0.2659 0.9640 -0.0000
vn -0.0108 0.9129 0.4080
vn -0.0110 0.9322 0.3618
vn -0.0112 0.9416 0.3366
vn -0.0113 0.9518 0.3064
vn 0.0890 0.9908 0.1021
vn 0.1311 0.9914 -0.0000
vn 0.0626 0.9125 0.4042
vn 0.0702 0.9303 0.3599
vn 0.1362 0.9876 0.0781
vt 0.000000 0.000000
vt 1.000000 0.000000
vt 0.000000 1.000000
vt 1.000000 1.000000
vt 1.000000 0.000000
vt 1.000000 1.000000
vt 0.000000 1.000000
vt 1.000000 1.000000
vt 1.000000 0.000000
vt 1.000000 1.000000
vt 1.000000 0.000000
vt 1.000000 1.000000
vt 1.000000 0.000000
vt 1.000000 1.000000
vt 1.000000 0.000000
vt 1.000000 0.000000
vt 1.000000 0.000000
vt 1.000000 0.000000
vt 1.000000 0.000000
vt 1.000000 0.000000
vt 0.000000 0.500000
vt 1.000000 0.500000
vt 1.000000 0.500000
vt 1.000000 0.500000
vt 1.000000 0.500000
vt 1.000000 0.500000
vt 1.000000 0.000000
vt 1.000000 1.000000
vt 1.000000 0.000000
vt 1.000000 0.000000
vt 1.000000 0.000000
vt 1.000000 0.500000
vt 0.500000 0.000000
vt 0.500000 1.000000
vt 0.500000 1.000000
vt 0.500000 0.500000
s 0
f 22/22/1 34/34/1 36/36/1
f 2/2/2 23/23/2 22/22/2
f 4/4/3 35/35/3 34/34/3
f 27/27/4 24/24/4 32/32/4
f 9/9/5 25/25/5 24/24/5
f 11/11/6 26/26/6 25/25/6
f 15/15/7 30/30/7 29/29/7
f 27/27/8 15/15/8 29/29/8
f 17/17/9 31/31/9 30/30/9
f 25/25/6 14/14/6 12/12/6
f 24/24/5 12/12/5 10/10/5
f 32/32/4 10/10/4 28/28/4
f 22/22/2 6/6/2 4/4/2
f 2/2/1 36/36/1 33/33/1
f 23/23/4 28/28/4 6/6/4
f 30/30/9 20/20/9 18/18/9
f 9/9/10 29/29/10 16/16/10
f 29/29/7 18/18/7 16/16/7
f 5/5/4 32/32/4 23/23/4
f 33/33/1 21/21/1 1/1/1
f 34/34/11 7/7/11 3/3/11
f 36/36/1 3/3/1 21/21/1
f 22/22/1 4/4/1 34/34/1
f 2/2/2 5/5/2 23/23/2
f 4/4/12 8/8/12 35/35/12
f 27/27/4 9/9/4 24/24/4
f 9/9/5 11/11/5 25/25/5
f 11/11/6 13/13/6 26/26/6
f 15/15/7 17/17/7 30/30/7
f 27/27/13 5/5/13 15/15/13
f 17/17/9 19/19/9 31/31/9
f 25/25/6 26/26/6 14/14/6
f 24/24/5 25/25/5 12/12/5
f 32/32/4 24/24/4 10/10/4
f 22/22/2 23/23/2 6/6/2
f 2/2/1 22/22/1 36/36/1
f 23/23/4 32/32/4 28/28/4
f 30/30/9 31/31/9 20/20/9
f 9/9/14 27/27/14 29/29/14
f 29/29/7 30/30/7 18/18/7
f 5/5/4 27/27/4 32/32/4
f 33/33/1 36/36/1 21/21/1
f 34/34/15 35/35/15 7/7/15
f 36/36/1 34/34/1 3/3/1
