# Blender 3.4.1
# www.blender.org
o bunker
v -1.400000 -1.400000 -8.420291
v -1.400000 2.800000 -8.420291
v -1.400000 -1.399999 -11.220290
v -1.400000 2.800000 -11.220290
v 1.400000 -1.400000 -8.420291
v 1.400000 2.800000 -8.420291
v 1.400000 -1.399999 -11.220290
v 1.400000 2.800000 -11.220290
v -1.400000 2.800001 -14.020290
v -1.400000 -1.399999 -14.020290
v 1.400000 -1.399999 -14.020290
v 1.400000 2.800001 -14.020290
v -1.400000 2.800001 -16.820290
v -1.400000 -1.399999 -16.820290
v 1.400000 -1.399999 -16.820290
v 1.400000 2.800001 -16.820290
v -1.400000 2.800001 -19.620291
v -1.400000 -1.399999 -19.620291
v 1.400000 -1.399999 -19.620291
v 1.400000 2.800001 -19.620291
v 4.200000 1.400000 -11.220290
v 4.200000 -1.399999 -11.220290
v 4.200000 -1.400000 -8.420291
v 4.200000 1.400000 -8.420291
v 4.200000 1.400001 -14.020290
v 4.200000 -1.399999 -14.020290
v 4.200000 1.400001 -16.820290
v 4.200000 -1.399999 -16.820290
v 4.200000 -1.399999 -19.620291
v -4.200000 -1.399999 -11.220290
v -4.200000 -1.400000 -8.420291
v -4.200000 1.400000 -8.420291
v -4.200000 1.400000 -11.220290
v -4.200000 1.400001 -14.020290
v -4.200000 -1.399999 -14.020290
v -4.200000 1.400001 -16.820290
v -4.200000 -1.399999 -16.820290
v -4.200000 1.400001 -19.620291
v -4.200000 -1.399999 -19.620291
v -1.400000 1.400032 -8.420291
v 1.400000 1.400066 -8.420291
v 4.200000 -1.399999 -25.220291
v 1.400000 -1.399999 -25.220291
v -1.400000 1.400032 -5.620291
v 5.285119 3.194422 -0.020291
v 1.400000 1.400066 -5.620291
v 1.400000 -1.400000 -5.620291
v -1.400000 -1.400000 -5.620291
v -4.486170 3.194295 -0.020291
v -1.400000 1.400032 -2.820291
v 1.400000 1.400066 -2.820291
v 1.400000 -1.400000 -2.820291
v -1.400000 -1.400000 -2.820291
v -1.400000 1.400032 -0.020291
v -4.486170 -2.430487 -0.020291
v 1.400000 1.400066 -0.020291
v 1.400000 -1.400000 -0.020291
v -1.400000 -1.400000 -0.020291
v 5.285119 -2.430487 -0.020291
v 1.400000 -1.399999 -22.420292
v 4.200000 -1.399999 -22.420292
v -1.400000 -1.399999 -22.420292
v -1.400000 2.800001 -22.420292
v 1.400000 2.800001 -22.420292
v 1.400000 -1.399999 -28.020290
v 4.200000 -1.399999 -30.820292
v -4.200000 1.400001 -22.420292
v -4.200000 -1.399999 -22.420292
v -1.400000 -1.399999 -25.220291
v -1.400000 2.800001 -25.220291
v 1.400000 2.800001 -25.220291
v 1.400000 -1.399999 -30.820292
v -4.200000 1.400001 -25.220291
v -4.200000 -1.399999 -25.220291
v 4.200000 -1.399999 -33.620293
v -1.400000 -1.399999 -28.020290
v -1.400000 2.800001 -28.020290
v 1.400000 2.800001 -28.020290
v 1.400000 -1.399999 -33.620293
v -4.200000 1.400001 -28.020290
v -4.200000 -1.399999 -28.020290
v 4.200000 1.400001 -19.620291
v 4.200000 2.800001 -22.420292
v 4.200000 2.800001 -25.220291
v 4.200000 -1.399999 -28.020290
v 4.200000 1.400001 -28.020290
v 7.000000 1.400001 -19.620291
v 7.000000 -1.399999 -19.620291
v 7.000000 -1.399999 -22.420292
v 7.000000 2.800001 -22.420292
v 7.000000 -1.399999 -25.220291
v 7.000000 2.800001 -25.220291
v 7.000000 -1.399999 -28.020290
v 7.000000 1.400001 -28.020290
v 9.800000 1.400001 -19.620291
v 9.800000 -1.399999 -19.620291
v 9.800000 -1.399999 -22.420292
v 9.800000 2.800001 -22.420292
v 9.800000 -1.399999 -25.220291
v 9.800000 2.800001 -25.220291
v 9.800000 -1.399999 -28.020290
v 9.800000 1.400001 -28.020290
v 12.599999 1.400001 -19.620291
v 12.599999 -1.399999 -19.620291
v 12.599999 -1.399999 -22.420292
v 12.599999 2.800001 -22.420292
v 12.599999 -1.399999 -25.220291
v 12.599999 2.800001 -25.220291
v 12.599999 -1.399999 -28.020290
v 12.599999 1.400001 -28.020290
v 15.400000 1.400001 -19.620291
v 15.400000 -1.399999 -19.620291
v 15.400000 -1.399999 -22.420292
v 15.400000 2.800001 -22.420292
v 15.400000 -1.399999 -25.220291
v 15.400000 2.800001 -25.220291
v 15.400000 -1.399999 -28.020290
v 15.400000 1.400001 -28.020290
v 15.400000 1.399772 -25.220291
v -1.400000 -1.399999 -30.820292
v -1.400000 2.800001 -30.820292
v 1.400000 2.800001 -30.820292
v 15.400000 1.399544 -22.420292
v 4.200000 1.400001 -30.820292
v -4.200000 1.400001 -30.820292
v -4.200000 -1.399999 -30.820292
v -1.400000 1.402453 -33.620293
v -1.400000 -1.399999 -33.620293
v -1.400000 2.800001 -33.620293
v 1.400000 2.800001 -33.620293
v 1.400000 1.401228 -33.620293
v 4.200000 1.400001 -33.620293
v -4.200000 1.400001 -33.620293
v -4.200000 -1.399999 -33.620293
v 5.285119 3.194422 -10.850704
v -4.486170 3.194295 -10.850704
v -4.486170 -2.430486 -10.850704
v 1.400120 -2.430487 -0.020291
v -1.400326 -2.430487 -0.020291
v 1.400000 -2.400000 2.621583
v -1.400000 -2.400000 2.621583
vn -0.0000 1.0000 -0.0000
vn 0.4472 -0.8944 -0.0000
vn -0.4472 -0.8944 -0.0000
vn -1.0000 -0.0000 -0.0000
vn -0.0000 -1.0000 -0.0000
vn -0.0000 -0.0000 -1.0000
vn 1.0000 -0.0000 -0.0000
vn -0.0000 -0.0000 1.0000
vn -0.0000 -0.8944 -0.4472
vn -0.4082 -0.8165 -0.4082
vn -0.4082 -0.8165 0.4082
vn -0.0000 -0.8944 0.4472
vn -0.0000 0.9352 0.3540
vn 1.0000 0.0001 -0.0000
vn -1.0000 0.0003 0.0001
vt 0.000000 1.000000
vt 0.000000 0.000000
vt 1.000000 0.000000
vt 0.625000 1.000000
vt 1.294521 -0.668713
vt 0.000000 0.000000
vt 0.000000 1.000000
vt 1.292230 -0.273391
vt 0.000000 0.000000
vt 1.000000 1.000000
vt 1.000000 0.000000
vt 0.000000 1.000000
vt 0.625000 0.750000
vt 0.899209 -0.671010
vt 0.000000 0.000000
vt 0.000000 1.000000
vt 0.896903 -0.275691
vt 1.289937 0.121961
vt 0.000000 0.000000
vt 1.000000 1.000000
vt 0.000000 1.000000
vt 0.000000 0.000000
vt 1.000000 0.000000
vt 0.000000 1.000000
vt 0.894588 0.119646
vt 1.287645 0.517399
vt 0.000000 0.000000
vt 1.000000 1.000000
vt 0.000000 1.000000
vt 0.000000 0.000000
vt 1.000000 0.000000
vt 0.000000 1.000000
vt 0.892240 0.515006
vt 1.285302 0.913138
vt 0.000000 0.000000
vt 1.000000 1.000000
vt 0.000000 1.000000
vt 0.000000 0.000000
vt 1.000000 0.000000
vt 0.000000 1.000000
vt 0.889769 0.910347
vt 1.000000 1.000000
vt 0.000000 1.000000
vt 0.454920 -0.278284
vt 0.000000 0.000000
vt 1.000000 1.000000
vt 1.000000 0.000000
vt 1.000000 0.000000
vt 0.000000 0.000000
vt 0.625000 0.750000
vt 1.000000 1.000000
vt 0.457236 -0.673597
vt 0.000000 1.000000
vt 1.000000 1.000000
vt 0.000000 1.000000
vt 0.452596 0.117028
vt 0.000000 0.000000
vt 1.000000 0.000000
vt 1.000000 1.000000
vt 1.000000 1.000000
vt 0.000000 1.000000
vt 0.450240 0.512333
vt 1.000000 0.000000
vt 0.000000 0.000000
vt 1.000000 1.000000
vt 1.000000 1.000000
vt 0.000000 0.000000
vt 1.000000 0.000000
vt 0.000000 0.000000
vt 1.000000 0.000000
vt 1.000000 1.000000
vt 0.000000 0.000000
vt 1.000000 1.000000
vt 1.000000 0.000000
vt 0.625000 1.000000
vt 1.736495 -0.666161
vt 0.000000 1.000000
vt 1.000000 1.000000
vt 1.734216 -0.270848
vt 1.000000 1.000000
vt 0.000000 1.000000
vt 1.000000 1.000000
vt 0.000000 1.000000
vt 1.731961 0.124469
vt 0.000000 0.000000
vt 1.000000 1.000000
vt 1.000000 0.000000
vt 1.000000 1.000000
vt 0.000000 1.000000
vt 1.729774 0.519800
vt 0.000000 0.000000
vt 1.000000 0.000000
vt 1.000000 1.000000
vt 1.000000 1.000000
vt 1.727825 0.915181
vt 0.000000 1.000000
vt 0.000000 0.000000
vt 1.000000 0.000000
vt 0.000000 1.000000
vt 0.000000 1.000000
vt 1.000000 1.000000
vt 0.541669 1.000000
vt 0.541671 0.750000
vt 1.000000 1.000000
vt 0.000000 1.000000
vt 0.000000 0.000000
vt 1.000000 0.000000
vt 0.000000 1.000000
vt 0.000000 0.000000
vt 1.000000 1.000000
vt 1.000000 0.000000
vt 0.000000 1.000000
vt 1.000000 1.000000
vt 0.541669 1.000000
vt 0.000000 1.000000
vt 1.297089 -1.110682
vt 2.999388 1.284939
vt 0.541671 0.750000
vt 0.541671 0.750000
vt 1.000000 1.000000
vt 0.000000 1.000000
vt 0.901776 -1.112976
vt 0.000000 0.000000
vt 0.000000 1.000000
vt 1.000000 0.000000
vt 1.000000 1.000000
vt 0.000000 0.000000
vt 1.000000 0.000000
vt 0.541669 1.000000
vt 0.346851 1.284903
vt 1.000000 1.000000
vt 1.299381 -1.505993
vt 0.000000 1.000000
vt 0.904069 -1.508287
vt 1.000000 1.000000
vt 0.000000 1.000000
vt 0.000000 0.000000
vt 1.000000 1.000000
vt 1.000000 0.000000
vt 0.000000 1.000000
vt 0.000000 0.000000
vt 1.000000 0.000000
vt 1.301678 -1.901304
vt 1.184630 0.784136
vt 0.000000 1.000000
vt 0.346851 -0.284939
vt 0.906366 -1.903598
vt 1.944725 0.784145
vt 1.000000 1.000000
vt 1.944725 0.002664
vt 1.000000 0.000000
vt 1.000000 1.000000
vt 0.996094 0.000000
vt -0.003906 0.000000
vt 1.184630 0.002664
vt 0.000000 0.000000
vt 1.000000 0.000000
vt 2.999388 -0.284939
vt 0.000000 0.000000
vt 1.000000 1.000000
vt 1.000000 0.000000
vt 0.000000 1.000000
vt 0.000000 0.000000
vt 1.000000 0.000000
vt 0.000000 1.000000
vt 0.000000 0.000000
vt 1.000000 1.000000
vt 1.000000 0.000000
vt 0.000000 1.000000
vt 1.282918 1.309916
vt 0.882852 1.307695
vt 0.000000 0.000000
vt 1.000000 1.000000
vt 1.000000 0.000000
vt 0.000000 1.000000
vt 0.000000 0.000000
vt 1.000000 0.000000
vt 1.726257 1.310746
vt 0.000000 1.000000
vt 1.000000 1.000000
vt 0.000000 0.000000
vt 1.000000 1.000000
vt 1.000000 0.000000
vt 0.000000 1.000000
vt 0.000000 0.000000
vt 1.000000 1.000000
vt 0.000000 1.000000
vt 1.000000 0.000000
vt 1.283326 1.707770
vt 0.883699 1.710583
vt 0.000000 0.000000
vt 1.000000 0.000000
vt 0.000000 1.000000
vt 1.000000 1.000000
vt 1.000000 1.000000
vt 1.726358 1.706018
vt 0.000000 1.000000
vt 0.000000 0.000000
vt 1.000000 0.000000
vt 0.000000 1.000000
vt 1.000000 1.000000
vt 0.000000 0.000000
vt 1.000000 0.000000
vt 0.000000 0.000000
vt 1.000000 1.000000
vt 1.000000 0.000000
vt 0.000000 1.000000
vt 1.287030 2.104259
vt 0.891833 2.109193
vt 1.000000 1.000000
vt 0.000000 0.000000
vt 1.000000 0.000000
vt 1.000000 1.000000
vt 1.728779 2.100614
vt 0.000000 1.000000
vt 0.000000 0.000000
vt 1.000000 0.000000
vt 1.000000 1.000000
vt 0.000000 1.000000
vt 1.000000 1.000000
vt 0.447819 0.907627
vt 0.000000 1.000000
vt 0.454517 0.850394
vt 0.474909 1.303026
vt 0.473488 1.717127
vt 0.000000 0.000000
vt 1.000000 0.000000
vt 0.000000 1.000000
vt 1.000000 1.000000
vt 0.454168 2.170839
vt 0.450538 2.114183
vt 0.000000 1.000000
vt 1.000000 1.000000
vt 0.000000 1.000000
vt 0.055592 0.861432
vt 0.000000 0.000000
vt 1.000000 0.000000
vt 0.000000 0.000000
vt 1.000000 0.000000
vt 1.000000 1.000000
vt 0.000000 1.000000
vt 0.064715 1.310767
vt 0.000000 0.000000
vt 1.000000 1.000000
vt 1.000000 0.000000
vt 0.000000 1.000000
vt 0.065912 1.714285
vt 0.000000 0.000000
vt 1.000000 0.000000
vt 0.000000 1.000000
vt 1.000000 1.000000
vt 1.000000 1.000000
vt 0.059778 2.160329
vt 0.000000 1.000000
vt 1.000000 1.000000
vt 0.000000 1.000000
vt -0.342962 0.867784
vt 0.000000 0.000000
vt 1.000000 0.000000
vt 0.000000 0.000000
vt 0.000000 1.000000
vt 1.000000 0.000000
vt 1.000000 1.000000
vt -0.337304 1.314376
vt 0.000000 0.000000
vt 1.000000 0.000000
vt 0.000000 1.000000
vt 1.000000 1.000000
vt -0.335205 1.713889
vt 0.000000 0.000000
vt 1.000000 1.000000
vt 1.000000 0.000000
vt 0.000000 1.000000
vt -0.335952 2.157917
vt 1.000000 1.000000
vt 0.000000 1.000000
vt 1.000000 1.000000
vt 0.000000 1.000000
vt -0.740896 0.872427
vt 0.000000 0.000000
vt 1.000000 0.000000
vt 0.000000 0.000000
vt 1.000000 1.000000
vt 1.000000 0.000000
vt 0.000000 1.000000
vt -0.736261 1.317594
vt 0.000000 0.000000
vt 1.000000 1.000000
vt 0.000000 1.000000
vt 1.000000 0.000000
vt -0.733538 1.715350
vt 0.000000 0.000000
vt 1.000000 1.000000
vt 1.000000 0.000000
vt 0.000000 1.000000
vt -0.731988 2.158654
vt 0.000000 1.000000
vt 1.000000 1.000000
vt 0.625000 0.500000
vt 1.000000 1.000000
vt -1.138446 0.876564
vt 0.000000 1.000000
vt 0.000000 0.000000
vt 1.000000 0.000000
vt 1.000000 1.000000
vt 1.000000 0.000000
vt 0.000000 0.000000
vt 0.625000 0.500000
vt -1.133820 1.321036
vt 1.000000 1.000000
vt 0.000000 0.000000
vt 1.000000 0.000000
vt 0.625000 0.500000
vt -1.130524 1.717783
vt 1.000000 0.000000
vt 1.000000 1.000000
vt 0.000000 0.000000
vt 0.625000 0.500000
vt 0.000000 1.000000
vt 1.000000 1.000000
vt -1.128140 2.160584
vt 0.000000 1.000000
vt 0.541653 0.500000
vt 1.000000 1.000000
vt 0.000000 0.000000
vt 1.000000 1.000000
vt 1.000000 0.000000
vt 0.000000 1.000000
vt 1.291188 2.499546
vt 0.896316 2.503938
vt 0.541639 0.500000
vt 1.000000 1.000000
vt 0.000000 1.000000
vt 1.000000 1.000000
vt 0.000000 1.000000
vt 0.454989 2.508890
vt 1.000000 1.000000
vt 0.000000 1.000000
vt 1.732447 2.495157
vt 0.000000 0.000000
vt 1.000000 1.000000
vt 1.000000 0.000000
vt 0.000000 1.000000
vt 0.000000 1.000000
vt 1.000000 1.000000
vt 0.541813 0.250000
vt 0.000000 0.000000
vt 1.000000 0.000000
vt 1.000000 1.000000
vt 1.295388 2.894300
vt 0.625000 0.250000
vt 0.625000 0.500000
vt 0.900704 2.898663
vt 0.000000 1.000000
vt 0.541740 0.500000
vt 1.000000 1.000000
vt 0.625000 0.500000
vt 0.000000 1.000000
vt 1.000000 1.000000
vt 0.459404 2.903598
vt 0.625000 0.250000
vt 1.000000 1.000000
vt 1.736495 2.889711
vt 0.000000 1.000000
vt 1.000000 1.000000
vt 1.000000 0.000000
vt 0.000000 0.000000
vt 0.541671 0.750000
vt 0.541669 1.000000
vt -2.593197 1.284903
vt -2.593197 -0.284938
vt 1.944758 -0.284939
vt -0.027397 -0.553056
vt 1.184541 -0.284939
vt -0.027397 -0.213487
vt 1.000000 1.000000
vt 0.996094 1.000000
vt 1.000000 0.000000
vt -0.003906 1.000000
s 0
f 30/70/1 1/1/1 3/6/1
f 33/79/2 9/18/2 4/8/2
f 82/221/3 16/33/3 20/41/3
f 41/103/4 46/119/4 6/13/4
f 1/3/1 7/16/1 3/6/1
f 6/14/5 4/8/5 8/17/5
f 13/26/5 12/25/5 9/18/5
f 6/13/6 24/50/6 41/103/6
f 11/23/1 3/7/1 7/15/1
f 9/18/5 8/17/5 4/8/5
f 25/56/3 8/17/3 12/25/3
f 37/92/1 10/21/1 14/27/1
f 28/63/1 19/40/1 15/30/1
f 15/31/1 10/21/1 11/22/1
f 84/225/5 64/171/5 71/190/5
f 19/39/1 14/29/1 15/30/1
f 17/34/5 16/33/5 13/26/5
f 32/76/2 4/8/2 2/5/2
f 23/48/4 21/43/4 22/45/4
f 25/55/4 22/47/4 21/42/4
f 82/222/4 28/63/4 27/60/4
f 27/61/4 26/58/4 25/54/4
f 26/58/1 15/32/1 11/22/1
f 23/48/1 7/16/1 5/9/1
f 27/62/3 12/25/3 16/33/3
f 63/170/5 20/41/5 17/34/5
f 22/47/1 11/24/1 7/15/1
f 21/44/3 6/14/3 8/17/3
f 30/70/7 32/77/7 31/72/7
f 35/87/7 33/81/7 30/69/7
f 37/92/7 34/83/7 35/85/7
f 39/98/7 36/89/7 37/91/7
f 35/87/1 3/7/1 10/19/1
f 39/98/1 14/29/1 18/35/1
f 67/178/2 17/34/2 38/95/2
f 36/90/2 17/34/2 13/26/2
f 1/2/6 32/78/6 40/100/6
f 34/84/2 13/26/2 9/18/2
f 53/142/1 47/124/1 48/127/1
f 24/53/6 5/11/6 41/104/6
f 32/75/6 2/4/6 40/102/6
f 46/122/5 50/132/5 44/116/5
f 61/164/1 19/40/1 29/67/1
f 60/161/1 18/37/1 19/38/1
f 62/168/1 39/99/1 18/35/1
f 50/133/7 48/128/7 44/113/7
f 47/125/4 41/105/4 5/9/4
f 51/134/5 54/143/5 50/132/5
f 44/115/7 1/3/7 40/101/7
f 48/128/1 5/12/1 1/2/1
f 54/144/8 55/146/8 58/155/8
f 56/148/8 49/130/8 54/144/8
f 59/158/8 56/148/8 57/150/8
f 52/139/4 46/121/4 47/123/4
f 46/122/9 2/5/9 6/14/9
f 57/151/4 51/136/4 52/137/4
f 54/145/7 53/142/7 50/131/7
f 58/157/1 52/140/1 53/141/1
f 2/4/7 44/114/7 40/102/7
f 74/199/7 67/179/7 68/181/7
f 73/196/2 63/170/2 67/178/2
f 42/107/1 60/162/1 61/163/1
f 43/111/1 62/169/1 60/159/1
f 90/242/9 82/223/9 83/224/9
f 68/183/7 38/96/7 39/97/7
f 71/190/5 78/209/5 84/225/5
f 81/217/7 73/197/7 74/198/7
f 80/214/2 70/189/2 73/196/2
f 85/227/1 43/112/1 42/106/1
f 65/174/1 69/187/1 43/109/1
f 64/171/5 83/224/5 20/41/5
f 76/206/1 74/200/1 69/185/1
f 70/189/5 64/171/5 63/170/5
f 69/188/1 68/184/1 62/166/1
f 72/192/1 76/207/1 65/172/1
f 122/330/3 86/231/3 78/209/3
f 120/327/1 81/219/1 76/204/1
f 121/329/5 78/209/5 77/208/5
f 124/335/4 85/227/4 86/229/4
f 126/342/7 80/215/7 81/216/7
f 20/41/10 83/224/10 82/223/10
f 77/208/5 71/190/5 70/189/5
f 93/249/8 86/232/8 85/226/8
f 87/234/6 29/68/6 82/220/6
f 78/209/11 86/230/11 84/225/11
f 100/269/5 90/242/5 92/247/5
f 99/266/1 93/250/1 91/243/1
f 102/274/12 92/247/12 94/253/12
f 89/239/1 42/108/1 61/163/1
f 88/237/1 61/165/1 29/67/1
f 94/253/12 84/225/12 86/230/12
f 91/245/1 85/228/1 42/106/1
f 92/247/5 83/224/5 84/225/5
f 110/296/12 100/269/12 102/274/12
f 104/281/1 97/261/1 96/258/1
f 105/284/1 99/267/1 97/260/1
f 95/256/6 88/237/6 87/233/6
f 101/272/8 94/254/8 93/248/8
f 98/264/9 87/235/9 90/242/9
f 97/262/1 91/246/1 89/238/1
f 96/259/1 89/241/1 88/236/1
f 113/306/1 107/289/1 105/282/1
f 114/309/9 103/279/9 106/286/9
f 117/315/8 110/297/8 109/292/8
f 107/290/1 101/273/1 99/265/1
f 108/291/5 98/264/5 100/269/5
f 103/278/6 96/259/6 95/255/6
f 109/294/8 102/276/8 101/270/8
f 106/286/9 95/257/9 98/264/9
f 111/299/4 114/308/4 123/331/4
f 114/308/4 119/323/4 123/331/4
f 116/313/4 118/318/4 119/323/4
f 112/304/1 105/285/1 104/280/1
f 118/321/12 108/291/12 110/296/12
f 115/312/1 109/295/1 107/287/1
f 116/314/5 106/286/5 108/291/5
f 111/302/6 104/281/6 103/277/6
f 128/348/1 126/343/1 120/325/1
f 129/350/5 122/330/5 121/329/5
f 132/358/4 66/177/4 124/334/4
f 134/366/7 125/338/7 126/340/7
f 133/363/2 121/329/2 125/339/2
f 75/203/1 72/193/1 66/176/1
f 66/177/1 65/175/1 85/226/1
f 125/339/2 77/208/2 80/214/2
f 128/347/8 131/356/8 127/344/8
f 79/211/8 132/359/8 131/354/8
f 129/351/8 133/361/8 127/346/8
f 133/364/8 128/348/8 127/345/8
f 130/352/8 127/346/8 131/355/8
f 132/357/8 130/352/8 131/355/8
f 130/353/3 124/336/3 122/330/3
f 79/212/1 120/328/1 72/191/1
f 115/311/4 123/332/4 119/322/4
f 117/317/4 119/324/4 118/319/4
f 123/333/4 112/304/4 111/300/4
f 45/118/1 136/369/1 49/129/1
f 49/130/4 137/371/4 55/146/4
f 141/379/13 57/153/13 58/154/13
f 57/150/8 138/372/8 59/158/8
f 139/374/8 58/155/8 55/146/8
f 140/376/14 138/373/14 57/152/14
f 58/157/15 139/375/15 141/378/15
f 30/70/1 31/73/1 1/1/1
f 33/79/2 34/84/2 9/18/2
f 82/221/3 27/62/3 16/33/3
f 1/3/1 5/10/1 7/16/1
f 6/14/5 2/5/5 4/8/5
f 13/26/5 16/33/5 12/25/5
f 11/23/1 10/20/1 3/7/1
f 9/18/5 12/25/5 8/17/5
f 25/56/3 21/44/3 8/17/3
f 37/92/1 35/86/1 10/21/1
f 28/63/1 29/66/1 19/40/1
f 15/31/1 14/28/1 10/21/1
f 84/225/5 83/224/5 64/171/5
f 19/39/1 18/36/1 14/29/1
f 17/34/5 20/41/5 16/33/5
f 32/76/2 33/79/2 4/8/2
f 23/48/4 24/51/4 21/43/4
f 25/55/4 26/57/4 22/47/4
f 82/222/4 29/67/4 28/63/4
f 27/61/4 28/64/4 26/58/4
f 26/58/1 28/65/1 15/32/1
f 23/48/1 22/46/1 7/16/1
f 27/62/3 25/56/3 12/25/3
f 63/170/5 64/171/5 20/41/5
f 22/47/1 26/59/1 11/24/1
f 21/44/3 24/52/3 6/14/3
f 30/70/7 33/80/7 32/77/7
f 35/87/7 34/82/7 33/81/7
f 37/92/7 36/88/7 34/83/7
f 39/98/7 38/94/7 36/89/7
f 35/87/1 30/71/1 3/7/1
f 39/98/1 37/93/1 14/29/1
f 67/178/2 63/170/2 17/34/2
f 36/90/2 38/95/2 17/34/2
f 1/2/6 31/74/6 32/78/6
f 34/84/2 36/90/2 13/26/2
f 53/142/1 52/138/1 47/124/1
f 24/53/6 23/49/6 5/11/6
f 46/122/5 51/134/5 50/132/5
f 61/164/1 60/160/1 19/40/1
f 60/161/1 62/167/1 18/37/1
f 62/168/1 68/182/1 39/99/1
f 50/133/7 53/141/7 48/128/7
f 47/125/4 46/120/4 41/105/4
f 51/134/5 56/147/5 54/143/5
f 44/115/7 48/127/7 1/3/7
f 48/128/1 47/126/1 5/12/1
f 54/144/8 49/130/8 55/146/8
f 56/148/8 45/117/8 49/130/8
f 59/158/8 45/117/8 56/148/8
f 52/139/4 51/135/4 46/121/4
f 46/122/9 44/116/9 2/5/9
f 57/151/4 56/149/4 51/136/4
f 54/145/7 58/156/7 53/142/7
f 58/157/1 57/152/1 52/140/1
f 74/199/7 73/195/7 67/179/7
f 73/196/2 70/189/2 63/170/2
f 42/107/1 43/110/1 60/162/1
f 43/111/1 69/186/1 62/169/1
f 90/242/9 87/235/9 82/223/9
f 68/183/7 67/180/7 38/96/7
f 81/217/7 80/213/7 73/197/7
f 80/214/2 77/208/2 70/189/2
f 85/227/1 65/173/1 43/112/1
f 65/174/1 76/205/1 69/187/1
f 76/206/1 81/218/1 74/200/1
f 70/189/5 71/190/5 64/171/5
f 69/188/1 74/201/1 68/184/1
f 72/192/1 120/326/1 76/207/1
f 122/330/3 124/336/3 86/231/3
f 120/327/1 126/341/1 81/219/1
f 121/329/5 122/330/5 78/209/5
f 124/335/4 66/176/4 85/227/4
f 126/342/7 125/337/7 80/215/7
f 77/208/5 78/209/5 71/190/5
f 93/249/8 94/252/8 86/232/8
f 87/234/6 88/236/6 29/68/6
f 100/269/5 98/264/5 90/242/5
f 99/266/1 101/271/1 93/250/1
f 102/274/12 100/269/12 92/247/12
f 89/239/1 91/244/1 42/108/1
f 88/237/1 89/240/1 61/165/1
f 94/253/12 92/247/12 84/225/12
f 91/245/1 93/251/1 85/228/1
f 92/247/5 90/242/5 83/224/5
f 110/296/12 108/291/12 100/269/12
f 104/281/1 105/283/1 97/261/1
f 105/284/1 107/288/1 99/267/1
f 95/256/6 96/258/6 88/237/6
f 101/272/8 102/275/8 94/254/8
f 98/264/9 95/257/9 87/235/9
f 97/262/1 99/268/1 91/246/1
f 96/259/1 97/263/1 89/241/1
f 113/306/1 115/310/1 107/289/1
f 114/309/9 111/301/9 103/279/9
f 117/315/8 118/320/8 110/297/8
f 107/290/1 109/293/1 101/273/1
f 108/291/5 106/286/5 98/264/5
f 103/278/6 104/280/6 96/259/6
f 109/294/8 110/298/8 102/276/8
f 106/286/9 103/279/9 95/257/9
f 114/308/4 116/313/4 119/323/4
f 112/304/1 113/305/1 105/285/1
f 118/321/12 116/314/12 108/291/12
f 115/312/1 117/316/1 109/295/1
f 116/314/5 114/309/5 106/286/5
f 111/302/6 112/303/6 104/281/6
f 128/348/1 134/365/1 126/343/1
f 129/350/5 130/353/5 122/330/5
f 132/358/4 75/202/4 66/177/4
f 134/366/7 133/362/7 125/338/7
f 133/363/2 129/350/2 121/329/2
f 75/203/1 79/210/1 72/193/1
f 66/177/1 72/194/1 65/175/1
f 125/339/2 121/329/2 77/208/2
f 128/347/8 79/212/8 131/356/8
f 79/211/8 75/203/8 132/359/8
f 133/364/8 134/367/8 128/348/8
f 130/352/8 129/351/8 127/346/8
f 130/353/3 132/360/3 124/336/3
f 79/212/1 128/349/1 120/328/1
f 115/311/4 113/306/4 123/332/4
f 117/317/4 115/312/4 119/324/4
f 123/333/4 113/307/4 112/304/4
f 45/118/1 135/368/1 136/369/1
f 49/130/4 136/370/4 137/371/4
f 141/379/13 140/377/13 57/153/13
