# Blender 3.3.1
# www.blender.org
mtllib bend1.mtl
o Cube
v -0.276294 -0.000713 0.276294 1.0000 0.0000 0.0353
v -0.276294 1.999287 0.276294 1.0000 0.0039 0.0353
v -0.276294 -0.000713 -0.276294 1.0000 0.0431 0.0549
v -0.276294 1.999287 -0.276294 1.0000 0.0000 0.0353
v 0.276294 -0.000713 0.276294 1.0000 0.0588 0.0706
v 0.276294 1.999287 0.276294 1.0000 0.0039 0.0353
v 0.276294 -0.000713 -0.276294 1.0000 0.0000 0.0353
v 0.276294 1.999287 -0.276294 1.0000 0.0000 0.0353
v -0.276294 2.999287 0.276294 1.0000 0.0353 0.0510
v -0.276294 2.999287 -0.276294 1.0000 0.0000 0.0353
v 0.276294 2.999287 -0.276294 1.0000 0.0039 0.0353
v 0.276294 2.999287 0.276294 1.0000 0.0235 0.0431
v -0.276294 3.999287 0.276294 1.0000 0.0392 0.0510
v -0.276294 3.999287 -0.276294 1.0000 0.0000 0.0353
v 0.276294 3.999287 -0.276294 1.0000 0.0353 0.0510
v 0.276294 3.999287 0.276294 1.0000 0.0118 0.0392
v -0.276294 4.999288 0.276294 1.0000 0.0471 0.0588
v -0.276294 4.999288 -0.276294 1.0000 0.0000 0.0353
v 0.276294 4.999288 -0.276294 1.0000 0.0235 0.0431
v 0.276294 4.999288 0.276294 1.0000 0.0039 0.0353
v -0.258227 5.999288 0.258227 1.0000 0.0157 0.0392
v -0.258227 5.999288 -0.258227 1.0000 0.0000 0.0353
v 0.258227 5.999288 -0.258227 1.0000 0.0000 0.0353
v 0.258227 5.999288 0.258227 1.0000 0.0000 0.0353
v -0.176506 6.999288 0.176506 1.0000 0.0000 0.0353
v -0.176506 6.999288 -0.176506 1.0000 0.0000 0.0353
v 0.176506 6.999288 -0.176506 1.0000 0.0000 0.0353
v 0.176506 6.999288 0.176506 1.0000 0.0000 0.0353
v -0.040173 7.999288 0.040173 1.0000 0.0000 0.0353
v -0.040173 7.999288 -0.040173 1.0000 0.0000 0.0353
v 0.040173 7.999288 -0.040173 1.0000 0.0000 0.0353
v 0.040173 7.999288 0.040173 1.0000 0.0000 0.0353
v -0.382801 2.999287 0.000000 1.0000 0.0745 0.0824
v -0.382801 -0.000713 0.000000 1.0000 0.0275 0.0431
v 0.382801 4.999288 0.000000 1.0000 0.1373 0.1412
v -0.382801 1.999287 0.000000 1.0000 0.0000 0.0353
v 0.357770 5.999288 0.000000 1.0000 0.0000 0.0353
v -0.357770 5.999288 0.000000 1.0000 0.0118 0.0392
v -0.244546 6.999288 0.000000 1.0000 0.0000 0.0353
v 0.382801 -0.000713 0.000000 1.0000 0.0157 0.0392
v 0.382801 1.999287 0.000000 1.0000 0.0078 0.0353
v 0.244546 6.999288 0.000000 1.0000 0.0000 0.0353
v -0.055659 7.999288 0.000000 1.0000 0.0000 0.0353
v 0.382801 2.999287 0.000000 1.0000 0.0667 0.0784
v 0.055659 7.999288 0.000000 1.0000 0.0000 0.0353
v -0.382801 3.999287 0.000000 1.0000 0.0078 0.0392
v 0.382801 3.999287 0.000000 1.0000 0.2863 0.2902
v -0.382801 4.999288 0.000000 1.0000 0.0039 0.0392
v -0.000000 -0.000713 0.382801 1.0000 0.0000 0.0353
v -0.000000 7.999288 0.000000 1.0000 0.0000 0.0353
v -0.000000 3.999287 0.382801 1.0000 0.0039 0.0353
v -0.000000 5.999288 0.357770 1.0000 0.0000 0.0353
v -0.000000 1.999287 0.382801 1.0000 0.0000 0.0353
v -0.000000 -0.000713 -0.382800 1.0000 0.0078 0.0353
v -0.000000 1.999287 -0.382800 1.0000 0.0000 0.0353
v -0.000000 6.999288 0.244547 1.0000 0.0000 0.0353
v -0.000000 6.999288 -0.244546 1.0000 0.0000 0.0353
v -0.000000 2.999287 0.382801 1.0000 0.0039 0.0353
v -0.000000 5.999288 -0.357769 1.0000 0.0000 0.0353
v -0.000000 2.999287 -0.382800 1.0000 0.0000 0.0353
v -0.000000 7.999288 0.055659 1.0000 0.0000 0.0353
v -0.000000 7.999288 -0.055659 1.0000 0.0000 0.0353
v -0.000000 3.999287 -0.382800 1.0000 0.0000 0.0353
v -0.000000 4.999288 0.382801 1.0000 0.0000 0.0353
v -0.000000 4.999288 -0.382800 1.0000 0.0000 0.0353
v -0.000000 -0.000713 0.000000 1.0000 0.0000 0.0353
vn 0.3597 -0.0000 -0.9331
vn -0.3597 -0.0000 0.9331
vn 0.9331 -0.0000 0.3597
vn -0.0000 -1.0000 -0.0000
vn -0.9331 -0.0000 -0.3597
vn -0.0000 1.0000 -0.0000
vn -0.3596 0.0233 0.9328
vn -0.9328 0.0233 -0.3596
vn -0.3542 0.1736 0.9189
vn 0.3596 0.0233 -0.9328
vn 0.9279 0.1051 0.3577
vn 0.9328 0.0233 0.3596
vn 0.9189 0.1736 0.3542
vn -0.9279 0.1051 -0.3577
vn 0.3577 0.1051 -0.9279
vn -0.3577 0.1051 0.9279
vn -0.9331 -0.0000 0.3597
vn 0.3542 0.1736 -0.9189
vn -0.9189 0.1736 -0.3542
vn -0.3597 -0.0000 -0.9331
vn -0.3577 0.1051 -0.9279
vn 0.3577 0.1051 0.9279
vn 0.3596 0.0233 0.9328
vn -0.3542 0.1736 -0.9189
vn 0.3597 -0.0000 0.9331
vn -0.3596 0.0233 -0.9328
vn 0.3542 0.1736 0.9189
vn 0.9328 0.0233 -0.3596
vn 0.9331 -0.0000 -0.3597
vn -0.9328 0.0233 0.3596
vn 0.9279 0.1051 -0.3577
vn -0.9189 0.1736 0.3542
vn -0.9279 0.1051 0.3577
vn 0.9189 0.1736 -0.3542
vt 3.745439 -1.785826
vt 1.581813 -3.949451
vt -2.745438 -3.949451
vt -2.745438 -1.800107
vt 1.581813 -1.800107
vt 3.745439 -3.949451
vt -4.909064 -3.949451
vt -0.581812 -3.949451
vt -0.581812 -1.800107
vt -4.909064 -1.800107
vt -0.581813 -3.949451
vt 3.745438 -3.949451
vt 5.909064 -1.785825
vt -0.581813 -1.800107
vt 3.745438 -1.800107
vt -2.745438 -3.949451
vt 5.909064 -3.949451
vt 1.581812 -3.949451
vt 1.581812 -1.800107
vt -2.745438 -1.800107
vt 1.581813 -0.725435
vt -2.745438 -0.725435
vt -4.909064 -0.725435
vt -0.581812 -0.725435
vt -2.745438 -0.725435
vt 1.581812 -0.725435
vt -0.581813 -0.725435
vt 3.745438 -0.725435
vt 1.581813 0.349237
vt -2.745439 0.349237
vt -4.909064 0.349237
vt -0.581813 0.349237
vt -2.745438 0.349237
vt 1.581812 0.349237
vt -0.581813 0.349237
vt 3.745438 0.349237
vt 1.581813 1.423909
vt -2.745439 1.423909
vt -4.909064 1.423909
vt -0.581813 1.423909
vt -2.745438 1.423909
vt 1.581812 1.423909
vt -0.581813 1.423909
vt 3.745438 1.423909
vt 1.652552 2.506695
vt -2.816178 2.506695
vt -4.838325 2.506695
vt -0.652552 2.506695
vt -2.674699 2.506695
vt 1.511073 2.506695
vt -0.511074 2.506695
vt 3.674699 2.506695
vt 1.972526 3.618070
vt -3.136152 3.618070
vt -4.518351 3.618070
vt -0.972526 3.618070
vt -2.354725 3.618070
vt 1.191099 3.618070
vt -0.191100 3.618070
vt 3.354725 3.618070
vt 2.506330 4.753973
vt 4.060028 -1.471236
vt -3.669957 4.753973
vt -3.984547 4.753973
vt 4.060028 -1.785825
vt -1.506331 4.753973
vt -1.820920 4.753973
vt 3.745438 -1.785825
vt 0.657294 4.753973
vt 3.745438 -1.471236
vt 0.342704 4.753973
vt 2.820920 4.753973
vt -3.827251 -0.725435
vt 3.745439 -2.867639
vt -3.827251 -3.949451
vt 0.500000 1.423909
vt -3.827251 -1.800107
vt 0.499999 2.506695
vt -3.827251 2.506695
vt -3.827251 3.618070
vt 5.909064 -2.867638
vt 0.500000 -3.949451
vt 0.500000 -1.800107
vt 0.500000 3.618070
vt 4.060028 -1.628531
vt -3.827252 4.753973
vt 0.500000 -0.725435
vt 3.745438 -1.628531
vt 0.499999 4.753973
vt -3.827251 0.349237
vt 0.500000 0.349237
vt -3.827251 1.423909
vt 2.663625 -3.949451
vt 4.827251 -1.785825
vt 3.902733 -1.628531
vt 2.663625 0.349237
vt 2.663625 2.506695
vt 2.663625 -1.800107
vt 4.827251 -3.949451
vt -1.663625 -3.949451
vt -1.663625 -1.800107
vt 2.663625 3.618070
vt -1.663625 3.618070
vt 2.663625 -0.725435
vt -1.663625 2.506695
vt -1.663625 -0.725435
vt 3.902733 -1.471236
vt 2.663625 4.753973
vt 3.902733 -1.785825
vt -1.663625 4.753973
vt -1.663625 0.349237
vt 2.663625 1.423909
vt -1.663625 1.423909
vt 4.827251 -2.867638
s 0
usemtl Material.001
f 8/20/1 54/100/1 55/101/1
f 58/104/2 2/5/2 53/98/2
f 44/87/3 6/14/3 41/83/3
f 66/114/4 1/1/4 34/74/4
f 33/73/5 4/10/5 36/77/5
f 50/95/6 32/70/6 45/88/6
f 63/111/1 11/25/1 60/106/1
f 6/14/3 40/82/3 41/83/3
f 60/106/1 8/20/1 55/101/1
f 51/96/2 9/21/2 58/104/2
f 48/92/5 14/31/5 46/90/5
f 46/90/5 10/23/5 33/73/5
f 51/96/2 17/37/2 13/29/2
f 35/76/3 16/35/3 47/91/3
f 64/112/7 21/45/7 17/37/7
f 2/5/2 49/93/2 53/98/2
f 48/92/8 22/47/8 18/39/8
f 65/113/1 15/33/1 63/111/1
f 56/102/9 29/61/9 25/53/9
f 65/113/10 23/49/10 19/41/10
f 37/78/11 28/59/11 24/51/11
f 35/76/12 24/51/12 20/43/12
f 42/84/13 32/71/13 28/59/13
f 38/79/14 26/55/14 22/47/14
f 59/105/15 27/57/15 23/49/15
f 52/97/16 25/53/16 21/45/16
f 47/91/3 12/27/3 44/87/3
f 36/77/17 1/3/17 2/4/17
f 57/103/18 31/67/18 27/57/18
f 39/80/19 30/64/19 26/55/19
f 29/62/6 50/95/6 43/85/6
f 14/32/20 60/106/20 10/24/20
f 7/17/4 66/114/4 54/99/4
f 26/56/21 59/105/21 22/48/21
f 28/60/22 52/97/22 24/52/22
f 30/65/6 50/95/6 62/109/6
f 24/52/23 64/112/23 20/44/23
f 30/66/24 57/103/24 26/56/24
f 10/24/20 55/101/20 4/9/20
f 16/36/25 58/104/25 12/28/25
f 14/32/20 65/113/20 63/111/20
f 20/44/25 51/96/25 16/36/25
f 53/98/25 5/12/25 6/15/25
f 66/114/4 3/6/4 54/99/4
f 17/38/17 46/90/17 13/30/17
f 22/48/26 65/113/26 18/40/26
f 9/22/17 36/77/17 2/4/17
f 32/72/27 56/102/27 28/60/27
f 23/50/28 35/76/28 19/42/28
f 50/95/6 31/68/6 62/109/6
f 13/30/17 33/73/17 9/22/17
f 41/83/29 7/18/29 8/19/29
f 15/34/29 44/87/29 11/26/29
f 21/46/30 48/92/30 17/38/30
f 19/42/29 47/91/29 15/34/29
f 27/58/31 37/78/31 23/50/31
f 11/26/29 41/83/29 8/19/29
f 29/63/32 39/80/32 25/54/32
f 25/54/33 38/79/33 21/46/33
f 31/69/34 42/84/34 27/58/34
f 4/10/5 34/75/5 36/77/5
f 5/13/4 66/114/4 40/81/4
f 6/15/25 58/104/25 53/98/25
f 55/101/20 3/8/20 4/9/20
f 8/20/1 7/16/1 54/100/1
f 58/104/2 9/21/2 2/5/2
f 44/87/3 12/27/3 6/14/3
f 66/114/4 49/94/4 1/1/4
f 33/73/5 10/23/5 4/10/5
f 50/95/6 61/107/6 32/70/6
f 63/111/1 15/33/1 11/25/1
f 6/14/3 5/11/3 40/82/3
f 60/106/1 11/25/1 8/20/1
f 51/96/2 13/29/2 9/21/2
f 48/92/5 18/39/5 14/31/5
f 46/90/5 14/31/5 10/23/5
f 51/96/2 64/112/2 17/37/2
f 35/76/3 20/43/3 16/35/3
f 64/112/7 52/97/7 21/45/7
f 2/5/2 1/2/2 49/93/2
f 48/92/8 38/79/8 22/47/8
f 65/113/1 19/41/1 15/33/1
f 56/102/9 61/108/9 29/61/9
f 65/113/10 59/105/10 23/49/10
f 37/78/11 42/84/11 28/59/11
f 35/76/12 37/78/12 24/51/12
f 42/84/13 45/89/13 32/71/13
f 38/79/14 39/80/14 26/55/14
f 59/105/15 57/103/15 27/57/15
f 52/97/16 56/102/16 25/53/16
f 47/91/3 16/35/3 12/27/3
f 36/77/17 34/75/17 1/3/17
f 57/103/18 62/110/18 31/67/18
f 39/80/19 43/86/19 30/64/19
f 29/62/6 61/107/6 50/95/6
f 14/32/20 63/111/20 60/106/20
f 7/17/4 40/81/4 66/114/4
f 26/56/21 57/103/21 59/105/21
f 28/60/22 56/102/22 52/97/22
f 30/65/6 43/85/6 50/95/6
f 24/52/23 52/97/23 64/112/23
f 30/66/24 62/110/24 57/103/24
f 10/24/20 60/106/20 55/101/20
f 16/36/25 51/96/25 58/104/25
f 14/32/20 18/40/20 65/113/20
f 20/44/25 64/112/25 51/96/25
f 53/98/25 49/93/25 5/12/25
f 66/114/4 34/74/4 3/6/4
f 17/38/17 48/92/17 46/90/17
f 22/48/26 59/105/26 65/113/26
f 9/22/17 33/73/17 36/77/17
f 32/72/27 61/108/27 56/102/27
f 23/50/28 37/78/28 35/76/28
f 50/95/6 45/88/6 31/68/6
f 13/30/17 46/90/17 33/73/17
f 41/83/29 40/82/29 7/18/29
f 15/34/29 47/91/29 44/87/29
f 21/46/30 38/79/30 48/92/30
f 19/42/29 35/76/29 47/91/29
f 27/58/31 42/84/31 37/78/31
f 11/26/29 44/87/29 41/83/29
f 29/63/32 43/86/32 39/80/32
f 25/54/33 39/80/33 38/79/33
f 31/69/34 45/89/34 42/84/34
f 4/10/5 3/7/5 34/75/5
f 5/13/4 49/94/4 66/114/4
f 6/15/25 12/28/25 58/104/25
f 55/101/20 54/100/20 3/8/20
