# Blender 3.3.1
# www.blender.org
mtllib tree1.mtl
o Cube
v -1.000000 -1.000000 1.000000
v -1.000000 1.000000 1.000000
v -1.000000 -1.000000 -1.000000
v -1.000000 1.000000 -1.000000
v 1.000000 -1.000000 1.000000
v 1.000000 1.000000 1.000000
v 1.000000 -1.000000 -1.000000
v 1.000000 1.000000 -1.000000
v -1.000000 2.000000 1.000000
v -1.000000 2.000000 -1.000000
v 1.000000 2.000000 -1.000000
v 1.000000 2.000000 1.000000
v -1.000000 3.000000 1.000000
v -1.000000 3.000000 -1.000000
v 1.000000 3.000000 -1.000000
v 1.000000 3.000000 1.000000
v -1.000000 4.000000 1.000000
v -1.000000 4.000000 -1.000000
v 1.000000 4.000000 -1.000000
v 1.000000 4.000000 1.000000
v -0.934611 5.000000 0.934611
v -0.934611 5.000000 -0.934611
v 0.934611 5.000000 -0.934611
v 0.934611 5.000000 0.934611
v -0.638835 6.000000 0.638835
v -0.638835 6.000000 -0.638835
v 0.638835 6.000000 -0.638835
v 0.638835 6.000000 0.638835
v -0.145399 7.000000 0.145399
v -0.145399 7.000000 -0.145399
v 0.145399 7.000000 -0.145399
v 0.145399 7.000000 0.145399
vn -1.0000 -0.0000 -0.0000
vn -0.0000 -0.0000 -1.0000
vn 1.0000 -0.0000 -0.0000
vn -0.0000 -0.0000 1.0000
vn -0.0000 -1.0000 -0.0000
vn 0.9979 0.0652 -0.0000
vn -0.0000 0.2836 0.9589
vn -0.9979 0.0652 -0.0000
vn -0.0000 0.0652 0.9979
vn -0.0000 0.0652 -0.9979
vn -0.0000 0.4425 -0.8968
vn -0.0000 0.2836 -0.9589
vn 0.9589 0.2836 -0.0000
vn -0.9589 0.2836 -0.0000
vn -0.0000 1.0000 -0.0000
vn 0.8968 0.4425 -0.0000
vn -0.8968 0.4425 -0.0000
vn -0.0000 0.4425 0.8968
vn 0.9979 0.0653 -0.0000
vn -0.9979 0.0653 -0.0000
vn -0.0000 0.0653 0.9979
vn -0.0000 0.0653 -0.9979
vt -2.745438 -3.949451
vt 1.581813 -3.949451
vt 3.745439 -1.785826
vt 1.581813 -1.800107
vt -2.745438 -1.800107
vt -0.581812 -3.949451
vt 3.745439 -3.949451
vt -4.909064 -3.949451
vt -4.909064 -1.800107
vt -0.581812 -1.800107
vt 3.745438 -3.949451
vt -0.581813 -3.949451
vt 5.909064 -1.785825
vt -0.581813 -1.800107
vt 3.745438 -1.800107
vt 1.581812 -3.949451
vt -2.745438 -3.949451
vt 5.909064 -3.949451
vt -2.745438 -1.800107
vt 1.581812 -1.800107
vt -2.745438 -0.725435
vt 1.581813 -0.725435
vt -4.909064 -0.725435
vt -0.581812 -0.725435
vt -2.745438 -0.725435
vt 1.581812 -0.725435
vt -0.581813 -0.725435
vt 3.745438 -0.725435
vt 1.581813 0.349237
vt -2.745439 0.349237
vt -4.909064 0.349237
vt -0.581813 0.349237
vt -2.745438 0.349237
vt 1.581812 0.349237
vt 3.745438 0.349237
vt -0.581813 0.349237
vt 1.581813 1.423909
vt -2.745439 1.423909
vt -4.909064 1.423909
vt -0.581813 1.423909
vt -2.745438 1.423909
vt 1.581812 1.423909
vt -0.581813 1.423909
vt 3.745438 1.423909
vt 1.652552 2.506695
vt -2.816178 2.506695
vt -4.838325 2.506695
vt -0.652552 2.506695
vt -2.674699 2.506695
vt 1.511073 2.506695
vt -0.511074 2.506695
vt 3.674699 2.506695
vt 1.972526 3.618070
vt -3.136152 3.618070
vt -0.972526 3.618070
vt -4.518351 3.618070
vt -2.354725 3.618070
vt 1.191099 3.618070
vt -0.191100 3.618070
vt 3.354725 3.618070
vt 4.060028 -1.471236
vt -3.669957 4.753973
vt 2.506330 4.753973
vt -1.506331 4.753973
vt 4.060028 -1.785825
vt -3.984547 4.753973
vt 3.745438 -1.785825
vt -1.820920 4.753973
vt 0.657294 4.753973
vt 3.745438 -1.471236
vt 0.342704 4.753973
vt 2.820920 4.753973
s 0
usemtl Material
f 2/5/1 3/8/1 1/1/1
f 4/10/2 7/17/2 3/6/2
f 8/20/3 5/12/3 7/16/3
f 6/15/4 1/2/4 5/11/4
f 7/18/5 1/3/5 3/7/5
f 8/20/3 12/27/3 6/14/3
f 9/21/1 14/31/1 10/23/1
f 2/5/1 10/23/1 4/9/1
f 6/15/4 9/22/4 2/4/4
f 4/10/2 11/25/2 8/19/2
f 16/35/4 17/37/4 13/29/4
f 12/28/4 13/29/4 9/22/4
f 10/24/2 15/33/2 11/25/2
f 11/26/3 16/36/3 12/27/3
f 19/42/6 24/51/6 20/43/6
f 14/32/2 19/41/2 15/33/2
f 15/34/3 20/43/3 16/36/3
f 13/30/1 18/39/1 14/31/1
f 24/52/7 25/53/7 21/45/7
f 17/38/8 22/47/8 18/39/8
f 20/44/9 21/45/9 17/37/9
f 18/40/10 23/49/10 19/41/10
f 26/55/11 31/68/11 27/57/11
f 22/48/12 27/57/12 23/49/12
f 23/50/13 28/59/13 24/51/13
f 21/46/14 26/56/14 22/47/14
f 30/65/15 32/70/15 31/67/15
f 27/58/16 32/71/16 28/59/16
f 25/54/17 30/66/17 26/56/17
f 28/60/18 29/63/18 25/53/18
f 2/5/1 4/9/1 3/8/1
f 4/10/2 8/19/2 7/17/2
f 8/20/3 6/14/3 5/12/3
f 6/15/4 2/4/4 1/2/4
f 7/18/5 5/13/5 1/3/5
f 8/20/3 11/26/3 12/27/3
f 9/21/1 13/30/1 14/31/1
f 2/5/1 9/21/1 10/23/1
f 6/15/4 12/28/4 9/22/4
f 4/10/2 10/24/2 11/25/2
f 16/35/4 20/44/4 17/37/4
f 12/28/4 16/35/4 13/29/4
f 10/24/2 14/32/2 15/33/2
f 11/26/3 15/34/3 16/36/3
f 19/42/19 23/50/19 24/51/19
f 14/32/2 18/40/2 19/41/2
f 15/34/3 19/42/3 20/43/3
f 13/30/1 17/38/1 18/39/1
f 24/52/7 28/60/7 25/53/7
f 17/38/20 21/46/20 22/47/20
f 20/44/21 24/52/21 21/45/21
f 18/40/22 22/48/22 23/49/22
f 26/55/11 30/64/11 31/68/11
f 22/48/12 26/55/12 27/57/12
f 23/50/13 27/58/13 28/59/13
f 21/46/14 25/54/14 26/56/14
f 30/65/15 29/61/15 32/70/15
f 27/58/16 31/69/16 32/71/16
f 25/54/17 29/62/17 30/66/17
f 28/60/18 32/72/18 29/63/18
