# Blender 3.3.1
# www.blender.org
mtllib tree2.mtl
o Cube
v -1.048225 -0.970736 1.000000
v -1.029235 1.200462 1.000000
v -1.047353 -0.971280 -1.000000
v -1.029226 1.200420 -1.000000
v 0.948595 -1.019988 1.000000
v 0.919354 0.842526 1.000000
v 0.947617 -1.020257 -1.000000
v 0.919333 0.842497 -1.000000
v -0.809337 2.386266 1.000000
v -0.809350 2.386246 -1.000000
v 1.018657 1.644054 -1.000000
v 1.018653 1.644073 1.000000
v -0.307268 3.480436 1.000000
v -0.307265 3.480438 -1.000000
v 1.324619 2.369165 -1.000000
v 1.324619 2.369162 1.000000
v 0.385528 4.366493 1.000000
v 0.385526 4.366488 -1.000000
v 1.872388 3.067427 -1.000000
v 1.872392 3.067427 1.000000
v 1.377137 5.062820 0.934611
v 1.377131 5.062819 -0.934611
v 2.464618 3.576532 -0.934611
v 2.464622 3.576535 0.934610
v 2.648177 5.246451 0.638835
v 2.648216 5.246448 -0.638835
v 3.108607 4.068987 -0.638835
v 3.108586 4.068965 0.638834
v 3.891230 4.836493 0.145399
v 3.891229 4.836493 -0.145400
v 3.915595 4.546718 -0.145400
v 3.915594 4.546718 0.145399
vn -1.0000 0.0083 -0.0004
vn -0.0000 -0.0000 -1.0000
vn 0.9999 0.0152 -0.0005
vn -0.0000 -0.0000 1.0000
vn -0.0245 -0.9997 0.0003
vn 0.9924 -0.1229 -0.0000
vn -0.9089 0.4171 -0.0000
vn -0.9832 0.1823 -0.0000
vn 0.9213 -0.3888 -0.0000
vn 0.6519 -0.7583 -0.0000
vn 0.7868 -0.6172 -0.0000
vn -0.7878 0.6160 -0.0000
vn 0.2036 0.1490 0.9676
vn -0.5747 0.8184 -0.0000
vn 0.0365 0.0418 0.9985
vn 0.0675 0.0494 -0.9965
vn 0.5029 0.0423 -0.8633
vn 0.3306 0.1292 -0.9349
vn 0.6074 -0.7944 -0.0000
vn -0.1430 0.9897 -0.0000
vn 0.9965 0.0838 -0.0000
vn 0.5094 -0.8605 -0.0000
vn 0.3132 0.9497 -0.0000
vn 0.4093 0.1601 0.8982
vn -1.0000 0.0087 -0.0000
vn 0.9999 0.0157 -0.0000
vn -0.0247 -0.9997 0.0001
vn 0.9924 -0.1230 -0.0000
vn -0.9089 0.4170 -0.0000
vn 0.3306 0.1293 0.9349
vn 0.0675 0.0494 0.9965
vn 0.0365 0.0418 -0.9985
vn 0.4094 0.1601 -0.8982
vn 0.2036 0.1490 -0.9676
vn 0.5028 0.0423 0.8633
vt -2.745438 -3.949451
vt 1.581813 -3.949451
vt 3.745439 -1.785826
vt -2.745438 -1.800107
vt 1.581813 -1.800107
vt -4.909064 -3.949451
vt 3.745439 -3.949451
vt -0.581812 -3.949451
vt -4.909064 -1.800107
vt -0.581812 -1.800107
vt 3.745438 -3.949451
vt -0.581813 -3.949451
vt 5.909064 -1.785825
vt -0.581813 -1.800107
vt 3.745438 -1.800107
vt -2.745438 -3.949451
vt 1.581812 -3.949451
vt 5.909064 -3.949451
vt -2.745438 -1.800107
vt 1.581812 -1.800107
vt -2.745438 -0.725435
vt 1.581813 -0.725435
vt -4.909064 -0.725435
vt -0.581812 -0.725435
vt -2.745438 -0.725435
vt 1.581812 -0.725435
vt 3.745438 -0.725435
vt -0.581813 -0.725435
vt 1.581813 0.349237
vt -2.745439 0.349237
vt -4.909064 0.349237
vt -0.581813 0.349237
vt -2.745438 0.349237
vt 1.581812 0.349237
vt 3.745438 0.349237
vt -0.581813 0.349237
vt 1.581813 1.423909
vt -2.745439 1.423909
vt -4.909064 1.423909
vt -0.581813 1.423909
vt 1.581812 1.423909
vt -2.745438 1.423909
vt -0.581813 1.423909
vt 3.745438 1.423909
vt 1.652552 2.506695
vt -2.816178 2.506695
vt -0.652552 2.506695
vt -4.838325 2.506695
vt -2.674699 2.506695
vt 1.511073 2.506695
vt -0.511074 2.506695
vt 3.674699 2.506695
vt 1.972526 3.618070
vt -3.136152 3.618070
vt -0.972526 3.618070
vt -4.518351 3.618070
vt -2.354725 3.618070
vt 1.191099 3.618070
vt -0.191100 3.618070
vt 3.354725 3.618070
vt 4.060028 -1.471236
vt -3.669957 4.753973
vt 2.506330 4.753973
vt -3.984547 4.753973
vt -1.506331 4.753973
vt 4.060028 -1.785825
vt -1.820920 4.753973
vt 3.745438 -1.785825
vt 0.657294 4.753973
vt 3.745438 -1.471236
vt 0.342704 4.753973
vt 2.820920 4.753973
s 0
usemtl Material
f 1/1/1 4/9/1 3/6/1
f 3/8/2 8/19/2 7/16/2
f 8/20/3 5/12/3 7/17/3
f 6/15/4 1/2/4 5/11/4
f 7/18/5 1/3/5 3/7/5
f 6/14/6 11/26/6 12/28/6
f 9/21/7 14/31/7 10/23/7
f 2/4/8 10/23/8 4/9/8
f 2/5/4 12/27/4 9/22/4
f 4/10/2 11/25/2 8/19/2
f 16/35/4 17/37/4 13/29/4
f 9/22/4 16/35/4 13/29/4
f 10/24/2 15/33/2 11/25/2
f 12/28/9 15/34/9 16/36/9
f 20/43/10 23/50/10 24/51/10
f 15/33/2 18/40/2 19/42/2
f 16/36/11 19/41/11 20/43/11
f 13/30/12 18/39/12 14/31/12
f 24/52/13 25/53/13 21/45/13
f 17/38/14 22/48/14 18/39/14
f 20/44/15 21/45/15 17/37/15
f 19/42/16 22/47/16 23/49/16
f 27/57/17 30/65/17 31/67/17
f 23/49/18 26/55/18 27/57/18
f 23/50/19 28/59/19 24/51/19
f 22/48/20 25/54/20 26/56/20
f 31/68/21 29/61/21 32/70/21
f 27/58/22 32/71/22 28/59/22
f 26/56/23 29/62/23 30/64/23
f 28/60/24 29/63/24 25/53/24
f 1/1/25 2/4/25 4/9/25
f 3/8/2 4/10/2 8/19/2
f 8/20/26 6/14/26 5/12/26
f 6/15/4 2/5/4 1/2/4
f 7/18/27 5/13/27 1/3/27
f 6/14/28 8/20/28 11/26/28
f 9/21/29 13/30/29 14/31/29
f 2/4/8 9/21/8 10/23/8
f 2/5/4 6/15/4 12/27/4
f 4/10/2 10/24/2 11/25/2
f 16/35/4 20/44/4 17/37/4
f 9/22/4 12/27/4 16/35/4
f 10/24/2 14/32/2 15/33/2
f 12/28/9 11/26/9 15/34/9
f 20/43/10 19/41/10 23/50/10
f 15/33/2 14/32/2 18/40/2
f 16/36/11 15/34/11 19/41/11
f 13/30/12 17/38/12 18/39/12
f 24/52/30 28/60/30 25/53/30
f 17/38/14 21/46/14 22/48/14
f 20/44/31 24/52/31 21/45/31
f 19/42/32 18/40/32 22/47/32
f 27/57/33 26/55/33 30/65/33
f 23/49/34 22/47/34 26/55/34
f 23/50/19 27/58/19 28/59/19
f 22/48/20 21/46/20 25/54/20
f 31/68/21 30/66/21 29/61/21
f 27/58/22 31/69/22 32/71/22
f 26/56/23 25/54/23 29/62/23
f 28/60/35 32/72/35 29/63/35
