# Blender 3.4.1
# www.blender.org
o Cube
v -10.144217 10.474155 1.447009
v -10.144217 11.417942 1.447009
v -10.144217 10.474155 -1.447009
v -10.144217 11.417942 -1.447009
v 8.837515 10.474155 1.447009
v 8.837515 11.417942 1.447009
v 8.837515 10.474155 -1.447009
v 8.837515 11.417942 -1.447009
v 0.723272 10.474155 -1.447009
v -2.029974 10.474155 -1.447009
v -2.029974 11.417942 -1.447009
v 0.723272 11.417942 -1.447009
v -2.029974 10.474155 1.447009
v 0.723272 10.474155 1.447009
v 0.723272 11.417942 1.447009
v -2.029974 11.417942 1.447009
v 0.723272 2.912494 -1.447009
v -2.029974 2.912494 -1.447009
v -2.029974 2.912494 1.447009
v 0.723272 2.912494 1.447009
v -4.029974 -3.154567 1.447009
v -4.029974 -3.154567 -1.447009
v -4.029974 1.588148 1.447009
v -4.029974 1.588148 -1.447009
v -13.390743 -4.250462 1.447009
v -13.390743 -4.250462 -1.447009
v 0.723272 -3.699319 1.447009
v -2.029974 -3.699319 1.447009
v -2.029974 -3.699319 -1.447009
v 0.723272 -3.699319 -1.447009
v 0.723272 1.588148 -11.968120
v -2.029974 1.588148 -11.968120
v 0.723272 -3.154567 -11.968120
v -2.029974 -3.154567 -11.968120
v 0.723272 -3.699319 -11.968120
v -2.029974 -3.699319 -11.968120
v -2.029974 1.588148 16.533951
v 0.723272 1.588148 16.533951
v 0.723272 -3.699319 16.533951
v -2.029974 -3.699319 16.533951
v 2.723272 1.588148 -1.447009
v 2.723272 1.588148 1.447009
v 2.723272 -3.699319 -1.447009
v 2.723272 -3.699319 -11.968120
v 2.723272 -3.154567 -1.447009
v 2.723272 -3.154567 1.447009
v 2.723272 -3.699319 1.447009
v 2.723272 -3.154567 -11.968120
v 2.723272 1.588148 -11.968120
v 2.723272 -3.154567 16.533951
v 2.723272 -3.699319 16.533951
v 2.723272 0.791758 16.533951
v -4.029974 -3.699319 1.447009
v -4.029974 -3.699319 16.533951
v -4.029974 -3.699319 -1.447009
v -4.029974 1.588148 -11.968120
v -4.029974 -3.154567 -11.968120
v -4.029974 -3.699319 -11.968120
v -4.029974 -3.154567 16.533951
v -4.029974 0.791758 16.533951
v -4.029974 0.842648 -1.447009
v -4.029974 0.842648 1.447009
v -2.029974 0.842648 -11.968120
v 0.723272 0.842648 -11.968120
v 2.723272 0.842648 1.447009
v 2.723272 0.842648 -1.447009
v 2.723272 0.842648 -11.968120
v 2.723272 0.150235 16.533951
v -4.029974 0.842648 -11.968120
v -4.029974 0.150235 16.533951
v 2.630067 0.842648 -1.447009
v 2.630067 -3.154567 -1.447009
v 2.630067 0.842648 1.447009
v 2.630067 -3.154567 1.447009
v -3.961170 -3.154567 -1.447009
v -3.961170 0.842648 -1.447009
v -3.961170 -3.154567 1.447009
v -3.961170 0.842648 1.447009
v 2.630067 0.842648 -11.654496
v 2.630067 -3.154567 -11.654496
v -3.961170 -3.154567 -11.654496
v -3.961170 0.842648 -11.654496
v 2.630067 0.584338 16.161657
v 2.630067 -3.154567 16.161657
v -3.961170 -3.154567 16.161657
v -3.961170 0.584338 16.161657
v 1.401931 2.019845 -0.927238
v 1.401931 1.991877 1.382342
v -3.961170 0.987426 -1.447009
v -3.961170 0.987426 1.447009
v 1.401931 1.579842 -8.510758
v -2.733034 1.579842 -8.510758
v 1.401931 1.322215 10.685725
v -2.733034 1.322215 10.685725
v 2.630067 0.987426 -1.447009
v 2.630067 0.987426 1.447009
v -2.733034 2.019845 -0.927238
v -2.733034 1.991877 1.382342
v 2.630067 0.987426 -11.654496
v -3.961170 0.987426 -11.654496
v 2.630067 0.729116 16.161657
v -3.961170 0.729116 16.161657
v 0.723272 -2.813124 22.053280
v 1.987432 -2.813124 22.053280
v 1.987432 -3.154567 22.053280
v 0.723272 -3.154567 22.053280
v -3.294134 -2.813124 22.053280
v -2.029974 -2.813124 22.053280
v 0.723272 -3.699319 22.053280
v 1.987432 -3.699319 22.053280
v -3.294134 -3.699319 22.053280
v -2.029974 -3.699319 22.053280
v -2.029974 -3.154567 22.053280
v -3.294134 -3.154567 22.053280
vn -1.0000 -0.0000 -0.0000
vn -0.0000 -0.0000 -1.0000
vn 1.0000 -0.0000 -0.0000
vn -0.0000 -0.0000 1.0000
vn -0.0000 -1.0000 -0.0000
vn -0.0000 1.0000 -0.0000
vn -0.5521 0.8338 -0.0000
vn 0.9912 -0.0000 0.1322
vn -0.9912 -0.0000 0.1322
vn -0.0000 0.9962 0.0874
vn -0.3695 0.9279 0.0490
vn -0.1163 0.9932 -0.0000
vn 0.5506 0.8316 0.0730
vn -0.0000 0.8372 0.5468
vn -0.0000 0.9922 -0.1249
vn -0.2973 0.7465 0.5953
vn 0.5521 0.8338 -0.0000
vn -0.5491 0.8292 -0.1044
vn 0.0588 -0.9983 -0.0000
vn -0.0000 0.7818 0.6235
vn -0.0000 -0.9999 -0.0121
vn -0.0000 -0.9983 0.0579
vn -0.0000 -0.9974 -0.0718
vn -0.6328 -0.7743 -0.0094
vn 0.6435 -0.7655 -0.0000
vn -0.0000 -0.9827 0.1852
vn 0.4345 -0.9007 -0.0000
vn -0.6316 -0.7740 0.0449
vn -0.0000 -0.9942 -0.1077
vn -0.3751 -0.9269 -0.0163
vn 0.6303 -0.7743 -0.0557
vn -0.5506 0.8316 0.0730
vn 0.3695 0.9279 0.0490
vn 0.2973 0.7465 0.5953
vn 0.5491 0.8292 -0.1044
vn -0.6435 -0.7655 -0.0000
vn 0.6328 -0.7743 -0.0094
vn 0.6316 -0.7740 0.0449
vn -0.4345 -0.9007 -0.0000
vn -0.6303 -0.7743 -0.0557
vn 0.3751 -0.9269 -0.0163
vt 0.242599 0.699172
vt 0.537487 0.337047
vt 0.765575 0.794242
vt 0.225841 0.699172
vt 0.520729 0.337047
vt 0.051386 0.506093
vt 0.714188 0.794242
vt 0.537487 0.337047
vt 0.242599 0.647785
vt 0.225841 0.647785
vt 0.000000 0.506093
vt 0.520729 0.337047
vt 0.537487 0.674093
vt 0.259357 0.647785
vt 0.765575 0.506086
vt 0.242599 0.647785
vt 0.051386 0.843140
vt 0.520729 0.674093
vt 0.259357 0.699172
vt 0.537487 0.000000
vt 0.714188 0.506086
vt 0.000000 0.843140
vt 0.520729 0.000000
vt 0.242599 0.699172
vt 0.714188 0.650164
vt 0.102774 0.682795
vt 0.537487 0.144079
vt 0.714188 0.650164
vt 0.537487 0.192967
vt 0.102774 0.682794
vt 0.000000 0.650172
vt 0.520729 0.192967
vt 0.000000 0.699060
vt 0.520729 0.144079
vt 0.154161 0.682795
vt 0.765575 0.650164
vt 0.537487 0.481126
vt 0.765575 0.650164
vt 0.051386 0.682794
vt 0.537487 0.530014
vt 0.051386 0.699060
vt 0.520729 0.530014
vt 0.051386 0.650172
vt 0.520729 0.481126
vt 0.102774 0.506093
vt 0.714188 0.144079
vt 0.749719 0.186939
vt 0.714188 0.192967
vt 0.102774 0.506093
vt 0.798606 0.186939
vt 0.714188 0.481126
vt 0.154161 0.506093
vt 0.798606 0.238326
vt 0.051386 0.506093
vt 0.714188 0.530014
vt 0.749719 0.238326
vt 0.235483 0.506855
vt 0.517817 0.493907
vt 0.270890 0.761797
vt 0.402471 0.261275
vt 0.235483 0.506855
vt 0.402471 0.312662
vt 0.270890 0.813185
vt 0.517817 0.493907
vt 0.332897 0.761797
vt 0.834101 0.238200
vt 0.834101 0.186814
vt 0.332897 0.813185
vt 0.225841 0.647785
vt 0.261217 0.261268
vt 0.000000 0.238204
vt 0.245126 0.647785
vt 0.261217 0.312654
vt 0.000000 0.186816
vt 0.225705 0.238204
vt 0.176818 0.238204
vt 0.176818 0.186816
vt 0.225705 0.186816
vt 0.749701 0.000000
vt 0.154161 0.661519
vt 0.154161 0.710406
vt 0.798589 0.000000
vt 0.216168 0.661519
vt 0.216168 0.710406
vt 0.225841 0.661519
vt 0.225705 0.000000
vt 0.176818 0.000000
vt 0.225841 0.710406
vt 0.798589 0.506086
vt 0.749701 0.506086
vt 0.225705 0.506093
vt 0.176818 0.506093
vt 0.404577 0.680723
vt 0.714188 0.186814
vt 0.714188 0.238201
vt 0.404577 0.732111
vt 0.261217 0.186816
vt 0.332897 0.680723
vt 0.261217 0.000000
vt 0.332897 0.493907
vt 0.225841 0.626006
vt 0.342570 0.680723
vt 0.342570 0.732111
vt 0.332897 0.732111
vt 0.261217 0.238204
vt 0.342570 0.493907
vt 0.216168 0.626006
vt 0.714188 0.000000
vt 0.154161 0.626006
vt 0.404577 0.493907
vt 0.342570 1.000000
vt 0.332897 1.000000
vt 0.261217 0.506093
vt 0.714188 0.506086
vt 0.404577 1.000000
vt 0.225841 0.506093
vt 0.261217 0.761797
vt 0.141306 0.238204
vt 0.141306 0.506093
vt 0.261217 0.493908
vt 0.261217 0.813185
vt 0.245126 0.506093
vt 0.141306 0.186816
vt 0.332897 1.000000
vt 0.834101 0.000000
vt 0.154161 0.745919
vt 0.216168 0.745919
vt 0.270890 1.000000
vt 0.261217 1.000000
vt 0.225841 0.745919
vt 0.141306 0.000000
vt 0.270890 0.493908
vt 0.834101 0.506085
vt 0.332897 0.493908
vt 0.517817 0.542676
vt 0.319659 0.813185
vt 0.515373 0.493907
vt 0.515373 0.545294
vt 0.319659 0.761797
vt 0.517817 0.542676
vt 0.167398 0.710406
vt 0.167398 0.661519
vt 0.391339 0.732111
vt 0.391339 0.680723
vt 0.167398 0.626006
vt 0.391339 0.493907
vt 0.391339 1.000000
vt 0.167398 0.745919
vt 0.319659 1.000000
vt 0.319659 0.493908
vt 0.411205 0.675155
vt 0.459974 0.675155
vt 0.520728 0.312661
vt 0.411205 0.726542
vt 0.520728 0.261274
vt 0.459974 0.726542
vt 0.403692 0.312662
vt 0.519038 0.493907
vt 0.515372 0.806574
vt 0.516595 0.493907
vt 0.519038 0.542676
vt 0.466603 0.806574
vt 0.516595 0.493907
vt 0.515372 0.755186
vt 0.403692 0.261275
vt 0.516595 0.542676
vt 0.516595 0.545294
vt 0.466603 0.755186
vt 0.411205 0.493907
vt 0.527358 0.791129
vt 0.520728 0.493907
vt 0.576127 0.791129
vt 0.459974 0.493907
vt 0.403692 0.493907
vt 0.576127 0.674093
vt 0.515372 0.987822
vt 0.527358 0.674093
vt 0.466603 0.987822
vt 0.582756 0.674093
vt 0.411205 0.987821
vt 0.459974 0.987821
vt 0.631525 0.674093
vt 0.520728 0.000000
vt 0.631525 0.791129
vt 0.515372 0.493908
vt 0.403692 0.000000
vt 0.466603 0.493908
vt 0.582756 0.791129
vt 0.938618 0.181248
vt 0.938618 0.232635
vt 0.459974 0.806574
vt 0.834101 0.181248
vt 0.459974 0.755186
vt 0.834101 0.232635
vt 0.938619 0.012518
vt 0.846618 0.012518
vt 0.938618 0.481396
vt 0.846618 0.481396
vt 0.404576 0.675155
vt 0.951136 0.181248
vt 0.404576 0.726542
vt 0.951136 0.232635
vt 0.846618 0.181248
vt 0.846618 0.232635
vt 0.404576 0.493907
vt 0.520729 0.791129
vt 0.951136 0.000000
vt 0.459974 0.987822
vt 0.520729 0.674093
vt 0.834101 0.000000
vt 0.576127 0.674093
vt 0.404576 0.987821
vt 0.951136 0.493914
vt 0.459974 0.493908
vt 0.576127 0.791129
vt 0.834101 0.493914
vt 0.167398 0.590493
vt 0.749701 0.506086
vt 0.714188 0.506086
vt 0.391339 1.000000
vt 0.167398 0.626006
vt 0.342570 1.000000
vt 0.216168 0.626006
vt 0.216168 0.590493
vt 0.332897 0.493908
vt 0.319659 0.493908
vt 0.834101 0.506085
vt 0.167398 0.506093
vt 0.798589 0.506086
vt 0.167398 0.541606
vt 0.225841 0.590493
vt 0.225705 0.506093
vt 0.332897 1.000000
vt 0.261217 0.506093
vt 0.225841 0.626006
vt 0.261217 0.493908
vt 0.225841 0.506093
vt 0.141306 0.506093
vt 0.225841 0.541606
vt 0.176818 0.506093
vt 0.216168 0.541606
vt 0.270890 0.493908
vt 0.216168 0.506093
s 0
f 2/4/1 3/9/1 1/1/1
f 12/34/2 7/20/2 9/27/2
f 8/24/3 5/14/3 7/19/3
f 16/44/4 1/2/4 13/37/4
f 7/21/5 14/38/5 9/25/5
f 4/11/6 16/43/6 11/31/6
f 12/33/6 6/17/6 8/22/6
f 11/31/6 15/41/6 12/33/6
f 10/28/5 1/3/5 3/7/5
f 14/39/3 17/45/3 9/26/3
f 6/18/4 14/40/4 5/13/4
f 15/42/4 13/37/4 14/40/4
f 4/12/2 10/29/2 3/8/2
f 11/32/2 9/27/2 10/29/2
f 13/37/4 20/55/4 14/40/4
f 9/27/2 18/48/2 10/29/2
f 10/30/1 19/52/1 13/35/1
f 18/50/7 23/66/7 19/53/7
f 50/111/8 104/220/8 105/222/8
f 60/134/9 70/150/9 107/225/9
f 24/68/1 69/149/1 61/136/1
f 19/53/10 38/90/10 20/56/10
f 34/84/2 69/148/2 63/141/2
f 37/89/11 23/66/11 60/133/11
f 53/117/1 59/132/1 21/59/1
f 72/153/6 81/174/6 75/157/6
f 27/75/5 29/77/5 30/78/5
f 35/86/5 43/97/5 30/78/5
f 22/62/12 25/70/12 21/60/12
f 38/90/13 42/95/13 20/56/13
f 64/142/2 34/84/2 63/141/2
f 33/83/2 36/88/2 34/84/2
f 52/114/14 103/218/14 104/219/14
f 17/47/15 32/82/15 18/50/15
f 59/132/9 107/226/9 70/150/9
f 29/77/5 35/86/5 30/78/5
f 50/111/8 110/233/8 51/112/8
f 60/133/16 108/229/16 37/89/16
f 27/75/5 40/92/5 28/76/5
f 31/79/6 41/94/6 49/108/6
f 30/78/5 47/105/5 27/75/5
f 28/76/5 55/123/5 29/77/5
f 65/143/3 45/102/3 66/144/3
f 43/98/3 48/106/3 45/102/3
f 46/103/3 43/98/3 45/102/3
f 45/102/3 67/146/3 66/144/3
f 65/143/3 52/115/3 68/147/3
f 46/103/3 51/112/3 47/104/3
f 27/75/5 51/113/5 39/91/5
f 31/80/2 67/145/2 64/142/2
f 20/56/17 41/94/17 17/47/17
f 33/83/2 44/101/2 35/85/2
f 22/63/1 58/129/1 55/121/1
f 21/59/1 70/150/1 62/139/1
f 40/92/5 53/118/5 28/76/5
f 36/88/2 57/127/2 34/84/2
f 29/77/5 58/131/5 36/87/5
f 32/82/18 24/67/18 18/50/18
f 53/116/4 21/57/4 25/69/4
f 53/118/19 26/74/19 55/123/19
f 22/61/2 55/122/2 26/72/2
f 62/139/1 60/134/1 23/65/1
f 64/142/2 48/107/2 33/83/2
f 46/103/3 68/147/3 50/111/3
f 66/144/3 49/110/3 41/93/3
f 42/96/3 66/144/3 41/93/3
f 37/89/20 103/218/20 38/90/20
f 31/80/2 63/141/2 32/81/2
f 24/68/1 62/139/1 23/65/1
f 63/141/2 56/126/2 32/81/2
f 61/136/1 57/128/1 22/63/1
f 39/91/5 110/234/5 109/232/5
f 54/120/9 114/242/9 59/132/9
f 71/151/1 74/156/1 73/154/1
f 77/165/6 72/153/6 75/157/6
f 78/168/3 102/214/3 86/187/3
f 74/156/1 83/180/1 73/154/1
f 62/140/2 77/163/2 21/58/2
f 61/137/5 78/167/5 62/138/5
f 21/60/6 75/157/6 22/62/6
f 22/64/4 76/161/4 61/135/4
f 81/175/4 79/170/4 82/177/4
f 75/159/3 82/178/3 76/162/3
f 71/151/1 80/173/1 72/152/1
f 71/151/1 99/205/1 79/169/1
f 86/188/2 84/182/2 85/184/2
f 77/164/3 86/187/3 85/185/3
f 77/165/6 84/183/6 74/155/6
f 73/154/1 95/199/1 71/151/1
f 97/203/21 88/190/21 98/204/21
f 97/203/22 91/195/22 87/189/22
f 88/190/23 94/198/23 98/204/23
f 86/188/2 101/211/2 83/179/2
f 76/162/3 90/193/3 78/168/3
f 82/178/3 89/191/3 76/162/3
f 73/154/1 101/212/1 96/201/1
f 79/170/4 100/209/4 82/177/4
f 87/189/24 96/202/24 88/190/24
f 97/203/25 90/194/25 89/192/25
f 92/196/26 99/207/26 91/195/26
f 92/196/27 89/192/27 100/210/27
f 91/195/28 95/200/28 87/189/28
f 93/197/29 102/216/29 94/198/29
f 93/197/30 96/202/30 101/213/30
f 94/198/31 90/194/31 98/204/31
f 106/224/4 104/221/4 103/217/4
f 109/231/4 105/223/4 106/224/4
f 113/241/4 111/237/4 112/239/4
f 113/241/4 109/231/4 106/224/4
f 108/230/4 106/224/4 103/217/4
f 108/230/4 114/243/4 113/241/4
f 40/92/5 111/238/5 54/119/5
f 68/147/8 52/115/8 104/220/8
f 39/91/5 112/240/5 40/92/5
f 2/4/1 4/10/1 3/9/1
f 12/34/2 8/23/2 7/20/2
f 8/24/3 6/16/3 5/14/3
f 16/44/4 2/5/4 1/2/4
f 7/21/5 5/15/5 14/38/5
f 4/11/6 2/6/6 16/43/6
f 12/33/6 15/41/6 6/17/6
f 11/31/6 16/43/6 15/41/6
f 10/28/5 13/36/5 1/3/5
f 14/39/3 20/54/3 17/45/3
f 6/18/4 15/42/4 14/40/4
f 15/42/4 16/44/4 13/37/4
f 4/12/2 11/32/2 10/29/2
f 11/32/2 12/34/2 9/27/2
f 13/37/4 19/51/4 20/55/4
f 9/27/2 17/46/2 18/48/2
f 10/30/1 18/49/1 19/52/1
f 18/50/7 24/67/7 23/66/7
f 50/111/8 68/147/8 104/220/8
f 24/68/1 56/124/1 69/149/1
f 19/53/10 37/89/10 38/90/10
f 34/84/2 57/127/2 69/148/2
f 37/89/32 19/53/32 23/66/32
f 53/117/1 54/120/1 59/132/1
f 72/153/6 80/171/6 81/174/6
f 27/75/5 28/76/5 29/77/5
f 35/86/5 44/99/5 43/97/5
f 22/62/12 26/73/12 25/70/12
f 38/90/33 52/114/33 42/95/33
f 64/142/2 33/83/2 34/84/2
f 33/83/2 35/85/2 36/88/2
f 52/114/34 38/90/34 103/218/34
f 17/47/15 31/79/15 32/82/15
f 59/132/9 114/242/9 107/226/9
f 29/77/5 36/87/5 35/86/5
f 50/111/8 105/222/8 110/233/8
f 60/133/14 107/227/14 108/229/14
f 27/75/5 39/91/5 40/92/5
f 31/79/35 17/47/35 41/94/35
f 30/78/5 43/97/5 47/105/5
f 28/76/5 53/118/5 55/123/5
f 65/143/3 46/103/3 45/102/3
f 43/98/3 44/100/3 48/106/3
f 46/103/3 47/104/3 43/98/3
f 45/102/3 48/106/3 67/146/3
f 65/143/3 42/96/3 52/115/3
f 46/103/3 50/111/3 51/112/3
f 27/75/5 47/105/5 51/113/5
f 31/80/2 49/109/2 67/145/2
f 20/56/17 42/95/17 41/94/17
f 33/83/2 48/107/2 44/101/2
f 22/63/1 57/128/1 58/129/1
f 21/59/1 59/132/1 70/150/1
f 40/92/5 54/119/5 53/118/5
f 36/88/2 58/130/2 57/127/2
f 29/77/5 55/123/5 58/131/5
f 32/82/6 56/125/6 24/67/6
f 53/118/19 25/71/19 26/74/19
f 62/139/1 70/150/1 60/134/1
f 64/142/2 67/145/2 48/107/2
f 46/103/3 65/143/3 68/147/3
f 66/144/3 67/146/3 49/110/3
f 42/96/3 65/143/3 66/144/3
f 37/89/20 108/229/20 103/218/20
f 31/80/2 64/142/2 63/141/2
f 24/68/1 61/136/1 62/139/1
f 63/141/2 69/148/2 56/126/2
f 61/136/1 69/149/1 57/128/1
f 39/91/5 51/113/5 110/234/5
f 54/120/9 111/236/9 114/242/9
f 71/151/1 72/152/1 74/156/1
f 77/165/6 74/155/6 72/153/6
f 78/168/3 90/193/3 102/214/3
f 74/156/1 84/181/1 83/180/1
f 62/140/2 78/166/2 77/163/2
f 61/137/5 76/160/5 78/167/5
f 21/60/6 77/165/6 75/157/6
f 22/64/4 75/158/4 76/161/4
f 81/175/4 80/172/4 79/170/4
f 75/159/3 81/176/3 82/178/3
f 71/151/1 79/169/1 80/173/1
f 71/151/1 95/199/1 99/205/1
f 86/188/2 83/179/2 84/182/2
f 77/164/3 78/168/3 86/187/3
f 77/165/6 85/186/6 84/183/6
f 73/154/1 96/201/1 95/199/1
f 97/203/21 87/189/21 88/190/21
f 97/203/22 92/196/22 91/195/22
f 88/190/23 93/197/23 94/198/23
f 86/188/2 102/215/2 101/211/2
f 76/162/3 89/191/3 90/193/3
f 82/178/3 100/208/3 89/191/3
f 73/154/1 83/180/1 101/212/1
f 79/170/4 99/206/4 100/209/4
f 87/189/36 95/200/36 96/202/36
f 97/203/37 98/204/37 90/194/37
f 92/196/26 100/210/26 99/207/26
f 92/196/38 97/203/38 89/192/38
f 91/195/39 99/207/39 95/200/39
f 93/197/29 101/213/29 102/216/29
f 93/197/40 88/190/40 96/202/40
f 94/198/41 102/216/41 90/194/41
f 106/224/4 105/223/4 104/221/4
f 109/231/4 110/235/4 105/223/4
f 113/241/4 114/243/4 111/237/4
f 113/241/4 112/239/4 109/231/4
f 108/230/4 113/241/4 106/224/4
f 108/230/4 107/228/4 114/243/4
f 40/92/5 112/240/5 111/238/5
f 39/91/5 109/232/5 112/240/5
