# Blender 3.3.1
# www.blender.org
mtllib ground.mtl
o Cube.003
v -11.226052 -0.000000 11.226052
v 11.226052 -0.000000 11.226052
v -11.226052 0.000000 -11.226052
v 11.226052 0.000000 -11.226052
v -11.226052 0.000000 0.000000
v 0.000000 -0.000000 11.226052
v 11.226052 0.000000 0.000000
v 0.000000 0.000000 -11.226052
v -11.226052 -0.000000 5.613026
v 5.613026 -0.000000 11.226052
v 11.226052 0.000000 -5.613026
v -5.613026 0.000000 -11.226052
v -11.226052 0.000000 -5.613026
v -5.613026 -0.000000 11.226052
v 11.226052 -0.000000 5.613026
v 5.613026 0.000000 -11.226052
v 0.000000 0.000000 -5.613026
v 0.000000 -0.000000 5.613026
v -5.613026 0.000000 0.000000
v 5.613026 0.000000 0.000000
v 5.613026 -0.000000 5.613026
v -5.613026 -0.000000 5.613026
v -5.613026 0.000000 -5.613026
v 5.613026 0.000000 -5.613026
v -11.226052 -0.000000 8.419539
v 8.419539 -0.000000 11.226052
v 11.226052 0.000000 -8.419539
v -8.419539 0.000000 -11.226052
v -11.226052 0.000000 -2.806513
v -2.806513 -0.000000 11.226052
v 11.226052 -0.000000 2.806513
v 2.806513 0.000000 -11.226052
v 0.000000 0.000000 -8.419539
v 0.000000 -0.000000 4.433291
v -8.419539 0.000000 0.000000
v 4.433291 0.000000 0.000000
v -11.226052 -0.000000 2.806513
v 2.806513 -0.000000 11.226052
v 11.226052 0.000000 -2.806513
v -2.806513 0.000000 -11.226052
v -11.226052 0.000000 -8.419539
v -8.419539 -0.000000 11.226052
v 11.226052 -0.000000 8.419539
v 8.419539 0.000000 -11.226052
v 0.000000 0.000000 -4.433291
v 0.000000 -0.000000 8.419539
v -4.433291 0.000000 0.000000
v 8.419539 0.000000 0.000000
v 5.613026 -0.000000 2.806513
v 5.613026 -0.000000 8.419539
v 2.806513 -0.000000 5.613026
v 8.419539 -0.000000 5.613026
v -5.613026 -0.000000 2.806513
v -5.613026 -0.000000 8.419539
v -8.419539 -0.000000 5.613026
v -2.806513 -0.000000 5.613026
v -5.613026 0.000000 -8.419539
v -5.613026 0.000000 -2.806513
v -8.419539 0.000000 -5.613026
v -2.806513 0.000000 -5.613026
v 5.613026 0.000000 -8.419539
v 5.613026 0.000000 -2.806513
v 2.806513 0.000000 -5.613026
v 8.419539 0.000000 -5.613026
v 8.419539 0.000000 -2.806513
v 3.064608 0.000000 -3.064608
v 2.806513 0.000000 -8.419539
v -3.064608 0.000000 -3.064608
v -8.419539 0.000000 -2.806513
v -8.419539 0.000000 -8.419539
v -2.806513 -0.000000 8.419539
v -8.419539 -0.000000 8.419539
v -8.419539 -0.000000 2.806513
v 8.419539 -0.000000 8.419539
v 2.806513 -0.000000 8.419539
v 3.064608 -0.000000 3.064608
v 8.419539 -0.000000 2.806513
v -3.064608 -0.000000 3.064608
v -2.806513 0.000000 -8.419539
v 8.419539 0.000000 -8.419539
v 0.000000 -6.296447 3.753737
v 0.000000 -6.296447 -0.000000
v 3.753737 -6.296447 -0.000000
v 0.000000 -6.296447 -3.753737
v -3.753737 -6.296447 -0.000000
v 2.594851 -6.296447 -2.594851
v -2.594851 -6.296447 -2.594851
v 2.594851 -6.296447 2.594851
v -2.594851 -6.296447 2.594851
v 2.806513 -0.359109 -2.806513
v 0.000000 -0.359109 -4.059928
v -4.059928 -0.359109 -0.000000
v -2.806513 -0.359109 2.806513
v -2.806513 -0.359109 -2.806513
v 2.806513 -0.359109 2.806513
v 0.000000 -0.359109 4.059929
v 4.059928 -0.359109 -0.000000
v 0.000000 -0.851017 -3.753737
v -2.594851 -0.851017 2.594852
v -2.594851 -0.851017 -2.594851
v 2.594851 -0.851017 2.594852
v 3.753737 -0.851017 -0.000000
v 2.594851 -0.851017 -2.594851
v -3.753737 -0.851017 -0.000000
v 0.000000 -0.851017 3.753737
v 0.000000 -5.000811 -3.753737
v -2.594851 -5.000810 2.594851
v -2.594851 -5.000811 -2.594851
v 2.594851 -5.000810 2.594851
v 3.753737 -5.000810 -0.000000
v 2.594851 -5.000811 -2.594851
v -3.753737 -5.000810 -0.000000
v 0.000000 -5.000810 3.753737
v 5.024766 -6.296447 8.035654
v 2.429914 -6.296447 9.194540
v 5.024766 -5.000812 8.035654
v 2.429914 -5.000812 9.194540
v 3.404823 -6.296447 4.408452
v 4.214795 -6.296447 6.222053
v 4.214795 -5.000812 6.222053
v 3.404823 -5.000810 4.408453
v 0.384741 -5.000812 5.704902
v 1.619943 -5.000812 7.380939
v 1.619943 -6.296447 7.380939
v 0.384740 -6.296447 5.704901
v -8.655836 -5.000811 9.794858
v -7.845865 -5.000811 11.608459
v -7.845865 -6.296447 11.608459
v -8.655836 -6.296447 9.794858
v 14.802562 -5.000811 3.668797
v 14.802562 -6.296448 3.668797
v 13.992590 -6.296448 1.855197
v 13.992590 -5.000811 1.855196
v 6.654399 -5.000812 7.307845
v 8.284032 -5.000812 6.580035
v 9.913664 -5.000812 5.852226
v 11.543297 -5.000811 5.124416
v 13.172930 -5.000811 4.396607
v 13.172929 -6.296448 4.396605
v 11.543296 -6.296448 5.124415
v 9.913664 -6.296449 5.852224
v 8.284031 -6.296449 6.580035
v 6.654398 -6.296447 7.307844
v 5.844427 -6.296447 5.494244
v 7.474060 -6.296447 4.766434
v 9.103692 -6.296447 4.038624
v 10.733325 -6.296447 3.310816
v 12.362957 -6.296448 2.583006
v 12.362957 -5.000811 2.583006
v 10.733324 -5.000811 3.310815
v 9.103692 -5.000811 4.038625
v 7.474060 -5.000811 4.766434
v 5.844427 -5.000812 5.494244
v 11.407816 -6.779646 13.574474
v 13.037447 -6.779646 12.846665
v 13.037447 -8.075284 12.846665
v 11.407814 -8.075284 13.574474
v 13.099553 -6.779648 17.362432
v 14.729184 -6.779648 16.634623
v 14.729184 -8.075285 16.634623
v 13.099551 -8.075285 17.362432
v 13.099553 -6.779648 17.362432
v 14.729184 -6.779648 16.634623
v 14.729184 -8.075285 16.634623
v 13.099551 -8.075285 17.362432
vn -0.0000 1.0000 -0.0000
vn -0.4078 -0.0000 -0.9131
vn -0.2820 0.9594 -0.0000
vn -0.2113 0.9543 -0.2113
vn -0.0000 0.9594 0.2820
vn 0.2113 0.9543 0.2113
vn -0.2113 0.9543 0.2113
vn 0.4078 -0.0000 0.9131
vn 0.2820 0.9594 -0.0000
vn -0.4078 -0.0000 0.9131
vn 0.9131 -0.0000 -0.4078
vn -0.0000 0.9594 -0.2820
vn 0.2113 0.9543 -0.2113
vn 0.9131 -0.0000 0.4078
vn 0.4078 -0.0000 -0.9131
vn -0.9131 -0.0000 -0.4078
vn -0.9131 -0.0000 0.4078
vn -0.7635 0.6458 -0.0000
vn -0.5461 0.6352 -0.5461
vn -0.0000 0.6458 -0.7635
vn 0.5461 0.6352 -0.5461
vn 0.7635 0.6458 -0.0000
vn 0.5461 0.6352 0.5461
vn -0.0000 0.6458 0.7635
vn -0.5461 0.6352 0.5461
vn -0.8490 0.5284 -0.0000
vn -0.6041 0.5198 -0.6041
vn -0.0000 0.5284 -0.8490
vn 0.6041 0.5198 -0.6041
vn 0.8490 0.5284 -0.0000
vn 0.6041 0.5198 0.6041
vn -0.0000 0.5284 0.8490
vn -0.6041 0.5198 0.6041
vn -0.0000 -1.0000 -0.0000
vn 0.9811 -0.0000 -0.1935
vn 0.4122 -0.0000 0.9111
vn -0.0922 -0.9741 -0.2065
vn 0.0922 0.9741 0.2065
vt 0.000000 0.000000
vt 1.000000 0.000000
vt 0.000000 1.000000
vt 1.000000 1.000000
vt 0.000000 0.500000
vt 0.500000 0.000000
vt 1.000000 0.500000
vt 0.500000 1.000000
vt 0.000000 0.250000
vt 0.750000 0.000000
vt 1.000000 0.750000
vt 0.250000 1.000000
vt 0.000000 0.750000
vt 0.250000 0.000000
vt 1.000000 0.250000
vt 0.750000 1.000000
vt 0.500000 0.750000
vt 0.500000 0.250000
vt 0.250000 0.500000
vt 0.750000 0.500000
vt 0.750000 0.250000
vt 0.250000 0.250000
vt 0.250000 0.750000
vt 0.750000 0.750000
vt 0.000000 0.125000
vt 0.875000 0.000000
vt 1.000000 0.875000
vt 0.125000 1.000000
vt 0.000000 0.625000
vt 0.375000 0.000000
vt 1.000000 0.375000
vt 0.625000 1.000000
vt 0.500000 0.875000
vt 0.500000 0.375000
vt 0.125000 0.500000
vt 0.625000 0.500000
vt 0.000000 0.375000
vt 0.625000 0.000000
vt 1.000000 0.625000
vt 0.375000 1.000000
vt 0.000000 0.875000
vt 0.125000 0.000000
vt 1.000000 0.125000
vt 0.875000 1.000000
vt 0.500000 0.625000
vt 0.500000 0.125000
vt 0.375000 0.500000
vt 0.875000 0.500000
vt 0.750000 0.375000
vt 0.750000 0.125000
vt 0.625000 0.250000
vt 0.875000 0.250000
vt 0.250000 0.375000
vt 0.250000 0.125000
vt 0.125000 0.250000
vt 0.375000 0.250000
vt 0.250000 0.875000
vt 0.250000 0.625000
vt 0.125000 0.750000
vt 0.375000 0.750000
vt 0.750000 0.875000
vt 0.750000 0.625000
vt 0.625000 0.750000
vt 0.875000 0.750000
vt 0.875000 0.625000
vt 0.625000 0.625000
vt 0.625000 0.875000
vt 0.375000 0.625000
vt 0.125000 0.625000
vt 0.125000 0.875000
vt 0.375000 0.125000
vt 0.125000 0.125000
vt 0.125000 0.375000
vt 0.875000 0.125000
vt 0.625000 0.125000
vt 0.625000 0.375000
vt 0.875000 0.375000
vt 0.375000 0.375000
vt 0.375000 0.875000
vt 0.875000 0.875000
vt 0.500000 0.375000
vt 7.566406 0.694336
vt 0.328407 0.441043
vt 0.500000 0.500000
vt 0.625000 0.500000
vt 11.506836 0.694336
vt 10.193359 0.694336
vt 0.500000 0.625000
vt 0.375000 0.500000
vt 8.879883 0.694336
vt 0.625000 0.625000
vt 10.851562 0.694336
vt 0.375000 0.625000
vt 9.536133 0.694336
vt 0.348087 0.487673
vt 0.625000 0.375000
vt 12.164062 0.694336
vt 0.375000 0.375000
vt 8.223633 0.694336
vt 0.625000 0.625000
vt 0.500000 0.625000
vt 0.375000 0.500000
vt 0.375000 0.375000
vt 0.375000 0.625000
vt 0.625000 0.375000
vt 0.500000 0.375000
vt 0.625000 0.500000
vt 0.023438 0.000977
vt 0.500000 0.625000
vt 0.711914 0.000977
vt 0.375000 0.375000
vt 0.713867 1.007812
vt 0.023438 1.007812
vt 0.375000 0.625000
vt 0.711914 1.007812
vt 0.711914 0.000977
vt 0.625000 0.375000
vt 0.023438 0.000977
vt 0.023438 1.007812
vt 0.023438 0.000977
vt 0.625000 0.500000
vt 0.713867 0.000977
vt 0.023438 0.000977
vt 0.625000 0.625000
vt 0.711914 0.000977
vt 0.711914 1.007812
vt 0.375000 0.500000
vt 0.023438 1.007812
vt 0.711914 1.007812
vt 0.500000 0.375000
vt 0.023438 1.007812
vt 10.193359 0.999023
vt 0.711914 1.007812
vt 0.023438 1.007812
vt 0.713867 0.000977
vt 8.223633 0.999023
vt 0.023438 0.000977
vt 0.711914 0.000977
vt 9.536133 0.999023
vt 0.711914 1.007812
vt 0.023438 1.007812
vt 12.164062 0.999023
vt 0.023438 0.000977
vt 0.324660 0.516545
vt 11.506836 0.999023
vt 0.023438 1.007812
vt 0.713867 1.007812
vt 10.851562 0.999023
vt 0.711914 1.007812
vt 0.023438 1.007812
vt 8.879883 0.999023
vt 0.023438 0.000977
vt 0.711914 0.000977
vt 0.305549 0.454998
vt 0.023438 0.000977
vt 0.711914 0.000977
vt 7.566406 0.999023
vt 0.826172 0.694336
vt 0.693924 0.413546
vt 1.483398 0.694336
vt 0.673568 0.523293
vt 0.270257 0.538553
vt 0.826172 0.999023
vt 1.483398 0.999023
vt 0.249901 0.428805
vt 0.621496 0.942794
vt 0.847335 0.442000
vt 12.620117 0.694336
vt 0.770629 0.427773
vt 13.074219 0.694336
vt 13.074219 0.999023
vt 0.346962 0.524325
vt 0.000000 1.000000
vt 0.423668 0.510098
vt 12.620117 0.999023
vt 0.403312 0.400351
vt 0.049771 0.024500
vt 7.093750 0.999023
vt 1.939453 0.999023
vt 0.326606 0.414578
vt 0.750273 0.537521
vt 1.939453 0.694336
vt 0.621496 0.000000
vt 7.093750 0.694336
vt 0.826979 0.551748
vt 4.803711 0.999023
vt 0.329054 0.000000
vt 4.348633 0.999023
vt 0.252349 0.014227
vt 4.348633 0.694336
vt 0.676016 0.937872
vt 4.803711 0.694336
vt 0.752721 0.952099
vt 0.346962 0.952099
vt 16.021484 0.999023
vt 16.021484 0.694336
vt 0.770629 0.000000
vt 15.550781 0.694336
vt 0.847335 0.014228
vt 15.550781 0.999023
vt 0.423668 0.937872
vt 0.283041 0.607477
vt 0.422852 0.999023
vt 0.000977 0.999023
vt 0.295826 0.676402
vt 0.949112 0.407179
vt 0.949111 0.000000
vt 17.252930 0.999023
vt 0.308610 0.745326
vt 0.321394 0.814251
vt 16.847656 0.999023
vt 0.334178 0.883175
vt 16.427734 0.999023
vt 0.757845 0.068924
vt 16.427734 0.694336
vt 0.745061 0.137849
vt 16.847656 0.694336
vt 17.252930 0.694336
vt 1.000000 0.000000
vt 0.732277 0.206773
vt 0.898223 0.407179
vt 0.000977 0.694336
vt 0.719493 0.275698
vt 0.706708 0.344622
vt 0.422852 0.694336
vt 0.783414 0.358849
vt 13.495117 0.694336
vt 0.796198 0.289925
vt 13.898438 0.694336
vt 0.808982 0.221001
vt 14.321289 0.694336
vt 0.821766 0.152076
vt 14.724609 0.694336
vt 0.834550 0.083152
vt 15.145508 0.694336
vt 0.410883 0.868947
vt 15.145508 0.999023
vt 0.398099 0.800023
vt 14.724609 0.999023
vt 14.321289 0.999023
vt 0.385315 0.731099
vt 0.372531 0.662174
vt 13.898438 0.999023
vt 0.359747 0.593250
vt 13.495117 0.999023
vt 0.000000 0.731272
vt 0.949112 0.708050
vt 0.655360 0.000000
vt 0.949111 0.300871
vt 0.012784 0.800197
vt 0.655360 0.951312
vt 0.436451 0.151903
vt 1.000000 0.300871
vt 0.000000 1.000000
vt 0.898223 0.708050
vt 0.423667 0.220827
vt 0.000104 0.048734
vt 0.327581 0.498330
vt 0.329107 0.500099
vt 0.327813 0.501647
vt 0.326286 0.499850
vt 0.000000 0.999999
vt 0.000000 0.000000
vt 0.725939 0.000000
vt 0.725939 1.000000
s 0
usemtl Material
f 27/27/1 44/44/1 80/80/1
f 33/33/1 40/40/1 79/79/1
f 138/213/2 131/196/2 139/215/2
f 31/31/1 48/48/1 77/77/1
s 1
f 49/49/1 36/36/3 76/76/4
s 0
f 50/50/1 51/51/1 75/75/1
f 43/43/1 52/52/1 74/74/1
f 53/53/1 35/35/1 73/73/1
f 54/54/1 55/55/1 72/72/1
f 46/46/1 56/56/1 71/71/1
f 57/57/1 28/28/1 70/70/1
f 58/58/1 59/59/1 69/69/1
s 1
f 45/45/5 60/60/1 68/68/6
s 0
f 61/61/1 32/32/1 67/67/1
s 1
f 66/66/7 24/24/1 63/63/1
s 0
f 39/39/1 64/64/1 65/65/1
f 65/65/1 24/24/1 62/62/1
f 48/48/1 62/62/1 20/20/1
f 7/7/1 65/65/1 48/48/1
s 1
f 45/45/5 63/63/1 17/17/1
s 0
f 108/139/8 84/87/8 106/132/8
s 1
f 36/36/3 62/62/1 66/66/7
s 0
f 67/67/1 8/8/1 33/33/1
f 63/63/1 33/33/1 17/17/1
f 24/24/1 67/67/1 63/63/1
s 1
f 68/68/6 23/23/1 58/58/1
f 47/47/9 58/58/1 19/19/1
s 0
f 106/132/10 86/92/10 111/148/10
f 69/69/1 13/13/1 29/29/1
f 35/35/1 29/29/1 5/5/1
f 19/19/1 69/69/1 35/35/1
f 70/70/1 3/3/1 41/41/1
f 59/59/1 41/41/1 13/13/1
f 23/23/1 70/70/1 59/59/1
f 71/71/1 22/22/1 54/54/1
f 30/30/1 54/54/1 14/14/1
f 6/6/1 71/71/1 30/30/1
f 72/72/1 9/9/1 25/25/1
f 42/42/1 25/25/1 1/1/1
f 14/14/1 72/72/1 42/42/1
f 73/73/1 5/5/1 37/37/1
f 55/55/1 37/37/1 9/9/1
f 22/22/1 73/73/1 55/55/1
f 74/74/1 21/21/1 50/50/1
f 26/26/1 50/50/1 10/10/1
f 2/2/1 74/74/1 26/26/1
f 75/75/1 18/18/1 46/46/1
f 38/38/1 46/46/1 6/6/1
f 10/10/1 75/75/1 38/38/1
f 107/136/11 85/90/11 112/151/11
s 1
f 51/51/1 34/34/12 18/18/1
f 21/21/1 76/76/4 51/51/1
s 0
f 77/77/1 20/20/1 49/49/1
f 52/52/1 49/49/1 21/21/1
f 15/15/1 77/77/1 52/52/1
s 1
f 53/53/1 47/47/9 19/19/1
f 22/22/1 78/78/13 53/53/1
f 56/56/1 34/34/12 78/78/13
s 0
f 79/79/1 12/12/1 57/57/1
f 60/60/1 57/57/1 23/23/1
f 17/17/1 79/79/1 60/60/1
f 80/80/1 16/16/1 61/61/1
f 64/64/1 61/61/1 24/24/1
f 11/11/1 80/80/1 64/64/1
f 89/98/1 82/84/1 85/89/1
f 82/84/1 86/91/1 84/88/1
f 82/84/1 87/93/1 85/89/1
f 88/96/1 82/84/1 81/81/1
f 112/151/14 87/94/14 108/139/14
f 113/157/15 89/99/15 107/136/15
f 110/145/16 88/97/16 109/142/16
f 111/148/17 83/86/17 110/145/17
s 1
f 66/66/7 97/107/18 36/36/3
f 76/76/4 97/107/18 95/105/19
f 78/78/13 96/106/20 93/103/21
f 68/68/6 92/102/22 94/104/23
f 78/78/13 92/102/22 47/47/9
f 66/66/7 91/101/24 90/100/25
f 68/68/6 91/101/24 45/45/5
f 76/76/4 96/106/20 34/34/12
f 90/100/25 102/121/26 97/107/18
f 95/105/19 102/121/26 101/117/27
f 93/103/21 105/130/28 99/111/29
f 94/104/23 104/127/30 100/114/31
f 93/103/21 104/127/30 92/102/22
f 90/100/25 98/109/32 103/124/33
f 94/104/23 98/109/32 91/101/24
f 95/105/19 105/130/28 96/106/20
s 0
f 103/125/17 110/146/17 102/120/17
f 101/118/16 110/147/16 109/141/16
f 99/112/15 113/155/15 107/135/15
f 100/115/14 112/152/14 108/138/14
f 99/113/11 112/153/11 104/126/11
f 98/110/10 111/150/10 103/123/10
f 100/116/8 106/134/8 98/108/8
f 101/119/2 113/156/2 105/129/2
f 116/163/2 115/160/2 117/164/2
f 123/179/11 115/160/11 124/182/11
f 124/181/1 114/159/1 119/169/1
f 120/172/34 117/165/34 123/180/34
f 109/144/34 122/177/34 113/154/34
f 121/174/34 123/180/34 122/176/34
f 81/83/1 118/166/1 88/95/1
f 118/167/1 124/181/1 119/169/1
f 113/157/35 125/184/35 81/82/35
f 122/178/36 129/192/36 125/184/36
f 88/97/17 121/175/17 109/142/17
f 118/168/17 120/171/17 121/175/17
f 126/186/11 128/190/11 129/192/11
f 124/182/2 127/188/2 123/179/2
f 125/185/1 128/191/1 124/181/1
f 123/180/34 126/187/34 122/176/34
f 132/198/17 130/195/17 133/200/17
f 148/235/8 133/200/8 149/237/8
f 138/212/34 133/201/34 130/194/34
f 139/214/1 132/199/1 148/234/1
f 114/159/1 144/226/1 119/169/1
f 143/224/1 145/228/1 144/226/1
f 142/223/1 146/230/1 145/228/1
f 141/220/1 147/232/1 146/230/1
f 140/216/1 148/234/1 147/232/1
f 120/172/34 134/202/34 116/162/34
f 153/244/34 135/205/34 134/202/34
f 152/242/34 136/209/34 135/205/34
f 136/209/34 150/238/34 137/210/34
f 137/210/34 149/236/34 138/212/34
f 119/170/8 153/245/8 120/171/8
f 144/227/8 152/243/8 153/245/8
f 152/243/8 146/231/8 151/240/8
f 146/231/8 150/239/8 151/240/8
f 147/233/8 149/237/8 150/239/8
f 116/163/2 143/225/2 114/158/2
f 134/203/2 142/222/2 143/225/2
f 141/219/17 155/249/17 136/207/17
f 136/208/2 140/217/2 141/218/2
f 137/211/2 139/215/2 140/217/2
f 156/254/17 159/259/17 155/251/17
f 135/205/37 155/250/37 154/246/37
f 135/206/11 157/255/11 142/221/11
f 141/220/38 157/256/38 156/252/38
f 27/27/1 4/4/1 44/44/1
f 33/33/1 8/8/1 40/40/1
f 138/213/2 130/195/2 131/196/2
f 31/31/1 7/7/1 48/48/1
s 1
f 49/49/1 20/20/1 36/36/3
s 0
f 50/50/1 21/21/1 51/51/1
f 43/43/1 15/15/1 52/52/1
f 53/53/1 19/19/1 35/35/1
f 54/54/1 22/22/1 55/55/1
f 46/46/1 18/18/1 56/56/1
f 57/57/1 12/12/1 28/28/1
f 58/58/1 23/23/1 59/59/1
s 1
f 45/45/5 17/17/1 60/60/1
s 0
f 61/61/1 16/16/1 32/32/1
s 1
f 66/66/7 62/62/1 24/24/1
s 0
f 39/39/1 11/11/1 64/64/1
f 65/65/1 64/64/1 24/24/1
f 48/48/1 65/65/1 62/62/1
f 7/7/1 39/39/1 65/65/1
s 1
f 45/45/5 66/66/7 63/63/1
s 0
f 108/139/8 87/94/8 84/87/8
s 1
f 36/36/3 20/20/1 62/62/1
s 0
f 67/67/1 32/32/1 8/8/1
f 63/63/1 67/67/1 33/33/1
f 24/24/1 61/61/1 67/67/1
s 1
f 68/68/6 60/60/1 23/23/1
f 47/47/9 68/68/6 58/58/1
s 0
f 106/132/10 84/87/10 86/92/10
f 69/69/1 59/59/1 13/13/1
f 35/35/1 69/69/1 29/29/1
f 19/19/1 58/58/1 69/69/1
f 70/70/1 28/28/1 3/3/1
f 59/59/1 70/70/1 41/41/1
f 23/23/1 57/57/1 70/70/1
f 71/71/1 56/56/1 22/22/1
f 30/30/1 71/71/1 54/54/1
f 6/6/1 46/46/1 71/71/1
f 72/72/1 55/55/1 9/9/1
f 42/42/1 72/72/1 25/25/1
f 14/14/1 54/54/1 72/72/1
f 73/73/1 35/35/1 5/5/1
f 55/55/1 73/73/1 37/37/1
f 22/22/1 53/53/1 73/73/1
f 74/74/1 52/52/1 21/21/1
f 26/26/1 74/74/1 50/50/1
f 2/2/1 43/43/1 74/74/1
f 75/75/1 51/51/1 18/18/1
f 38/38/1 75/75/1 46/46/1
f 10/10/1 50/50/1 75/75/1
f 107/136/11 89/99/11 85/90/11
s 1
f 51/51/1 76/76/4 34/34/12
f 21/21/1 49/49/1 76/76/4
s 0
f 77/77/1 48/48/1 20/20/1
f 52/52/1 77/77/1 49/49/1
f 15/15/1 31/31/1 77/77/1
s 1
f 53/53/1 78/78/13 47/47/9
f 22/22/1 56/56/1 78/78/13
f 56/56/1 18/18/1 34/34/12
s 0
f 79/79/1 40/40/1 12/12/1
f 60/60/1 79/79/1 57/57/1
f 17/17/1 33/33/1 79/79/1
f 80/80/1 44/44/1 16/16/1
f 64/64/1 80/80/1 61/61/1
f 11/11/1 27/27/1 80/80/1
f 89/98/1 81/81/1 82/84/1
f 82/84/1 83/85/1 86/91/1
f 82/84/1 84/88/1 87/93/1
f 88/96/1 83/85/1 82/84/1
f 112/151/14 85/90/14 87/94/14
f 113/157/15 81/82/15 89/99/15
f 110/145/16 83/86/16 88/97/16
f 111/148/17 86/92/17 83/86/17
s 1
f 66/66/7 90/100/25 97/107/18
f 76/76/4 36/36/3 97/107/18
f 78/78/13 34/34/12 96/106/20
f 68/68/6 47/47/9 92/102/22
f 78/78/13 93/103/21 92/102/22
f 66/66/7 45/45/5 91/101/24
f 68/68/6 94/104/23 91/101/24
f 76/76/4 95/105/19 96/106/20
f 90/100/25 103/124/33 102/121/26
f 95/105/19 97/107/18 102/121/26
f 93/103/21 96/106/20 105/130/28
f 94/104/23 92/102/22 104/127/30
f 93/103/21 99/111/29 104/127/30
f 90/100/25 91/101/24 98/109/32
f 94/104/23 100/114/31 98/109/32
f 95/105/19 101/117/27 105/130/28
s 0
f 103/125/17 111/149/17 110/146/17
f 101/118/16 102/122/16 110/147/16
f 99/112/15 105/131/15 113/155/15
f 100/115/14 104/128/14 112/152/14
f 99/113/11 107/137/11 112/153/11
f 98/110/10 106/133/10 111/150/10
f 100/116/8 108/140/8 106/134/8
f 101/119/2 109/143/2 113/156/2
f 116/163/2 114/158/2 115/160/2
f 123/179/11 117/164/11 115/160/11
f 124/181/1 115/161/1 114/159/1
f 120/172/34 116/162/34 117/165/34
f 109/144/34 121/173/34 122/177/34
f 121/174/34 120/172/34 123/180/34
f 81/83/1 125/183/1 118/166/1
f 118/167/1 125/185/1 124/181/1
f 113/157/35 122/178/35 125/184/35
f 122/178/36 126/186/36 129/192/36
f 88/97/17 118/168/17 121/175/17
f 118/168/17 119/170/17 120/171/17
f 126/186/11 127/188/11 128/190/11
f 124/182/2 128/190/2 127/188/2
f 125/185/1 129/193/1 128/191/1
f 123/180/34 127/189/34 126/187/34
f 132/198/17 131/196/17 130/195/17
f 148/235/8 132/198/8 133/200/8
f 138/212/34 149/236/34 133/201/34
f 139/214/1 131/197/1 132/199/1
f 114/159/1 143/224/1 144/226/1
f 143/224/1 142/223/1 145/228/1
f 142/223/1 141/220/1 146/230/1
f 141/220/1 140/216/1 147/232/1
f 140/216/1 139/214/1 148/234/1
f 120/172/34 153/244/34 134/202/34
f 153/244/34 152/242/34 135/205/34
f 152/242/34 151/241/34 136/209/34
f 136/209/34 151/241/34 150/238/34
f 137/210/34 150/238/34 149/236/34
f 119/170/8 144/227/8 153/245/8
f 144/227/8 145/229/8 152/243/8
f 152/243/8 145/229/8 146/231/8
f 146/231/8 147/233/8 150/239/8
f 147/233/8 148/235/8 149/237/8
f 116/163/2 134/203/2 143/225/2
f 134/203/2 135/204/2 142/222/2
f 141/219/17 156/253/17 155/249/17
f 136/208/2 137/211/2 140/217/2
f 137/211/2 138/213/2 139/215/2
f 154/248/11 161/261/11 157/257/11
f 135/205/37 136/209/37 155/250/37
f 135/206/11 154/247/11 157/255/11
f 141/220/38 142/223/38 157/256/38
f 155/251/34 158/258/34 154/248/34
f 157/257/1 160/260/1 156/254/1
f 162/262/2 164/264/2 165/265/2
f 162/262/2 163/263/2 164/264/2
f 156/254/17 160/260/17 159/259/17
f 154/248/11 158/258/11 161/261/11
f 155/251/34 159/259/34 158/258/34
f 157/257/1 161/261/1 160/260/1
