# Blender 3.3.1
# www.blender.org
mtllib nav.mtl
o navmesh
v 0.500000 -4.899265 -1.000000
v -0.500000 -4.899265 -1.000000
v 0.500000 -4.899265 0.000000
v -0.500000 -4.899265 0.000000
v 0.500000 -4.899265 1.000000
v -0.500000 -4.899265 1.000000
v -1.500000 -4.899265 -1.000000
v -1.500000 -4.899265 0.000000
v -1.500000 -4.899265 1.000000
v 1.500000 -4.899265 -1.000000
v 1.500000 -4.899265 0.000000
v 1.500000 -4.899265 1.000000
v -2.500000 -4.899265 -1.000000
v -2.500000 -4.899265 0.000000
v -2.500000 -4.899265 1.000000
v 2.500000 -4.899265 -1.000000
v 2.500000 -4.899265 0.000000
v 2.500000 -4.899265 1.000000
v 0.500000 -4.899265 -2.000000
v -0.500000 -4.899265 -2.000000
v -1.500000 -4.899265 -2.000000
v 1.500000 -4.899265 -2.000000
v -2.500000 -4.899265 -2.000000
v 2.500000 -4.899265 -2.000000
v 0.500000 -4.899265 2.000000
v -0.500000 -4.899265 2.000000
v -1.500000 -4.899265 2.000000
v 1.500000 -4.899265 2.000000
v -2.500000 -4.899265 2.000000
v 2.500000 -4.899265 2.000000
v 0.110293 -4.899265 2.512065
v -0.402813 -4.899265 2.512065
v 0.213324 -4.899265 3.147970
v -0.299782 -4.899265 3.147970
v 0.213324 -4.899265 3.365325
v -0.299782 -4.899265 3.365325
v 0.213324 -4.899265 3.593825
v -0.299782 -4.899265 3.593825
v 1.116940 -4.821241 3.052726
v 1.070109 -4.821241 3.231878
v 1.161493 -4.821241 3.441310
v 2.249655 -4.572952 2.354804
v 2.239846 -4.572952 2.513290
v 2.370150 -4.572952 2.700996
v 2.947756 -4.461093 1.578224
v 3.029670 -4.461093 1.585159
v 3.256402 -4.461093 1.613542
v 3.241423 -4.246108 0.318330
v 3.325021 -4.246108 0.298215
v 3.553522 -4.246108 0.298161
v 3.277891 -4.140985 -0.540229
v 3.353031 -4.140985 -0.620336
v 3.572641 -4.140985 -0.683458
v 2.751349 -3.933749 -1.747117
v 2.779791 -3.933749 -1.911868
v 2.950308 -3.933749 -2.063976
v 0.000000 -4.899265 0.000000
v 0.000000 -4.899265 -1.000000
v 0.000000 -4.899265 1.000000
v 0.000000 -4.899265 -2.000000
v 0.000000 -4.899265 2.000000
v -0.146260 -4.899265 2.512065
v -0.043229 -4.899265 3.147970
v -0.043229 -4.899265 3.365325
v -0.043229 -4.899265 3.593825
v -0.500000 -4.899265 0.500000
v 0.500000 -4.899265 0.500000
v -1.500000 -4.899265 0.500000
v 1.500000 -4.899265 0.500000
v -2.500000 -4.899265 0.500000
v 2.500000 -4.899265 0.500000
v 0.000000 -4.899265 0.500000
v 0.500000 -4.899265 -0.500000
v -0.500000 -4.899265 -0.500000
v -1.500000 -4.899265 -0.500000
v 1.500000 -4.899265 -0.500000
v -2.500000 -4.899265 -0.500000
v 2.500000 -4.899265 -0.500000
v 0.000000 -4.899265 -0.500000
v -3.516978 -4.899265 0.000000
v -3.516978 -4.899265 0.500000
v -3.516978 -4.899265 -0.500000
v -4.291267 -4.899265 0.000000
v -4.291267 -4.899265 0.500000
v -4.291267 -4.899265 -0.500000
v -4.996218 -4.899265 0.000000
v -4.996218 -4.899265 0.500000
v -4.996218 -4.899265 -0.500000
v -5.539376 -4.899265 0.000000
v -5.539376 -4.899265 0.500000
v -5.539376 -4.899265 -0.500000
v -6.001639 -4.899265 0.000000
v -6.001639 -4.899265 0.500000
v -6.001639 -4.899265 -0.500000
v -6.001639 -4.899265 0.000000
v -6.001639 -4.899265 0.500000
v -6.001639 -4.899265 -0.500000
v -6.510128 -4.899265 0.000000
v -6.510128 -4.899265 0.500000
v -6.510128 -4.899265 -0.500000
v -4.996218 -4.899265 -2.956507
v -5.539376 -4.899265 -2.956507
v -6.001639 -4.899265 -2.956507
v -6.001639 -4.899265 -2.956507
v -6.510128 -4.899265 -2.956507
v -4.996218 -5.458019 -4.987532
v -5.539376 -5.458019 -4.987532
v -6.001639 -5.458019 -4.987532
v -6.001639 -5.458019 -4.987532
v -6.510128 -5.458019 -4.987532
v -4.996218 -5.458019 -5.997394
v -5.539376 -5.458019 -5.997394
v -6.001639 -5.458019 -5.997394
v -6.001639 -5.458019 -5.997394
v -6.510128 -5.458019 -5.997394
v -4.996218 -5.458019 -6.572546
v -5.539376 -5.458019 -6.572546
v -6.001639 -5.458019 -6.572546
v -6.001639 -5.458019 -6.572546
v -6.510128 -5.458019 -6.572546
v -6.001639 -5.458019 -5.492463
v -6.001639 -5.458019 -5.492463
v -4.996218 -5.458019 -5.492463
v -5.539376 -5.458019 -5.492463
v -6.510128 -5.458019 -5.492463
v -7.981449 -5.813514 -5.997394
v -7.981449 -5.813514 -6.572546
v -7.981449 -5.813514 -5.492463
v -9.553088 -6.091340 -5.997394
v -9.553088 -6.091340 -6.572547
v -9.553088 -6.091340 -5.492463
v -10.489384 -6.091340 -5.997394
v -10.489384 -6.091340 -6.572547
v -10.489384 -6.091340 -5.492463
vn -0.0000 1.0000 -0.0000
vn -0.0834 0.9964 0.0174
vn -0.0787 0.9967 0.0197
vn -0.0790 0.9967 0.0198
vn -0.0779 0.9968 0.0194
vn -0.1531 0.9845 0.0855
vn -0.2289 0.9730 -0.0304
vn -0.2179 0.9755 -0.0312
vn -0.2245 0.9740 -0.0316
vn -0.0445 0.9963 0.0736
vn -0.1396 0.9900 0.0222
vn -0.1339 0.9909 0.0157
vn -0.1479 0.9886 0.0283
vn -0.0100 0.9869 0.1608
vn -0.0038 0.9861 0.1662
vn -0.0038 0.9860 0.1664
vn -0.0037 0.9862 0.1653
vn 0.0155 0.9938 0.1103
vn 0.0462 0.9917 0.1196
vn 0.0464 0.9916 0.1210
vn 0.0451 0.9922 0.1159
vn 0.0679 0.9901 0.1232
vn 0.1501 0.9843 0.0933
vn 0.1534 0.9833 0.0981
vn 0.1416 0.9862 0.0858
vn -0.0000 -0.0000 -0.0000
vn -0.0836 0.9963 0.0175
vn -0.1010 0.9940 -0.0428
vn -0.0896 0.9950 -0.0434
vn -0.0970 0.9943 -0.0438
vn -0.2493 0.9673 -0.0470
vn -0.2423 0.9691 -0.0465
vn -0.2382 0.9700 -0.0477
vn -0.0457 0.9952 0.0860
vn -0.0484 0.9947 0.0903
vn -0.0464 0.9951 0.0869
vn 0.0317 0.9845 0.1726
vn 0.0317 0.9839 0.1757
vn 0.0316 0.9843 0.1735
vn 0.1078 0.9871 0.1184
vn 0.1119 0.9855 0.1278
vn 0.1084 0.9867 0.1215
vn 0.0680 0.9901 0.1232
vn 0.2230 0.9729 0.0606
vn 0.2401 0.9678 0.0754
vn 0.2276 0.9715 0.0669
vn -0.0000 -0.0000 1.0000
vn -0.0000 0.9642 -0.2653
vn -0.2349 0.9720 -0.0000
vn -0.1741 0.9847 -0.0000
vt 1.000000 1.000000
vt 0.000000 1.000000
vt 1.000000 0.000000
vt 0.000000 0.000000
vt 1.000000 0.000000
vt 0.000000 0.000000
vt 0.000000 1.000000
vt 0.000000 0.000000
vt 0.000000 0.000000
vt 1.000000 1.000000
vt 1.000000 0.000000
vt 1.000000 0.000000
vt 0.000000 1.000000
vt 0.000000 0.000000
vt 0.000000 0.000000
vt 1.000000 1.000000
vt 1.000000 0.000000
vt 1.000000 0.000000
vt 1.000000 1.000000
vt 0.000000 1.000000
vt 0.000000 1.000000
vt 1.000000 1.000000
vt 0.000000 1.000000
vt 1.000000 1.000000
vt 1.000000 0.000000
vt 0.000000 0.000000
vt 0.000000 0.000000
vt 1.000000 0.000000
vt 0.000000 0.000000
vt 1.000000 0.000000
vt 1.000000 0.000000
vt 0.000000 0.000000
vt 1.000000 0.000000
vt 0.000000 0.000000
vt 1.000000 0.000000
vt 0.000000 0.000000
vt 1.000000 0.000000
vt 0.000000 0.000000
vt 1.000000 0.000000
vt 1.000000 0.000000
vt 1.000000 0.000000
vt 1.000000 0.000000
vt 1.000000 0.000000
vt 1.000000 0.000000
vt 1.000000 0.000000
vt 1.000000 0.000000
vt 1.000000 0.000000
vt 1.000000 0.000000
vt 1.000000 0.000000
vt 1.000000 0.000000
vt 1.000000 0.000000
vt 1.000000 0.000000
vt 1.000000 0.000000
vt 1.000000 0.000000
vt 1.000000 0.000000
vt 1.000000 0.000000
vt 0.500000 0.000000
vt 0.500000 1.000000
vt 0.500000 0.000000
vt 0.500000 1.000000
vt 0.500000 0.000000
vt 0.500000 0.000000
vt 0.500000 0.000000
vt 0.500000 0.000000
vt 0.500000 0.000000
vt 0.000000 0.000000
vt 1.000000 0.000000
vt 0.000000 0.000000
vt 1.000000 0.000000
vt 0.000000 0.000000
vt 1.000000 0.000000
vt 0.500000 0.000000
vt 1.000000 0.500000
vt 0.000000 0.500000
vt 0.000000 0.500000
vt 1.000000 0.500000
vt 0.000000 0.500000
vt 1.000000 0.500000
vt 0.500000 0.500000
vt 0.000000 0.000000
vt 0.000000 0.000000
vt 0.000000 0.500000
vt 0.000000 0.000000
vt 0.000000 0.000000
vt 0.000000 0.500000
vt 0.000000 0.000000
vt 0.000000 0.000000
vt 0.000000 0.500000
vt 0.000000 0.000000
vt 0.000000 0.000000
vt 0.000000 0.500000
vt 0.000000 0.000000
vt 0.000000 0.000000
vt 0.000000 0.500000
vt 0.000000 0.000000
vt 0.000000 0.000000
vt 0.000000 0.500000
vt 0.000000 0.000000
vt 0.000000 0.000000
vt 0.000000 0.500000
vt 0.000000 0.500000
vt 0.000000 0.500000
vt 0.000000 0.500000
vt 0.000000 0.500000
vt 0.000000 0.500000
vt 0.000000 0.500000
vt 0.000000 0.500000
vt 0.000000 0.500000
vt 0.000000 0.500000
vt 0.000000 0.500000
vt 0.000000 0.500000
vt 0.000000 0.500000
vt 0.000000 0.500000
vt 0.000000 0.500000
vt 0.000000 0.500000
vt 0.000000 0.500000
vt 0.000000 0.500000
vt 0.000000 0.500000
vt 0.000000 0.500000
vt 0.000000 0.500000
vt 0.000000 0.500000
vt 0.000000 0.500000
vt 0.000000 0.500000
vt 0.000000 0.500000
vt 0.000000 0.500000
vt 0.000000 0.500000
vt 0.000000 0.500000
vt 0.000000 0.500000
vt 0.000000 0.500000
vt 0.000000 0.500000
vt 0.000000 0.500000
vt 0.000000 0.500000
vt 0.000000 0.500000
vt 0.000000 0.500000
s 0
usemtl fish.001
f 73/73/1 58/58/1 79/79/1
f 66/66/1 59/59/1 72/72/1
f 4/4/1 68/68/1 66/66/1
f 2/2/1 75/75/1 74/74/1
f 5/5/1 69/69/1 67/67/1
f 3/3/1 76/76/1 73/73/1
f 8/8/1 70/70/1 68/68/1
f 7/7/1 77/77/1 75/75/1
f 12/12/1 71/71/1 69/69/1
f 11/11/1 78/78/1 76/76/1
f 10/10/1 19/19/1 1/1/1
f 1/1/1 60/60/1 58/58/1
f 7/7/1 23/23/1 13/13/1
f 16/16/1 22/22/1 10/10/1
f 2/2/1 21/21/1 7/7/1
f 5/5/1 28/28/1 12/12/1
f 9/9/1 26/26/1 6/6/1
f 6/6/1 61/61/1 59/59/1
f 12/12/1 30/30/1 18/18/1
f 15/15/1 27/27/1 9/9/1
f 26/26/1 62/62/1 61/61/1
f 62/62/1 34/34/1 63/63/1
f 34/34/1 64/64/1 63/63/1
f 36/36/1 65/65/1 64/64/1
f 37/37/2 40/40/2 35/35/2
f 35/35/3 39/39/4 33/33/5
f 40/40/6 44/44/6 43/43/6
f 39/39/7 43/43/8 42/42/9
f 44/44/10 46/46/10 43/43/10
f 43/43/11 45/45/12 42/42/13
f 47/47/14 49/49/14 46/46/14
f 46/46/15 48/48/16 45/45/17
f 50/50/18 52/52/18 49/49/18
f 49/49/19 51/51/20 48/48/21
f 53/53/22 55/55/22 52/52/22
f 52/52/23 54/54/24 51/51/25
f 64/64/1 37/37/1 35/35/1
f 63/63/1 35/35/1 33/33/1
f 31/31/1 63/63/1 33/33/1
f 61/61/1 31/31/1 25/25/1
f 59/59/1 25/25/1 5/5/1
f 58/58/1 20/20/1 2/2/1
f 72/72/1 5/5/1 67/67/1
f 79/79/1 2/2/1 74/74/1
f 57/57/1 67/67/1 3/3/1
f 69/69/1 17/17/1 11/11/1
f 68/68/1 15/15/1 9/9/1
f 67/67/1 11/11/1 3/3/1
f 66/66/1 9/9/1 6/6/1
f 4/4/1 72/72/1 57/57/1
f 57/57/1 74/74/1 4/4/1
f 76/76/1 16/16/1 10/10/1
f 75/75/1 14/14/1 8/8/1
f 73/73/1 10/10/1 1/1/1
f 74/74/1 8/8/1 4/4/1
f 3/3/1 79/79/1 57/57/1
f 14/14/1 81/81/1 70/70/1
f 77/77/1 80/80/1 14/14/1
f 80/80/1 84/84/1 81/81/1
f 82/82/1 83/83/1 80/80/1
f 83/83/1 87/87/1 84/84/1
f 85/85/1 86/86/1 83/83/1
f 86/86/1 90/90/1 87/87/1
f 88/88/1 89/89/1 86/86/1
f 89/89/1 93/93/1 90/90/1
f 91/91/1 92/92/1 89/89/1
f 93/93/26 95/95/26 96/96/26
f 92/92/26 97/97/26 95/95/26
f 95/95/1 99/99/1 96/96/1
f 97/97/1 98/98/1 95/95/1
f 73/73/1 1/1/1 58/58/1
f 66/66/1 6/6/1 59/59/1
f 4/4/1 8/8/1 68/68/1
f 2/2/1 7/7/1 75/75/1
f 5/5/1 12/12/1 69/69/1
f 3/3/1 11/11/1 76/76/1
f 8/8/1 14/14/1 70/70/1
f 7/7/1 13/13/1 77/77/1
f 12/12/1 18/18/1 71/71/1
f 11/11/1 17/17/1 78/78/1
f 10/10/1 22/22/1 19/19/1
f 1/1/1 19/19/1 60/60/1
f 7/7/1 21/21/1 23/23/1
f 16/16/1 24/24/1 22/22/1
f 2/2/1 20/20/1 21/21/1
f 5/5/1 25/25/1 28/28/1
f 9/9/1 27/27/1 26/26/1
f 6/6/1 26/26/1 61/61/1
f 12/12/1 28/28/1 30/30/1
f 15/15/1 29/29/1 27/27/1
f 26/26/1 32/32/1 62/62/1
f 62/62/1 32/32/1 34/34/1
f 34/34/1 36/36/1 64/64/1
f 36/36/1 38/38/1 65/65/1
f 37/37/2 41/41/27 40/40/2
f 35/35/28 40/40/29 39/39/30
f 40/40/6 41/41/6 44/44/6
f 39/39/31 40/40/32 43/43/33
f 44/44/10 47/47/10 46/46/10
f 43/43/34 46/46/35 45/45/36
f 47/47/14 50/50/14 49/49/14
f 46/46/37 49/49/38 48/48/39
f 50/50/18 53/53/18 52/52/18
f 49/49/40 52/52/41 51/51/42
f 53/53/43 56/56/43 55/55/43
f 52/52/44 55/55/45 54/54/46
f 64/64/1 65/65/1 37/37/1
f 63/63/1 64/64/1 35/35/1
f 31/31/1 62/62/1 63/63/1
f 61/61/1 62/62/1 31/31/1
f 59/59/1 61/61/1 25/25/1
f 58/58/1 60/60/1 20/20/1
f 72/72/1 59/59/1 5/5/1
f 79/79/1 58/58/1 2/2/1
f 57/57/1 72/72/1 67/67/1
f 69/69/1 71/71/1 17/17/1
f 68/68/1 70/70/1 15/15/1
f 67/67/1 69/69/1 11/11/1
f 66/66/1 68/68/1 9/9/1
f 4/4/1 66/66/1 72/72/1
f 57/57/1 79/79/1 74/74/1
f 76/76/1 78/78/1 16/16/1
f 75/75/1 77/77/1 14/14/1
f 73/73/1 76/76/1 10/10/1
f 74/74/1 75/75/1 8/8/1
f 3/3/1 73/73/1 79/79/1
f 14/14/1 80/80/1 81/81/1
f 77/77/1 82/82/1 80/80/1
f 80/80/1 83/83/1 84/84/1
f 82/82/1 85/85/1 83/83/1
f 83/83/1 86/86/1 87/87/1
f 85/85/1 88/88/1 86/86/1
f 86/86/1 89/89/1 90/90/1
f 88/88/1 91/91/1 89/89/1
f 89/89/1 92/92/1 93/93/1
f 91/91/1 94/94/1 92/92/1
f 93/93/26 92/92/26 95/95/26
f 92/92/26 94/94/26 97/97/26
f 95/95/1 98/98/1 99/99/1
f 97/97/1 100/100/1 98/98/1
f 88/88/1 102/102/1 91/91/1
f 91/91/1 103/103/1 94/94/1
f 97/97/26 103/103/26 104/104/26
f 97/97/1 105/105/1 100/100/1
f 104/104/47 108/108/47 109/109/47
f 101/101/48 107/107/48 102/102/48
f 104/104/48 110/110/48 105/105/48
f 102/102/48 108/108/48 103/103/48
f 122/122/26 113/113/26 114/114/26
f 123/123/1 112/112/1 124/124/1
f 122/122/1 115/115/1 125/125/1
f 124/124/1 113/113/1 121/121/1
f 114/114/26 118/118/26 119/119/26
f 111/111/1 117/117/1 112/112/1
f 114/114/1 120/120/1 115/115/1
f 112/112/1 118/118/1 113/113/1
f 107/107/1 121/121/1 108/108/1
f 109/109/1 125/125/1 110/110/1
f 106/106/1 124/124/1 107/107/1
f 109/109/26 121/121/26 122/122/26
f 115/115/49 128/128/49 125/125/49
f 120/120/49 126/126/49 115/115/49
f 126/126/50 131/131/50 128/128/50
f 127/127/50 129/129/50 126/126/50
f 129/129/1 134/134/1 131/131/1
f 130/130/1 132/132/1 129/129/1
f 88/88/1 101/101/1 102/102/1
f 91/91/1 102/102/1 103/103/1
f 97/97/26 94/94/26 103/103/26
f 97/97/1 104/104/1 105/105/1
f 104/104/47 103/103/47 108/108/47
f 101/101/48 106/106/48 107/107/48
f 104/104/48 109/109/48 110/110/48
f 102/102/48 107/107/48 108/108/48
f 122/122/26 121/121/26 113/113/26
f 123/123/1 111/111/1 112/112/1
f 122/122/1 114/114/1 115/115/1
f 124/124/1 112/112/1 113/113/1
f 114/114/26 113/113/26 118/118/26
f 111/111/1 116/116/1 117/117/1
f 114/114/1 119/119/1 120/120/1
f 112/112/1 117/117/1 118/118/1
f 107/107/1 124/124/1 121/121/1
f 109/109/1 122/122/1 125/125/1
f 106/106/1 123/123/1 124/124/1
f 109/109/26 108/108/26 121/121/26
f 115/115/49 126/126/49 128/128/49
f 120/120/49 127/127/49 126/126/49
f 126/126/50 129/129/50 131/131/50
f 127/127/50 130/130/50 129/129/50
f 129/129/1 132/132/1 134/134/1
f 130/130/1 133/133/1 132/132/1
