# Blender 3.3.1
# www.blender.org
mtllib ground.mtl
o Cube.001
v -11.226052 0.000000 11.226052
v 11.226052 0.000000 11.226052
v -11.226052 0.000000 -11.226052
v 11.226052 0.000000 -11.226052
v -11.226052 0.000000 0.000000
v 0.000000 0.000000 11.226052
v 11.226052 0.000000 0.000000
v 0.000000 0.000000 -11.226052
v -11.226052 0.000000 5.613026
v 5.613026 0.000000 11.226052
v 11.226052 0.000000 -5.613026
v -5.613026 0.000000 -11.226052
v -11.226052 0.000000 -5.613026
v -5.613026 0.000000 11.226052
v 11.226052 0.000000 5.613026
v 5.613026 0.000000 -11.226052
v 0.000000 0.000000 -5.613026
v 0.000000 0.000000 5.613026
v -5.613026 0.000000 0.000000
v 5.613026 0.000000 0.000000
v 5.613026 0.000000 5.613026
v -5.613026 0.000000 5.613026
v -5.613026 0.000000 -5.613026
v 5.613026 0.000000 -5.613026
v -11.226052 0.000000 8.419539
v 8.419539 0.000000 11.226052
v 11.226052 0.000000 -8.419539
v -8.419539 0.000000 -11.226052
v -11.226052 0.000000 -2.806513
v -2.806513 0.000000 11.226052
v 11.226052 0.000000 2.806513
v 2.806513 0.000000 -11.226052
v 0.000000 0.000000 -8.419539
v 0.000000 -0.000000 4.433291
v -8.419539 0.000000 0.000000
v 4.433291 0.000000 0.000000
v -11.226052 0.000000 2.806513
v 2.806513 0.000000 11.226052
v 11.226052 0.000000 -2.806513
v -2.806513 0.000000 -11.226052
v -11.226052 0.000000 -8.419539
v -8.419539 0.000000 11.226052
v 11.226052 0.000000 8.419539
v 8.419539 0.000000 -11.226052
v 0.000000 0.000000 -4.433291
v 0.000000 0.000000 8.419539
v -4.433291 0.000000 0.000000
v 8.419539 0.000000 0.000000
v 5.613026 0.000000 2.806513
v 5.613026 0.000000 8.419539
v 2.806513 0.000000 5.613026
v 8.419539 0.000000 5.613026
v -5.613026 0.000000 2.806513
v -5.613026 0.000000 8.419539
v -8.419539 0.000000 5.613026
v -2.806513 0.000000 5.613026
v -5.613026 0.000000 -8.419539
v -5.613026 0.000000 -2.806513
v -8.419539 0.000000 -5.613026
v -2.806513 0.000000 -5.613026
v 5.613026 0.000000 -8.419539
v 5.613026 0.000000 -2.806513
v 2.806513 0.000000 -5.613026
v 8.419539 0.000000 -5.613026
v 8.419539 0.000000 -2.806513
v 3.064608 0.000000 -3.064608
v 2.806513 0.000000 -8.419539
v -3.064608 0.000000 -3.064608
v -8.419539 0.000000 -2.806513
v -8.419539 0.000000 -8.419539
v -2.806513 0.000000 8.419539
v -8.419539 0.000000 8.419539
v -8.419539 0.000000 2.806513
v 8.419539 0.000000 8.419539
v 2.806513 0.000000 8.419539
v 3.064608 0.000000 3.064608
v 8.419539 0.000000 2.806513
v -3.064608 0.000000 3.064608
v -2.806513 0.000000 -8.419539
v 8.419539 0.000000 -8.419539
v 0.000000 -6.296447 3.753737
v 0.000000 -6.296447 0.000000
v 3.753737 -6.296447 0.000000
v 0.000000 -6.296447 -3.753737
v -3.753737 -6.296447 0.000000
v 2.594851 -6.296447 -2.594851
v -2.594851 -6.296447 -2.594851
v 2.594851 -6.296447 2.594851
v -2.594851 -6.296447 2.594851
v 2.806513 -0.359109 -2.806513
v 0.000000 -0.359109 -4.059928
v -4.059928 -0.359109 0.000000
v -2.806513 -0.359109 2.806513
v -2.806513 -0.359109 -2.806513
v 2.806513 -0.359109 2.806513
v 0.000000 -0.359109 4.059929
v 4.059928 -0.359109 0.000000
v 0.000000 -0.851017 -3.753737
v -2.594851 -0.851017 2.594852
v -2.594851 -0.851017 -2.594851
v 2.594851 -0.851017 2.594852
v 3.753737 -0.851017 0.000000
v 2.594851 -0.851017 -2.594851
v -3.753737 -0.851017 0.000000
v 0.000000 -0.851017 3.753737
v 0.000000 -5.000811 -3.753737
v -2.594851 -5.000810 2.594851
v -2.594851 -5.000811 -2.594851
v 2.594851 -5.000810 2.594851
v 3.753737 -5.000810 0.000000
v 2.594851 -5.000811 -2.594851
v -3.753737 -5.000810 0.000000
v 0.000000 -5.000810 3.753737
v 5.024766 -6.296447 8.035654
v 2.429914 -6.296447 9.194540
v 5.024766 -5.000811 8.035654
v 2.429914 -5.000811 9.194540
v 3.404823 -6.296447 4.408452
v 4.214795 -6.296447 6.222053
v 4.214795 -5.000811 6.222053
v 3.404823 -5.000810 4.408453
v 0.809972 -5.000811 5.567338
v 1.619943 -5.000811 7.380939
v 1.619943 -6.296447 7.380939
v 0.809971 -6.296447 5.567338
v -8.655836 -5.000810 9.794858
v -7.845865 -5.000810 11.608459
v -7.845865 -6.296447 11.608459
v -8.655836 -6.296447 9.794858
v 14.802562 -5.000811 3.668797
v 14.802562 -6.296448 3.668797
v 13.992590 -6.296448 1.855197
v 13.992590 -5.000811 1.855196
v 6.654399 -5.000811 7.307845
v 8.284032 -5.000811 6.580035
v 9.913664 -5.000811 5.852226
v 11.543297 -5.000811 5.124416
v 13.172930 -5.000811 4.396607
v 13.172929 -6.296448 4.396606
v 11.543296 -6.296448 5.124416
v 9.913664 -6.296448 5.852225
v 8.284031 -6.296448 6.580035
v 6.654398 -6.296447 7.307844
v 5.844427 -6.296447 5.494244
v 7.474060 -6.296447 4.766434
v 9.103692 -6.296447 4.038625
v 10.733325 -6.296447 3.310816
v 12.362957 -6.296448 2.583006
v 12.362957 -5.000811 2.583006
v 10.733324 -5.000811 3.310815
v 9.103692 -5.000811 4.038625
v 7.474060 -5.000811 4.766434
v 5.844427 -5.000811 5.494244
v 11.407816 -5.000812 13.574474
v 13.037447 -5.000812 12.846665
v 13.037447 -6.296449 12.846665
v 11.407814 -6.296449 13.574474
vn -0.0000 1.0000 -0.0000
vn -0.4078 -0.0000 -0.9131
vn 0.4078 -0.0000 0.9131
vn -0.4078 -0.0000 0.9131
vn 0.9131 -0.0000 -0.4078
vn 0.9131 -0.0000 0.4078
vn 0.4078 -0.0000 -0.9131
vn -0.9131 -0.0000 -0.4078
vn -0.9131 -0.0000 0.4078
vn -0.6622 0.6885 0.2957
vn -0.6622 0.6885 -0.2957
vn 0.2957 0.6885 -0.6622
vn 0.6622 0.6885 0.2957
vn 0.6622 0.6885 -0.2957
vn -0.2957 0.6885 0.6622
vn 0.2957 0.6885 0.6622
vn -0.2957 0.6885 -0.6622
vn -0.7938 0.4941 0.3545
vn -0.7938 0.4941 -0.3545
vn 0.3545 0.4941 -0.7938
vn 0.7938 0.4941 0.3545
vn 0.7938 0.4941 -0.3545
vn -0.3545 0.4941 0.7938
vn 0.3545 0.4941 0.7938
vn -0.3545 0.4941 -0.7938
vn -0.0000 -1.0000 -0.0000
vt 0.000000 0.000000
vt 1.000000 0.000000
vt 0.000000 1.000000
vt 1.000000 1.000000
vt 0.000000 0.500000
vt 0.500000 0.000000
vt 1.000000 0.500000
vt 0.500000 1.000000
vt 0.000000 0.250000
vt 0.750000 0.000000
vt 1.000000 0.750000
vt 0.250000 1.000000
vt 0.000000 0.750000
vt 0.250000 0.000000
vt 1.000000 0.250000
vt 0.750000 1.000000
vt 0.500000 0.750000
vt 0.500000 0.250000
vt 0.250000 0.500000
vt 0.750000 0.500000
vt 0.750000 0.250000
vt 0.250000 0.250000
vt 0.250000 0.750000
vt 0.750000 0.750000
vt 0.000000 0.125000
vt 0.875000 0.000000
vt 1.000000 0.875000
vt 0.125000 1.000000
vt 0.000000 0.625000
vt 0.375000 0.000000
vt 1.000000 0.375000
vt 0.625000 1.000000
vt 0.500000 0.875000
vt 0.500000 0.375000
vt 0.125000 0.500000
vt 0.625000 0.500000
vt 0.000000 0.375000
vt 0.625000 0.000000
vt 1.000000 0.625000
vt 0.375000 1.000000
vt 0.000000 0.875000
vt 0.125000 0.000000
vt 1.000000 0.125000
vt 0.875000 1.000000
vt 0.500000 0.625000
vt 0.500000 0.125000
vt 0.375000 0.500000
vt 0.875000 0.500000
vt 0.750000 0.375000
vt 0.750000 0.125000
vt 0.625000 0.250000
vt 0.875000 0.250000
vt 0.250000 0.375000
vt 0.250000 0.125000
vt 0.125000 0.250000
vt 0.375000 0.250000
vt 0.250000 0.875000
vt 0.250000 0.625000
vt 0.125000 0.750000
vt 0.375000 0.750000
vt 0.750000 0.875000
vt 0.750000 0.625000
vt 0.625000 0.750000
vt 0.875000 0.750000
vt 0.875000 0.625000
vt 0.625000 0.625000
vt 0.625000 0.875000
vt 0.375000 0.625000
vt 0.125000 0.625000
vt 0.125000 0.875000
vt 0.375000 0.125000
vt 0.125000 0.125000
vt 0.125000 0.375000
vt 0.875000 0.125000
vt 0.625000 0.125000
vt 0.625000 0.375000
vt 0.875000 0.375000
vt 0.375000 0.375000
vt 0.375000 0.875000
vt 0.875000 0.875000
vt 0.500000 0.375000
vt 0.328407 0.441043
vt 0.500000 0.500000
vt 0.625000 0.500000
vt 0.500000 0.625000
vt 0.375000 0.500000
vt 0.625000 0.625000
vt 0.375000 0.625000
vt 0.625000 0.375000
vt 0.348087 0.487673
vt 0.375000 0.375000
vt 0.625000 0.625000
vt 0.500000 0.625000
vt 0.375000 0.500000
vt 0.375000 0.375000
vt 0.375000 0.625000
vt 0.625000 0.375000
vt 0.500000 0.375000
vt 0.625000 0.500000
vt 0.500000 0.625000
vt 0.375000 0.375000
vt 0.375000 0.625000
vt 0.625000 0.375000
vt 0.625000 0.500000
vt 0.625000 0.625000
vt 0.375000 0.500000
vt 0.500000 0.375000
vt 0.500000 0.625000
vt 0.375000 0.375000
vt 0.375000 0.625000
vt 0.625000 0.375000
vt 0.324660 0.516545
vt 0.625000 0.500000
vt 0.625000 0.625000
vt 0.375000 0.500000
vt 0.500000 0.375000
vt 0.305549 0.454998
vt 0.949112 0.848250
vt 0.693924 0.413546
vt 0.949112 0.959870
vt 0.949111 0.589184
vt 0.673568 0.523293
vt 0.270257 0.538553
vt 0.898223 0.848250
vt 0.898223 0.959870
vt 1.000000 0.589184
vt 0.249901 0.428805
vt 0.847335 0.442000
vt 0.621496 0.942794
vt 0.898223 0.905792
vt 0.770629 0.427773
vt 0.898223 0.983806
vt 0.847335 0.420600
vt 0.898223 0.420600
vt 0.847335 0.983806
vt 0.346962 0.524325
vt 0.847335 0.905792
vt 0.423668 0.510098
vt 0.000000 1.000000
vt 0.403312 0.400351
vt 0.049771 0.024500
vt 0.847335 0.827779
vt 0.949112 0.407179
vt 1.000000 0.511171
vt 0.326606 0.414578
vt 0.949111 0.511171
vt 0.750273 0.537521
vt 0.898223 0.407179
vt 0.898223 0.827779
vt 0.621496 0.000000
vt 0.826979 0.551748
vt 0.847335 0.420600
vt 0.949112 0.667198
vt 0.329054 0.000000
vt 0.949112 0.589185
vt 0.949112 0.000000
vt 0.252349 0.014227
vt 1.000000 0.589185
vt 0.898223 0.000000
vt 0.676016 0.937872
vt 1.000000 0.667198
vt 0.898223 0.420600
vt 0.752721 0.952099
vt 0.346962 0.952099
vt 1.000000 0.511171
vt 0.898223 0.827779
vt 0.949112 0.511171
vt 0.847335 0.827779
vt 0.770629 0.000000
vt 0.847335 0.905792
vt 0.847335 0.000000
vt 0.847335 0.014228
vt 0.898223 0.905792
vt 0.898223 0.000000
vt 0.423668 0.937872
vt 0.283041 0.607477
vt 0.898223 0.778150
vt 0.898223 0.708050
vt 0.295826 0.676402
vt 0.949112 0.407179
vt 0.949111 0.000000
vt 1.000000 0.300871
vt 0.308610 0.745326
vt 0.321394 0.814251
vt 1.000000 0.370971
vt 0.334178 0.883175
vt 1.000000 0.441072
vt 0.757845 0.068924
vt 0.949112 0.441071
vt 0.745061 0.137849
vt 0.949112 0.370971
vt 0.949112 0.300871
vt 1.000000 0.000000
vt 0.732277 0.206773
vt 0.898223 0.407179
vt 0.949112 0.708050
vt 0.719493 0.275698
vt 0.706708 0.344622
vt 0.949112 0.778150
vt 0.783414 0.358849
vt 0.847335 0.350499
vt 0.796198 0.289925
vt 0.847335 0.280399
vt 0.808982 0.221001
vt 0.847335 0.210299
vt 0.821766 0.152076
vt 0.847335 0.140200
vt 0.834550 0.083152
vt 0.847335 0.070100
vt 0.410883 0.868947
vt 0.898223 0.070100
vt 0.398099 0.800023
vt 0.898223 0.140200
vt 0.898223 0.210299
vt 0.385315 0.731099
vt 0.372531 0.662174
vt 0.898223 0.280399
vt 0.359747 0.593250
vt 0.898223 0.350500
vt 0.000000 0.731272
vt 0.949111 0.737298
vt 0.949112 0.708050
vt 0.949111 0.300871
vt 0.949111 0.667198
vt 0.012784 0.800197
vt 0.436451 0.151903
vt 1.000000 0.300871
vt 1.000000 0.667198
vt 1.000000 0.737298
vt 0.898223 0.708050
vt 0.423667 0.220827
s 0
usemtl Material.002
f 27/27/1 44/44/1 80/80/1
f 33/33/1 40/40/1 79/79/1
f 138/187/2 131/167/2 139/189/2
f 31/31/1 48/48/1 77/77/1
f 49/49/1 36/36/1 76/76/1
f 50/50/1 51/51/1 75/75/1
f 43/43/1 52/52/1 74/74/1
f 53/53/1 35/35/1 73/73/1
f 54/54/1 55/55/1 72/72/1
f 46/46/1 56/56/1 71/71/1
f 57/57/1 28/28/1 70/70/1
f 58/58/1 59/59/1 69/69/1
f 45/45/1 60/60/1 68/68/1
f 61/61/1 32/32/1 67/67/1
f 66/66/1 24/24/1 63/63/1
f 39/39/1 64/64/1 65/65/1
f 65/65/1 24/24/1 62/62/1
f 48/48/1 62/62/1 20/20/1
f 7/7/1 65/65/1 48/48/1
f 45/45/1 63/63/1 17/17/1
f 108/110/3 84/85/3 106/108/3
f 36/36/1 62/62/1 66/66/1
f 67/67/1 8/8/1 33/33/1
f 63/63/1 33/33/1 17/17/1
f 24/24/1 67/67/1 63/63/1
f 68/68/1 23/23/1 58/58/1
f 47/47/1 58/58/1 19/19/1
f 106/108/4 86/87/4 111/114/4
f 69/69/1 13/13/1 29/29/1
f 35/35/1 29/29/1 5/5/1
f 19/19/1 69/69/1 35/35/1
f 70/70/1 3/3/1 41/41/1
f 59/59/1 41/41/1 13/13/1
f 23/23/1 70/70/1 59/59/1
f 71/71/1 22/22/1 54/54/1
f 30/30/1 54/54/1 14/14/1
f 6/6/1 71/71/1 30/30/1
f 72/72/1 9/9/1 25/25/1
f 42/42/1 25/25/1 1/1/1
f 14/14/1 72/72/1 42/42/1
f 73/73/1 5/5/1 37/37/1
f 55/55/1 37/37/1 9/9/1
f 22/22/1 73/73/1 55/55/1
f 74/74/1 21/21/1 50/50/1
f 26/26/1 50/50/1 10/10/1
f 2/2/1 74/74/1 26/26/1
f 75/75/1 18/18/1 46/46/1
f 38/38/1 46/46/1 6/6/1
f 10/10/1 75/75/1 38/38/1
f 107/109/5 85/86/5 112/115/5
f 51/51/1 34/34/1 18/18/1
f 21/21/1 76/76/1 51/51/1
f 77/77/1 20/20/1 49/49/1
f 52/52/1 49/49/1 21/21/1
f 15/15/1 77/77/1 52/52/1
f 53/53/1 47/47/1 19/19/1
f 22/22/1 78/78/1 53/53/1
f 56/56/1 34/34/1 78/78/1
f 79/79/1 12/12/1 57/57/1
f 60/60/1 57/57/1 23/23/1
f 17/17/1 79/79/1 60/60/1
f 80/80/1 16/16/1 61/61/1
f 64/64/1 61/61/1 24/24/1
f 11/11/1 80/80/1 64/64/1
f 89/91/1 82/83/1 85/86/1
f 82/83/1 86/87/1 84/85/1
f 82/83/1 87/88/1 85/86/1
f 88/89/1 82/83/1 81/81/1
f 112/115/6 87/88/6 108/110/6
f 113/116/7 89/91/7 107/109/7
f 110/113/8 88/89/8 109/111/8
f 111/114/9 83/84/9 110/113/9
f 66/66/10 97/99/10 36/36/10
f 76/76/11 97/99/11 95/97/11
f 78/78/12 96/98/12 93/95/12
f 68/68/13 92/94/13 94/96/13
f 78/78/14 92/94/14 47/47/14
f 66/66/15 91/93/15 90/92/15
f 68/68/16 91/93/16 45/45/16
f 76/76/17 96/98/17 34/34/17
f 90/92/18 102/104/18 97/99/18
f 95/97/19 102/104/19 101/103/19
f 93/95/20 105/107/20 99/101/20
f 94/96/21 104/106/21 100/102/21
f 93/95/22 104/106/22 92/94/22
f 90/92/23 98/100/23 103/105/23
f 94/96/24 98/100/24 91/93/24
f 95/97/25 105/107/25 96/98/25
f 103/105/9 110/113/9 102/104/9
f 101/103/8 110/113/8 109/111/8
f 99/101/7 113/116/7 107/109/7
f 100/102/6 112/115/6 108/110/6
f 99/101/5 112/115/5 104/106/5
f 98/100/4 111/114/4 103/105/4
f 100/102/3 106/108/3 98/100/3
f 101/103/2 113/116/2 105/107/2
f 116/124/2 115/120/2 117/125/2
f 123/144/5 115/121/5 124/146/5
f 124/147/1 114/119/1 119/131/1
f 120/136/26 117/127/26 123/145/26
f 109/112/26 122/141/26 113/117/26
f 121/138/26 123/145/26 122/140/26
f 81/82/1 118/129/1 88/90/1
f 118/128/1 124/147/1 119/131/1
f 113/117/5 125/150/5 81/82/5
f 122/142/3 129/162/3 125/149/3
f 88/90/9 121/139/9 109/112/9
f 118/130/9 120/135/9 121/137/9
f 126/153/5 128/158/5 129/161/5
f 124/148/2 127/156/2 123/143/2
f 125/151/1 128/160/1 124/147/1
f 123/145/26 126/154/26 122/140/26
f 132/170/9 130/166/9 133/173/9
f 148/209/3 133/174/3 149/211/3
f 138/186/26 133/175/26 130/164/26
f 139/188/1 132/172/1 148/208/1
f 114/119/1 144/200/1 119/131/1
f 143/198/1 145/202/1 144/200/1
f 142/197/1 146/204/1 145/202/1
f 141/194/1 147/206/1 146/204/1
f 140/190/1 148/208/1 147/206/1
f 120/136/26 134/176/26 116/123/26
f 153/218/26 135/179/26 134/176/26
f 152/216/26 136/183/26 135/179/26
f 136/183/26 150/212/26 137/184/26
f 137/184/26 149/210/26 138/186/26
f 119/133/3 153/219/3 120/134/3
f 144/201/3 152/217/3 153/219/3
f 152/217/3 146/205/3 151/214/3
f 146/205/3 150/213/3 151/214/3
f 147/207/3 149/211/3 150/213/3
f 116/124/2 143/199/2 114/118/2
f 134/177/2 142/196/2 143/199/2
f 141/193/9 155/223/9 136/181/9
f 136/182/2 140/191/2 141/192/2
f 137/185/2 139/189/2 140/191/2
f 154/221/2 156/228/2 157/229/2
f 135/179/26 155/225/26 154/220/26
f 135/180/5 157/230/5 142/195/5
f 141/194/1 157/231/1 156/226/1
f 27/27/1 4/4/1 44/44/1
f 33/33/1 8/8/1 40/40/1
f 138/187/2 130/165/2 131/167/2
f 31/31/1 7/7/1 48/48/1
f 49/49/1 20/20/1 36/36/1
f 50/50/1 21/21/1 51/51/1
f 43/43/1 15/15/1 52/52/1
f 53/53/1 19/19/1 35/35/1
f 54/54/1 22/22/1 55/55/1
f 46/46/1 18/18/1 56/56/1
f 57/57/1 12/12/1 28/28/1
f 58/58/1 23/23/1 59/59/1
f 45/45/1 17/17/1 60/60/1
f 61/61/1 16/16/1 32/32/1
f 66/66/1 62/62/1 24/24/1
f 39/39/1 11/11/1 64/64/1
f 65/65/1 64/64/1 24/24/1
f 48/48/1 65/65/1 62/62/1
f 7/7/1 39/39/1 65/65/1
f 45/45/1 66/66/1 63/63/1
f 108/110/3 87/88/3 84/85/3
f 36/36/1 20/20/1 62/62/1
f 67/67/1 32/32/1 8/8/1
f 63/63/1 67/67/1 33/33/1
f 24/24/1 61/61/1 67/67/1
f 68/68/1 60/60/1 23/23/1
f 47/47/1 68/68/1 58/58/1
f 106/108/4 84/85/4 86/87/4
f 69/69/1 59/59/1 13/13/1
f 35/35/1 69/69/1 29/29/1
f 19/19/1 58/58/1 69/69/1
f 70/70/1 28/28/1 3/3/1
f 59/59/1 70/70/1 41/41/1
f 23/23/1 57/57/1 70/70/1
f 71/71/1 56/56/1 22/22/1
f 30/30/1 71/71/1 54/54/1
f 6/6/1 46/46/1 71/71/1
f 72/72/1 55/55/1 9/9/1
f 42/42/1 72/72/1 25/25/1
f 14/14/1 54/54/1 72/72/1
f 73/73/1 35/35/1 5/5/1
f 55/55/1 73/73/1 37/37/1
f 22/22/1 53/53/1 73/73/1
f 74/74/1 52/52/1 21/21/1
f 26/26/1 74/74/1 50/50/1
f 2/2/1 43/43/1 74/74/1
f 75/75/1 51/51/1 18/18/1
f 38/38/1 75/75/1 46/46/1
f 10/10/1 50/50/1 75/75/1
f 107/109/5 89/91/5 85/86/5
f 51/51/1 76/76/1 34/34/1
f 21/21/1 49/49/1 76/76/1
f 77/77/1 48/48/1 20/20/1
f 52/52/1 77/77/1 49/49/1
f 15/15/1 31/31/1 77/77/1
f 53/53/1 78/78/1 47/47/1
f 22/22/1 56/56/1 78/78/1
f 56/56/1 18/18/1 34/34/1
f 79/79/1 40/40/1 12/12/1
f 60/60/1 79/79/1 57/57/1
f 17/17/1 33/33/1 79/79/1
f 80/80/1 44/44/1 16/16/1
f 64/64/1 80/80/1 61/61/1
f 11/11/1 27/27/1 80/80/1
f 89/91/1 81/81/1 82/83/1
f 82/83/1 83/84/1 86/87/1
f 82/83/1 84/85/1 87/88/1
f 88/89/1 83/84/1 82/83/1
f 112/115/6 85/86/6 87/88/6
f 113/116/7 81/81/7 89/91/7
f 110/113/8 83/84/8 88/89/8
f 111/114/9 86/87/9 83/84/9
f 66/66/10 90/92/10 97/99/10
f 76/76/11 36/36/11 97/99/11
f 78/78/12 34/34/12 96/98/12
f 68/68/13 47/47/13 92/94/13
f 78/78/14 93/95/14 92/94/14
f 66/66/15 45/45/15 91/93/15
f 68/68/16 94/96/16 91/93/16
f 76/76/17 95/97/17 96/98/17
f 90/92/18 103/105/18 102/104/18
f 95/97/19 97/99/19 102/104/19
f 93/95/20 96/98/20 105/107/20
f 94/96/21 92/94/21 104/106/21
f 93/95/22 99/101/22 104/106/22
f 90/92/23 91/93/23 98/100/23
f 94/96/24 100/102/24 98/100/24
f 95/97/25 101/103/25 105/107/25
f 103/105/9 111/114/9 110/113/9
f 101/103/8 102/104/8 110/113/8
f 99/101/7 105/107/7 113/116/7
f 100/102/6 104/106/6 112/115/6
f 99/101/5 107/109/5 112/115/5
f 98/100/4 106/108/4 111/114/4
f 100/102/3 108/110/3 106/108/3
f 101/103/2 109/111/2 113/116/2
f 116/124/2 114/118/2 115/120/2
f 123/144/5 117/126/5 115/121/5
f 124/147/1 115/122/1 114/119/1
f 120/136/26 116/123/26 117/127/26
f 109/112/26 121/139/26 122/141/26
f 121/138/26 120/136/26 123/145/26
f 81/82/1 125/150/1 118/129/1
f 118/128/1 125/151/1 124/147/1
f 113/117/5 122/141/5 125/150/5
f 122/142/3 126/152/3 129/162/3
f 88/90/9 118/129/9 121/139/9
f 118/130/9 119/132/9 120/135/9
f 126/153/5 127/155/5 128/158/5
f 124/148/2 128/159/2 127/156/2
f 125/151/1 129/163/1 128/160/1
f 123/145/26 127/157/26 126/154/26
f 132/170/9 131/168/9 130/166/9
f 148/209/3 132/171/3 133/174/3
f 138/186/26 149/210/26 133/175/26
f 139/188/1 131/169/1 132/172/1
f 114/119/1 143/198/1 144/200/1
f 143/198/1 142/197/1 145/202/1
f 142/197/1 141/194/1 146/204/1
f 141/194/1 140/190/1 147/206/1
f 140/190/1 139/188/1 148/208/1
f 120/136/26 153/218/26 134/176/26
f 153/218/26 152/216/26 135/179/26
f 152/216/26 151/215/26 136/183/26
f 136/183/26 151/215/26 150/212/26
f 137/184/26 150/212/26 149/210/26
f 119/133/3 144/201/3 153/219/3
f 144/201/3 145/203/3 152/217/3
f 152/217/3 145/203/3 146/205/3
f 146/205/3 147/207/3 150/213/3
f 147/207/3 148/209/3 149/211/3
f 116/124/2 134/177/2 143/199/2
f 134/177/2 135/178/2 142/196/2
f 141/193/9 156/227/9 155/223/9
f 136/182/2 137/185/2 140/191/2
f 137/185/2 138/187/2 139/189/2
f 154/221/2 155/224/2 156/228/2
f 135/179/26 136/183/26 155/225/26
f 135/180/5 154/222/5 157/230/5
f 141/194/1 142/197/1 157/231/1
