# Blender 3.4.1
# www.blender.org
o navigation
v -16.669647 -4.118846 -50.000000
v 15.308210 -4.118847 -50.000000
v 15.308210 -4.118847 -95.238647
v -16.669647 -4.118846 -95.238647
v -4.120324 -4.118847 -141.304169
v -26.751736 -4.118847 -118.621384
v -50.121208 -4.118847 -160.396729
v -50.079235 -4.118847 -128.263672
v -156.314270 15.912344 -160.396729
v -156.272308 15.912344 -128.263672
v -14.332250 -4.118847 -50.000000
v -14.333443 -4.118847 -95.238647
v -25.116776 -4.118847 -120.260056
v -50.087444 -4.118847 -130.479385
v -156.280518 15.912344 -130.479706
v 13.270289 -4.118847 -50.000000
v 13.271279 -4.118847 -95.238647
v -5.667844 -4.118847 -139.753143
v -50.113003 -4.118847 -157.921127
v -156.306061 15.912342 -157.920746
v -16.669647 -4.118846 2.174904
v 15.308210 -4.118847 0.000000
v -14.332056 -4.118847 2.174904
v 13.270129 -4.118847 0.000000
v -14.332030 -4.118847 3.081048
v -16.669647 -4.118846 3.081048
v 15.308210 -4.118847 6.537523
v 13.270108 -4.118847 6.537523
v 14.289159 -4.118847 6.537523
v 14.289097 -4.118847 43.806461
v -15.500949 -4.118847 -50.000000
v 14.289170 -4.118847 0.000000
v 14.289104 -4.118847 42.271988
v -156.310165 15.912343 -159.158722
v -50.117104 -4.118847 -159.158920
v -4.894084 -4.118847 -140.528656
v 14.289744 -4.118847 -95.238647
v 14.289249 -4.118847 -50.000000
v -15.500764 -4.118847 43.806461
v -15.500772 -4.118847 42.271988
v -14.331889 -4.118847 43.039227
v 13.269991 -4.118847 43.039227
v 15.308210 -4.118847 43.039227
v -16.669647 -4.118846 43.039227
v 14.289101 -4.118847 43.039227
v -15.500769 -4.118847 43.039227
v -15.500839 -4.118847 3.081048
v -15.500852 -4.118847 2.174904
v -156.276413 15.912344 -129.371689
v -50.083340 -4.118847 -129.371521
v -25.934256 -4.118847 -119.440720
v -15.501545 -4.118847 -95.238647
v -14.331898 -4.118847 42.271992
v -16.669647 -4.118846 42.271988
v 15.308210 -4.118847 42.271988
v 13.269999 -4.118847 42.271988
v -14.331880 -4.118847 43.806461
v -16.669647 -4.118846 43.806461
v 15.308210 -4.118847 43.806461
v 13.269984 -4.118847 43.806461
v -0.530949 -4.118847 43.039227
v -0.530950 -4.118847 42.271988
v -0.530948 -4.118847 43.806461
v -16.669647 -4.118846 3.935207
v -15.500837 -4.118847 3.935207
v -14.332027 -4.118847 3.935207
v -22.931755 -4.118846 2.174904
v -22.931755 -4.118846 3.081048
v -22.931755 -4.118846 3.935207
v -23.735878 -4.118846 2.174904
v -23.735878 -4.118846 3.081048
v -23.735878 -4.118846 3.935207
v -24.540001 -4.118846 2.174904
v -24.540001 -4.118846 3.081048
v -24.540001 -4.118846 3.935207
v -22.931755 -4.118846 -11.078047
v -23.735878 -4.118846 -11.078047
v -24.540001 -4.118846 -11.078047
v -22.931755 -4.118846 -11.932427
v -23.735878 -4.118846 -11.932427
v -24.540001 -4.118846 -11.932427
v -22.931755 -4.118846 -12.837066
v -23.735878 -4.118846 -12.837066
v -24.540001 -4.118846 -12.837066
v -38.762924 -4.118846 -11.078047
v -38.762924 -4.118846 -11.932427
v -38.762924 -4.118846 -12.837066
v -50.940361 -4.118846 -11.078047
v -50.940361 -4.118846 -11.932427
v -50.940361 -4.118846 -12.837066
v -64.911995 -4.118846 -11.078047
v -64.911995 -4.118846 -11.932427
v -64.911995 -4.118846 -12.837066
v -38.762924 -4.118846 -3.544421
v -50.940361 -4.118846 -3.544421
v -64.911995 -4.118846 -3.544421
v -38.762924 -4.118846 4.436499
v -50.940361 -4.118846 4.436499
v -64.911995 -4.118846 4.436499
v -16.669647 -4.118846 -23.912548
v -14.332153 -4.118847 -23.912548
v -15.500900 -4.118847 -23.912548
v -16.669647 -4.118846 -72.619324
v -14.332846 -4.118847 -72.619324
v -15.501247 -4.118847 -72.619324
v -16.669647 -4.118846 -36.956276
v -14.332201 -4.118847 -36.956276
v -15.500925 -4.118847 -36.956276
v -14.332548 -4.118847 -61.309662
v -16.669647 -4.118846 -61.309662
v -15.501099 -4.118847 -61.309662
v -16.669647 -4.118846 -83.928986
v -15.501396 -4.118847 -83.928986
v -14.333144 -4.118847 -83.928986
v -14.332105 -4.118847 -10.868822
v -15.500875 -4.118847 -10.868822
v -16.669647 -4.118846 -10.868822
v -15.500824 -4.118847 11.602564
v -15.500811 -4.118847 19.269920
v -15.500798 -4.118847 26.937277
v -15.500786 -4.118847 34.604633
v -14.332002 -4.118847 11.602564
v -14.331976 -4.118847 19.269920
v -14.331950 -4.118847 26.937279
v -14.331924 -4.118847 34.604637
v -16.669647 -4.118846 34.604633
v -16.669647 -4.118846 26.937277
v -16.669647 -4.118846 19.269920
v -16.669647 -4.118846 11.602564
v -7.431419 -4.118847 43.039227
v -7.431424 -4.118847 42.271988
v -7.431414 -4.118847 43.806461
v 6.369521 -4.118847 43.039227
v 6.369524 -4.118847 42.271988
v 6.369518 -4.118847 43.806461
v -23.735878 -4.118846 -4.451571
v -24.540001 -4.118846 -4.451571
v -22.931755 -4.118846 -4.451571
v -31.651463 -4.118846 -12.837066
v -31.651463 -4.118846 -11.932427
v -31.651463 -4.118846 -11.078047
v -44.851643 -4.118846 -12.837066
v -44.851643 -4.118846 -11.932427
v -44.851643 -4.118846 -11.078047
v -44.851643 -4.118846 -3.544421
v -44.851643 -4.118846 4.436499
v -57.926178 -4.118846 -12.837066
v -57.926178 -4.118846 -11.932427
v -57.926178 -4.118846 -11.078047
v -57.926178 -4.118846 -3.544421
v -57.926178 -4.118846 4.436499
v 15.308210 -4.118847 -12.500000
v 15.308210 -4.118847 -25.000000
v 15.308210 -4.118847 -37.500000
v 13.270169 -4.118847 -12.500000
v 13.270209 -4.118847 -25.000000
v 13.270249 -4.118847 -37.500000
v 14.289190 -4.118847 -12.500000
v 14.289210 -4.118847 -25.000000
v 14.289230 -4.118847 -37.500000
v 15.308210 -4.118847 33.338371
v 15.308210 -4.118847 24.404755
v 15.308210 -4.118847 15.471139
v 13.270026 -4.118847 33.338371
v 13.270054 -4.118847 24.404755
v 13.270081 -4.118847 15.471139
v 14.289118 -4.118847 33.338371
v 14.289131 -4.118847 24.404755
v 14.289145 -4.118847 15.471139
v 15.308210 -4.118847 -72.619324
v 13.270784 -4.118847 -72.619324
v 14.289497 -4.118847 -72.619324
v 15.308210 -4.118847 -61.309662
v 13.270536 -4.118847 -61.309662
v 14.289373 -4.118847 -61.309662
v 13.271032 -4.118847 -83.928986
v 14.289621 -4.118847 -83.928986
v 15.308210 -4.118847 -83.928986
vn -0.0000 1.0000 -0.0000
vn 0.1854 0.9827 -0.0006
vn 0.1854 0.9827 -0.0007
vt 0.840843 0.816132
vt 0.804611 0.382935
vt 0.749336 0.315079
vt 0.792274 0.743332
vt 0.721222 0.218582
vt 0.784111 0.698441
vt 0.768791 0.130692
vt 0.809311 0.660995
vt 0.929016 0.000351
vt 0.981205 0.546478
vt 0.829212 0.823898
vt 0.780647 0.751083
vt 0.770393 0.695694
vt 0.801556 0.649338
vt 0.973446 0.534821
vt 0.815453 0.374100
vt 0.760178 0.306259
vt 0.735138 0.220032
vt 0.777618 0.141556
vt 0.937843 0.011215
vt 0.894527 0.896606
vt 0.865700 0.457932
vt 0.882896 0.904373
vt 0.876549 0.449097
vt 0.889915 0.914886
vt 0.901546 0.907120
vt 0.873688 0.467743
vt 0.884537 0.458908
vt 0.879112 0.463326
vt 0.926547 0.521551
vt 0.835028 0.820015
vt 0.871124 0.453514
vt 0.920877 0.514591
vt 0.933430 0.005783
vt 0.773205 0.136124
vt 0.728180 0.219307
vt 0.754757 0.310669
vt 0.810032 0.378517
vt 0.937412 0.973481
vt 0.932430 0.966013
vt 0.929104 0.973630
vt 0.000000 0.000000
vt 0.929133 0.513654
vt 0.000000 0.000000
vt 0.918290 0.522489
vt 0.940738 0.965864
vt 0.923712 0.518071
vt 0.934921 0.969747
vt 0.895731 0.911003
vt 0.888712 0.900490
vt 0.977325 0.540649
vt 0.805433 0.655167
vt 0.777252 0.697067
vt 0.786461 0.747208
vt 0.926613 0.969896
vt 0.000000 0.000000
vt 0.938247 0.962130
vt 0.915455 0.519009
vt 0.926298 0.510174
vt 0.000000 0.000000
vt 0.931595 0.977365
vt 0.000000 0.000000
vt 0.943229 0.969598
vt 0.921126 0.525969
vt 0.931968 0.517134
vt 0.000000 0.000000
vt 0.000000 0.000000
vt 0.000000 0.000000
vt 0.000000 0.000000
vt 0.902361 0.908341
vt 0.896545 0.912224
vt 0.890730 0.916107
vt 0.894527 0.896606
vt 0.901546 0.907120
vt 0.902361 0.908341
vt 0.894527 0.896606
vt 0.901546 0.907120
vt 0.902361 0.908341
vt 0.894527 0.896606
vt 0.901546 0.907120
vt 0.902361 0.908341
vt 0.894527 0.896606
vt 0.894527 0.896606
vt 0.894527 0.896606
vt 0.894527 0.896606
vt 0.894527 0.896606
vt 0.894527 0.896606
vt 0.894527 0.896606
vt 0.894527 0.896606
vt 0.894527 0.896606
vt 0.894527 0.896606
vt 0.894527 0.896606
vt 0.894527 0.896606
vt 0.894527 0.896606
vt 0.894527 0.896606
vt 0.894527 0.896606
vt 0.894527 0.896606
vt 0.894527 0.896606
vt 0.894527 0.896606
vt 0.894527 0.896606
vt 0.894527 0.896606
vt 0.894527 0.896606
vt 0.894527 0.896606
vt 0.894527 0.896606
vt 0.894527 0.896606
vt 0.867685 0.856369
vt 0.856054 0.864136
vt 0.861870 0.860252
vt 0.816559 0.779732
vt 0.804930 0.787491
vt 0.810744 0.783611
vt 0.854264 0.836250
vt 0.842633 0.844017
vt 0.848449 0.840134
vt 0.817071 0.805695
vt 0.828701 0.797932
vt 0.822886 0.801813
vt 0.804417 0.761532
vt 0.798603 0.765409
vt 0.792789 0.769287
vt 0.869475 0.884254
vt 0.875291 0.880371
vt 0.881106 0.876488
vt 0.903722 0.922982
vt 0.910899 0.933740
vt 0.918076 0.944497
vt 0.925253 0.955255
vt 0.897907 0.926865
vt 0.905083 0.937623
vt 0.912260 0.948381
vt 0.919436 0.959139
vt 0.931070 0.951372
vt 0.923892 0.940614
vt 0.916715 0.929856
vt 0.909538 0.919098
vt 0.000000 0.000000
vt 0.000000 0.000000
vt 0.000000 0.000000
vt 0.000000 0.000000
vt 0.000000 0.000000
vt 0.000000 0.000000
vt 0.894527 0.896606
vt 0.894527 0.896606
vt 0.894527 0.896606
vt 0.894527 0.896606
vt 0.894527 0.896606
vt 0.894527 0.896606
vt 0.894527 0.896606
vt 0.894527 0.896606
vt 0.894527 0.896606
vt 0.894527 0.896606
vt 0.894527 0.896606
vt 0.894527 0.896606
vt 0.894527 0.896606
vt 0.894527 0.896606
vt 0.894527 0.896606
vt 0.894527 0.896606
vt 0.850428 0.439182
vt 0.835155 0.420433
vt 0.819883 0.401684
vt 0.861275 0.430347
vt 0.846001 0.411598
vt 0.830727 0.392849
vt 0.855851 0.434765
vt 0.840578 0.416016
vt 0.825305 0.397266
vt 0.905013 0.506192
vt 0.894571 0.493376
vt 0.884130 0.480559
vt 0.915858 0.497357
vt 0.905417 0.484541
vt 0.894977 0.471725
vt 0.910436 0.501775
vt 0.899994 0.488958
vt 0.889553 0.476142
vt 0.776974 0.349007
vt 0.787815 0.340179
vt 0.782394 0.344593
vt 0.790792 0.365971
vt 0.801634 0.357140
vt 0.796213 0.361555
vt 0.773996 0.323219
vt 0.768576 0.327631
vt 0.763155 0.332043
s 0
f 113/119/1 12/12/1 52/54/1
f 178/184/1 37/37/1 177/183/1
f 37/37/1 5/5/1 36/36/1
f 52/54/1 13/13/1 51/53/1
f 51/53/1 14/14/1 50/52/1
f 5/5/1 35/35/1 36/36/1
f 7/7/2 34/34/2 35/35/2
f 14/14/3 49/51/3 50/52/3
f 177/183/1 17/17/1 176/182/1
f 53/55/1 46/48/1 41/41/1
f 56/59/1 45/47/1 33/33/1
f 32/32/1 152/158/1 158/164/1
f 116/122/1 21/21/1 48/50/1
f 32/32/1 27/27/1 22/22/1
f 48/50/1 26/26/1 47/49/1
f 50/52/3 10/10/3 8/8/3
f 41/41/1 39/39/1 57/61/1
f 155/161/1 32/32/1 158/164/1
f 51/53/1 8/8/1 6/6/1
f 115/121/1 48/50/1 23/23/1
f 24/24/1 29/29/1 32/32/1
f 42/43/1 30/30/1 45/47/1
f 112/118/1 52/54/1 4/4/1
f 164/170/1 33/33/1 167/173/1
f 4/4/1 51/53/1 6/6/1
f 23/23/1 47/49/1 25/25/1
f 125/131/1 40/40/1 53/55/1
f 40/40/1 44/46/1 46/48/1
f 167/173/1 55/58/1 161/167/1
f 33/33/1 43/45/1 55/58/1
f 126/132/1 40/40/1 121/127/1
f 130/136/1 57/62/1 132/138/1
f 45/47/1 59/64/1 43/45/1
f 46/48/1 58/63/1 39/39/1
f 17/17/1 36/36/1 18/18/1
f 18/18/1 35/35/1 19/19/1
f 35/35/2 20/20/2 19/19/2
f 131/137/1 41/42/1 130/136/1
f 133/139/1 62/68/1 61/67/1
f 135/141/1 61/67/1 63/69/1
f 47/49/1 64/70/1 65/71/1
f 25/25/1 65/71/1 66/72/1
f 26/26/1 69/75/1 64/70/1
f 21/21/1 68/74/1 26/26/1
f 68/74/1 72/78/1 69/75/1
f 67/73/1 71/77/1 68/74/1
f 71/77/1 75/81/1 72/78/1
f 70/76/1 74/80/1 71/77/1
f 136/142/1 78/84/1 137/143/1
f 138/144/1 77/83/1 136/142/1
f 77/83/1 81/87/1 78/84/1
f 76/82/1 80/86/1 77/83/1
f 80/86/1 84/90/1 81/87/1
f 79/85/1 83/89/1 80/86/1
f 139/145/1 86/92/1 140/146/1
f 140/146/1 85/91/1 141/147/1
f 142/148/1 89/95/1 143/149/1
f 143/149/1 88/94/1 144/150/1
f 147/153/1 92/98/1 148/154/1
f 148/154/1 91/97/1 149/155/1
f 91/97/1 150/156/1 149/155/1
f 88/94/1 145/151/1 144/150/1
f 96/102/1 151/157/1 150/156/1
f 95/101/1 146/152/1 145/151/1
f 107/113/1 102/108/1 101/107/1
f 106/112/1 102/108/1 108/114/1
f 110/116/1 105/111/1 103/109/1
f 111/117/1 104/110/1 105/111/1
f 1/1/1 108/114/1 31/31/1
f 11/11/1 108/114/1 107/113/1
f 31/31/1 109/115/1 111/117/1
f 1/1/1 111/117/1 110/116/1
f 103/109/1 113/119/1 112/118/1
f 105/111/1 114/120/1 113/119/1
f 101/107/1 116/122/1 115/121/1
f 102/108/1 117/123/1 116/122/1
f 65/71/1 129/135/1 118/124/1
f 118/124/1 128/134/1 119/125/1
f 119/125/1 127/133/1 120/126/1
f 120/126/1 126/132/1 121/127/1
f 66/72/1 118/124/1 122/128/1
f 122/128/1 119/125/1 123/129/1
f 123/129/1 120/126/1 124/130/1
f 124/130/1 121/127/1 125/131/1
f 62/68/1 130/136/1 61/67/1
f 61/67/1 132/138/1 63/69/1
f 60/66/1 133/139/1 135/141/1
f 42/44/1 134/140/1 133/139/1
f 67/73/1 136/142/1 70/76/1
f 70/76/1 137/143/1 73/79/1
f 81/87/1 141/147/1 78/84/1
f 84/90/1 140/146/1 81/87/1
f 145/151/1 97/103/1 94/100/1
f 144/150/1 94/100/1 85/91/1
f 86/92/1 144/150/1 85/91/1
f 87/93/1 143/149/1 86/92/1
f 150/156/1 98/104/1 95/101/1
f 149/155/1 95/101/1 88/94/1
f 89/95/1 149/155/1 88/94/1
f 90/96/1 148/154/1 89/95/1
f 16/16/1 160/166/1 38/38/1
f 157/163/1 159/165/1 160/166/1
f 156/162/1 158/164/1 159/165/1
f 160/166/1 2/2/1 38/38/1
f 160/166/1 153/159/1 154/160/1
f 158/164/1 153/159/1 159/165/1
f 29/29/1 163/169/1 27/27/1
f 169/175/1 162/168/1 163/169/1
f 168/174/1 161/167/1 162/168/1
f 28/28/1 169/175/1 29/29/1
f 166/172/1 168/174/1 169/175/1
f 165/171/1 167/173/1 168/174/1
f 175/181/1 171/177/1 174/180/1
f 173/179/1 172/178/1 175/181/1
f 2/2/1 175/181/1 38/38/1
f 38/38/1 174/180/1 16/16/1
f 172/178/1 176/182/1 171/177/1
f 170/176/1 177/183/1 172/178/1
f 113/119/1 114/120/1 12/12/1
f 178/184/1 3/3/1 37/37/1
f 37/37/1 3/3/1 5/5/1
f 52/54/1 12/12/1 13/13/1
f 51/53/1 13/13/1 14/14/1
f 5/5/1 7/7/1 35/35/1
f 7/7/2 9/9/2 34/34/2
f 14/14/3 15/15/3 49/51/3
f 177/183/1 37/37/1 17/17/1
f 53/55/1 40/40/1 46/48/1
f 56/59/1 42/43/1 45/47/1
f 32/32/1 22/22/1 152/158/1
f 116/122/1 117/123/1 21/21/1
f 32/32/1 29/29/1 27/27/1
f 48/50/1 21/21/1 26/26/1
f 50/52/3 49/51/3 10/10/3
f 41/41/1 46/48/1 39/39/1
f 155/161/1 24/24/1 32/32/1
f 51/53/1 50/52/1 8/8/1
f 115/121/1 116/122/1 48/50/1
f 24/24/1 28/28/1 29/29/1
f 42/43/1 60/65/1 30/30/1
f 112/118/1 113/119/1 52/54/1
f 164/170/1 56/59/1 33/33/1
f 4/4/1 52/54/1 51/53/1
f 23/23/1 48/50/1 47/49/1
f 125/131/1 121/127/1 40/40/1
f 40/40/1 54/57/1 44/46/1
f 167/173/1 33/33/1 55/58/1
f 33/33/1 45/47/1 43/45/1
f 126/132/1 54/57/1 40/40/1
f 130/136/1 41/42/1 57/62/1
f 45/47/1 30/30/1 59/64/1
f 46/48/1 44/46/1 58/63/1
f 17/17/1 37/37/1 36/36/1
f 18/18/1 36/36/1 35/35/1
f 35/35/2 34/34/2 20/20/2
f 131/137/1 53/56/1 41/42/1
f 133/139/1 134/140/1 62/68/1
f 135/141/1 133/139/1 61/67/1
f 47/49/1 26/26/1 64/70/1
f 25/25/1 47/49/1 65/71/1
f 26/26/1 68/74/1 69/75/1
f 21/21/1 67/73/1 68/74/1
f 68/74/1 71/77/1 72/78/1
f 67/73/1 70/76/1 71/77/1
f 71/77/1 74/80/1 75/81/1
f 70/76/1 73/79/1 74/80/1
f 136/142/1 77/83/1 78/84/1
f 138/144/1 76/82/1 77/83/1
f 77/83/1 80/86/1 81/87/1
f 76/82/1 79/85/1 80/86/1
f 80/86/1 83/89/1 84/90/1
f 79/85/1 82/88/1 83/89/1
f 139/145/1 87/93/1 86/92/1
f 140/146/1 86/92/1 85/91/1
f 142/148/1 90/96/1 89/95/1
f 143/149/1 89/95/1 88/94/1
f 147/153/1 93/99/1 92/98/1
f 148/154/1 92/98/1 91/97/1
f 91/97/1 96/102/1 150/156/1
f 88/94/1 95/101/1 145/151/1
f 96/102/1 99/105/1 151/157/1
f 95/101/1 98/104/1 146/152/1
f 107/113/1 108/114/1 102/108/1
f 106/112/1 100/106/1 102/108/1
f 110/116/1 111/117/1 105/111/1
f 111/117/1 109/115/1 104/110/1
f 1/1/1 106/112/1 108/114/1
f 11/11/1 31/31/1 108/114/1
f 31/31/1 11/11/1 109/115/1
f 1/1/1 31/31/1 111/117/1
f 103/109/1 105/111/1 113/119/1
f 105/111/1 104/110/1 114/120/1
f 101/107/1 102/108/1 116/122/1
f 102/108/1 100/106/1 117/123/1
f 65/71/1 64/70/1 129/135/1
f 118/124/1 129/135/1 128/134/1
f 119/125/1 128/134/1 127/133/1
f 120/126/1 127/133/1 126/132/1
f 66/72/1 65/71/1 118/124/1
f 122/128/1 118/124/1 119/125/1
f 123/129/1 119/125/1 120/126/1
f 124/130/1 120/126/1 121/127/1
f 62/68/1 131/137/1 130/136/1
f 61/67/1 130/136/1 132/138/1
f 60/66/1 42/44/1 133/139/1
f 42/44/1 56/60/1 134/140/1
f 67/73/1 138/144/1 136/142/1
f 70/76/1 136/142/1 137/143/1
f 81/87/1 140/146/1 141/147/1
f 84/90/1 139/145/1 140/146/1
f 145/151/1 146/152/1 97/103/1
f 144/150/1 145/151/1 94/100/1
f 86/92/1 143/149/1 144/150/1
f 87/93/1 142/148/1 143/149/1
f 150/156/1 151/157/1 98/104/1
f 149/155/1 150/156/1 95/101/1
f 89/95/1 148/154/1 149/155/1
f 90/96/1 147/153/1 148/154/1
f 16/16/1 157/163/1 160/166/1
f 157/163/1 156/162/1 159/165/1
f 156/162/1 155/161/1 158/164/1
f 160/166/1 154/160/1 2/2/1
f 160/166/1 159/165/1 153/159/1
f 158/164/1 152/158/1 153/159/1
f 29/29/1 169/175/1 163/169/1
f 169/175/1 168/174/1 162/168/1
f 168/174/1 167/173/1 161/167/1
f 28/28/1 166/172/1 169/175/1
f 166/172/1 165/171/1 168/174/1
f 165/171/1 164/170/1 167/173/1
f 175/181/1 172/178/1 171/177/1
f 173/179/1 170/176/1 172/178/1
f 2/2/1 173/179/1 175/181/1
f 38/38/1 175/181/1 174/180/1
f 172/178/1 177/183/1 176/182/1
f 170/176/1 178/184/1 177/183/1
