# Blender 3.4.0
# www.blender.org
o Cube
v 0.500000 0.789628 -0.500000
v 0.500000 -0.500000 -0.500000
v 0.500000 0.789628 0.500000
v 0.500000 -0.500000 0.500000
v -0.500000 0.789628 -0.500000
v -0.500000 -0.500000 -0.500000
v -0.500000 0.789628 0.500000
v -0.500000 -0.500000 0.500000
v 0.500000 0.789628 -1.500000
v 0.500000 -0.500000 -1.500000
v -0.500000 0.789628 -1.500000
v -0.500000 -0.500000 -1.500000
v 0.500000 0.789628 1.500000
v -0.500000 0.789628 1.500000
v -0.500000 -0.500000 1.500000
v 0.500000 -0.500000 1.500000
v 1.500000 0.500000 0.500000
v 1.500000 -0.500000 0.500000
v 1.500000 0.500000 -0.500000
v 1.500000 -0.500000 -0.500000
v 1.500000 0.500000 -1.500000
v 1.500000 -0.500000 -1.500000
v 1.500000 0.500000 1.500000
v 1.500000 -0.500000 1.500000
v -1.500000 0.500000 -0.500000
v -1.500000 -0.500000 -0.500000
v -1.500000 0.500000 0.500000
v -1.500000 -0.500000 0.500000
v -1.500000 0.500000 -1.500000
v -1.500000 -0.500000 -1.500000
v -1.500000 -0.500000 1.500000
v -1.500000 0.500000 1.500000
v 0.500000 0.789628 -2.500000
v 0.500000 -0.500000 -2.500000
v -0.500000 0.789628 -2.500000
v -0.500000 -0.500000 -2.500000
v 1.500000 0.500000 -2.500000
v 1.500000 -0.500000 -2.500000
v -1.500000 0.500000 -2.500000
v -1.500000 -0.500000 -2.500000
v 0.500000 0.789628 -3.500000
v 0.500000 -0.500000 -3.500000
v -0.500000 0.789628 -3.500000
v -0.500000 -0.500000 -3.500000
v 1.500000 0.500000 -3.500000
v 1.500000 -0.500000 -3.500000
v -1.500000 0.500000 -3.500000
v -1.500000 -0.500000 -3.500000
v 0.500000 0.789628 -4.500000
v 0.500000 -0.500000 -4.500000
v -0.500000 0.789628 -4.500000
v -0.500000 -0.500000 -4.500000
v 1.500000 0.500000 -4.500000
v 1.500000 -0.500000 -4.500000
v -1.500000 0.500000 -4.500000
v -1.500000 -0.500000 -4.500000
v -0.500000 0.500000 1.500000
v 0.500000 0.500000 1.500000
v 0.500000 -0.500000 -6.500000
v 0.500000 -0.500000 -7.500000
v 0.500000 -0.500000 -5.500000
v -0.500000 0.789628 -5.500000
v 0.500000 0.789628 -5.500000
v -0.500000 -0.500000 -5.500000
v 1.500000 0.500000 -5.500000
v 1.500000 -0.500000 -5.500000
v -1.500000 0.500000 -5.500000
v -1.500000 -0.500000 -5.500000
v -0.500000 0.789628 -6.500000
v 0.500000 0.789628 -6.500000
v -0.500000 -0.500000 -6.500000
v 1.500000 0.500000 -6.500000
v 1.500000 -0.500000 -6.500000
v -1.500000 0.789628 -6.500000
v -1.500000 -0.500000 -6.500000
v -0.500000 0.789628 -7.500000
v 0.500000 0.789628 -7.500000
v -0.500000 -0.500000 -7.500000
v 1.500000 0.500000 -7.500000
v 1.500000 -0.500000 -7.500000
v -1.500000 0.789628 -7.500000
v -1.500000 -0.500000 -7.500000
v 0.500000 -0.500000 -10.500000
v 0.500000 -0.500000 -8.500000
v -0.500000 0.789628 -8.500000
v 0.500000 0.789628 -8.500000
v -0.500000 -0.500000 -8.500000
v 0.500000 0.499878 -10.500000
v 1.500000 0.500000 -8.500000
v 1.500000 -0.500000 -8.500000
v -1.500000 0.500000 -8.500000
v -1.500000 -0.500000 -8.500000
v -2.500000 0.500000 -5.500000
v -2.500000 -0.500000 -5.500000
v -2.500000 -0.500000 -6.500000
v -2.500000 0.789628 -6.500000
v -2.500000 -0.500000 -7.500000
v -2.500000 0.789628 -7.500000
v -2.500000 -0.500000 -8.500000
v -2.500000 0.500000 -8.500000
v -3.500000 0.500000 -5.500000
v -3.500000 -0.500000 -5.500000
v -3.500000 -0.500000 -6.500000
v -3.500000 0.789628 -6.500000
v -3.500000 -0.500000 -7.500000
v -3.500000 0.789628 -7.500000
v -3.500000 -0.500000 -8.500000
v -3.500000 0.500000 -8.500000
v 0.500000 -0.500000 -9.500000
v -0.500000 0.789628 -9.500000
v 0.500000 0.789628 -9.500000
v -0.500000 -0.500000 -9.500000
v 1.500000 0.500000 -9.500000
v 1.500000 -0.500000 -9.500000
v -1.500000 0.500000 -9.500000
v -1.500000 -0.500000 -9.500000
v -0.500000 0.789628 -10.500000
v 0.500000 0.789628 -10.500000
v -0.500000 -0.500000 -10.500000
v -0.500000 0.499755 -10.500000
v 1.500000 0.500000 -10.500000
v 1.500000 -0.500000 -10.500000
v -1.500000 0.500000 -10.500000
v -1.500000 -0.500000 -10.500000
vn -0.2782 -0.9605 -0.0000
vn -0.0000 1.0000 -0.0000
vn -0.0000 -1.0000 -0.0000
vn -0.0000 -0.0000 -1.0000
vn 0.2782 -0.9605 -0.0000
vn -1.0000 -0.0000 -0.0000
vn 1.0000 -0.0000 -0.0000
vn 0.2680 -0.9254 -0.2680
vn -0.0000 -0.0000 1.0000
vn -0.0000 -0.9605 -0.2782
vn -0.0000 -0.9605 0.2782
vn 0.2680 -0.9254 0.2680
vt 0.125000 0.500000
vt 0.000000 0.000000
vt 0.000000 1.000000
vt 0.125000 0.750000
vt 0.000000 0.000000
vt 1.000000 1.000000
vt 0.000000 1.000000
vt 0.375000 0.500000
vt 0.000000 0.000000
vt 0.000000 1.000000
vt 0.375000 0.750000
vt 0.000000 0.000000
vt 1.000000 0.000000
vt 0.000000 1.000000
vt 0.125000 0.500000
vt 0.000000 0.000000
vt 1.000000 0.000000
vt 0.000000 1.000000
vt 0.375000 0.500000
vt 0.000000 0.000000
vt 1.000000 1.000000
vt 0.000000 1.000000
vt 0.125000 0.750000
vt 0.875000 0.500000
vt 0.375000 0.750000
vt 0.875000 0.750000
vt 0.000000 1.000000
vt 0.000000 0.000000
vt 1.000000 0.000000
vt 1.000000 0.000000
vt 1.000000 1.000000
vt 0.000000 0.000000
vt 0.000000 1.000000
vt 1.000000 1.000000
vt 0.125000 0.750000
vt 0.000000 0.000000
vt 1.000000 1.000000
vt 1.000000 0.000000
vt 0.000000 1.000000
vt 1.000000 1.000000
vt 0.125000 0.500000
vt 0.000000 0.000000
vt 1.000000 0.000000
vt 1.000000 1.000000
vt 0.000000 1.000000
vt 1.000000 1.000000
vt 0.125000 0.500000
vt 1.000000 0.000000
vt 1.000000 1.000000
vt 0.000000 0.000000
vt 0.875000 0.500000
vt 1.000000 1.000000
vt 0.125000 0.750000
vt 0.000000 1.000000
vt 0.000000 0.000000
vt 1.000000 0.000000
vt 0.000000 1.000000
vt 1.000000 1.000000
vt 0.375000 0.500000
vt 1.000000 0.000000
vt 0.000000 0.000000
vt 1.000000 1.000000
vt 0.000000 1.000000
vt 1.000000 1.000000
vt 0.375000 0.750000
vt 1.000000 0.000000
vt 1.000000 1.000000
vt 0.000000 0.000000
vt 0.000000 1.000000
vt 0.375000 0.500000
vt 1.000000 1.000000
vt 0.000000 0.000000
vt 1.000000 0.000000
vt 0.000000 1.000000
vt 1.000000 1.000000
vt 1.000000 0.000000
vt 0.000000 0.000000
vt 0.875000 0.750000
vt 1.000000 1.000000
vt 0.000000 1.000000
vt 0.375000 0.750000
vt 0.125000 0.500000
vt 0.000000 0.000000
vt 1.000000 1.000000
vt 0.000000 1.000000
vt 1.000000 0.000000
vt 0.375000 0.500000
vt 0.000000 0.000000
vt 1.000000 0.000000
vt 1.000000 1.000000
vt 0.000000 1.000000
vt 0.000000 1.000000
vt 1.000000 1.000000
vt 0.125000 0.500000
vt 0.000000 0.000000
vt 1.000000 0.000000
vt 0.375000 0.500000
vt 0.000000 1.000000
vt 1.000000 1.000000
vt 1.000000 0.000000
vt 1.000000 1.000000
vt 0.000000 1.000000
vt 0.000000 0.000000
vt 0.125000 0.500000
vt 0.000000 0.000000
vt 1.000000 1.000000
vt 0.000000 1.000000
vt 1.000000 0.000000
vt 0.375000 0.500000
vt 0.000000 0.000000
vt 1.000000 0.000000
vt 1.000000 1.000000
vt 0.000000 1.000000
vt 0.000000 1.000000
vt 1.000000 1.000000
vt 0.125000 0.500000
vt 1.000000 0.000000
vt 0.000000 0.000000
vt 0.375000 0.500000
vt 0.000000 1.000000
vt 1.000000 1.000000
vt 1.000000 0.000000
vt 1.000000 1.000000
vt 0.000000 1.000000
vt 0.000000 0.000000
vt 0.125000 0.500000
vt 0.000000 0.000000
vt 1.000000 1.000000
vt 0.000000 1.000000
vt 1.000000 0.000000
vt 0.375000 0.500000
vt 0.000000 0.000000
vt 1.000000 0.000000
vt 1.000000 1.000000
vt 0.000000 1.000000
vt 0.000000 1.000000
vt 1.000000 1.000000
vt 0.125000 0.500000
vt 1.000000 0.000000
vt 0.000000 0.000000
vt 0.375000 0.500000
vt 0.000000 1.000000
vt 1.000000 1.000000
vt 1.000000 0.000000
vt 1.000000 1.000000
vt 0.000000 1.000000
vt 0.000000 0.000000
vt 0.818854 0.750000
vt 0.000000 1.000000
vt 1.000000 1.000000
vt 1.000000 1.000000
vt 0.000000 1.000000
vt 0.818854 0.500000
vt 0.000000 0.000000
vt 1.000000 1.000000
vt 1.000000 0.000000
vt 0.000000 1.000000
vt 0.000000 0.000000
vt 1.000000 1.000000
vt 1.000000 0.000000
vt 0.000000 0.000000
vt 1.000000 1.000000
vt 0.000000 1.000000
vt 1.000000 0.000000
vt 0.375000 0.500000
vt 0.125000 0.500000
vt 0.000000 0.000000
vt 1.000000 0.000000
vt 1.000000 1.000000
vt 0.000000 1.000000
vt 0.000000 1.000000
vt 0.125000 0.500000
vt 1.000000 1.000000
vt 0.000000 0.000000
vt 1.000000 0.000000
vt 0.000000 1.000000
vt 0.375000 0.500000
vt 1.000000 1.000000
vt 0.000000 1.000000
vt 0.000000 0.000000
vt 0.375000 0.500000
vt 0.125000 0.500000
vt 0.000000 0.000000
vt 1.000000 0.000000
vt 0.000000 1.000000
vt 1.000000 1.000000
vt 0.000000 1.000000
vt 1.000000 1.000000
vt 1.000000 0.000000
vt 0.000000 0.000000
vt 0.375000 0.500000
vt 0.000000 0.000000
vt 1.000000 1.000000
vt 0.000000 1.000000
vt 1.000000 0.000000
vt 0.375000 0.500000
vt 0.125000 0.500000
vt 0.625000 0.500000
vt 0.000000 0.000000
vt 1.000000 1.000000
vt 1.000000 0.000000
vt 0.625000 0.500000
vt 1.000000 1.000000
vt 1.000000 0.000000
vt 0.375000 0.500000
vt 0.000000 0.000000
vt 1.000000 1.000000
vt 1.000000 0.000000
vt 1.000000 0.000000
vt 1.000000 1.000000
vt 0.000000 1.000000
vt 0.000000 0.000000
vt 0.000000 0.000000
vt 0.000000 1.000000
vt 1.000000 1.000000
vt 1.000000 0.000000
vt 0.375000 0.500000
vt 0.125000 0.500000
vt 0.625000 0.500000
vt 0.000000 0.000000
vt 1.000000 1.000000
vt 1.000000 0.000000
vt 0.000000 1.000000
vt 0.000000 1.000000
vt 1.000000 1.000000
vt 0.568831 0.500000
vt 0.625000 0.500000
vt 1.000000 1.000000
vt 1.000000 1.000000
vt 1.000000 0.000000
vt 1.000000 1.000000
vt 0.375000 0.500000
vt 0.000000 0.000000
vt 0.000000 1.000000
vt 1.000000 0.000000
vt 0.000000 1.000000
vt 0.375000 0.500000
vt 0.000000 0.000000
vt 0.000000 1.000000
vt 0.000000 0.000000
vt 0.000000 1.000000
vt 1.000000 1.000000
vt 1.000000 0.000000
vt 0.375000 0.500000
vt 0.000000 0.000000
vt 0.000000 1.000000
vt 1.000000 1.000000
vt 1.000000 0.000000
vt 0.375000 0.500000
vt 1.000000 1.000000
vt 1.000000 0.000000
vt 1.000000 1.000000
vt 0.375000 0.500000
vt 0.000000 1.000000
vt 0.375000 0.500000
vt 1.000000 1.000000
vt 1.000000 0.000000
vt 0.000000 0.000000
vt 0.000000 1.000000
vt 1.000000 0.000000
vt 0.000000 0.000000
vt 1.000000 1.000000
vt 0.000000 1.000000
vt 0.000000 1.000000
vt 1.000000 1.000000
vt 0.375000 0.500000
vt 0.000000 0.000000
vt 0.000000 1.000000
vt 1.000000 1.000000
vt 0.000000 1.000000
vt 0.375000 0.500000
vt 1.000000 0.000000
vt 0.000000 0.000000
vt 1.000000 1.000000
vt 1.000000 1.000000
vt 0.000000 1.000000
vt 0.375000 0.500000
vt 0.000000 0.000000
vt 0.000000 1.000000
vt 1.000000 0.000000
vt 1.000000 1.000000
vt 0.375000 0.500000
vt 0.125000 0.500000
vt 0.625000 0.500000
vt 0.000000 0.000000
vt 1.000000 1.000000
vt 1.000000 0.000000
vt 0.000000 1.000000
vt 0.625000 0.500000
vt 1.000000 1.000000
vt 1.000000 1.000000
vt 1.000000 0.000000
vt 1.000000 1.000000
vt 0.375000 0.500000
vt 0.000000 0.000000
vt 0.000000 1.000000
vt 1.000000 0.000000
vt 0.375000 0.500000
vt 0.625000 0.250000
vt 0.125000 0.500000
vt 0.625000 0.500000
vt 1.000000 0.000000
vt 0.000000 1.000000
vt 1.000000 1.000000
vt 0.000000 0.000000
vt 0.568807 0.250000
vt 1.000000 1.000000
vt 0.000000 1.000000
vt 1.000000 1.000000
vt 0.000000 1.000000
vt 0.625000 0.500000
vt 1.000000 0.000000
vt 1.000000 1.000000
vt 0.000000 0.000000
vt 0.625000 0.250000
vt 0.375000 0.500000
vt 1.000000 1.000000
vt 0.000000 1.000000
vt 1.000000 0.000000
s 0
f 21/47/1 1/1/1 9/15/1
f 10/17/2 6/10/2 2/2/2
f 28/66/2 15/27/2 8/12/2
f 8/13/2 2/3/2 6/9/2
f 3/4/3 5/8/3 1/1/3
f 13/24/4 23/51/4 58/153/4
f 38/96/2 10/18/2 22/50/2
f 17/35/1 13/23/1 3/4/1
f 27/65/5 5/8/5 7/11/5
f 11/19/3 1/1/3 5/8/3
f 15/28/4 58/151/4 16/30/4
f 13/23/3 7/11/3 3/4/3
f 15/29/2 4/7/2 8/12/2
f 26/60/2 8/14/2 6/9/2
f 18/36/6 19/40/6 20/43/6
f 24/55/6 17/34/6 18/38/6
f 21/46/6 20/42/6 19/39/6
f 24/56/2 4/7/2 16/32/2
f 19/41/1 3/4/1 1/1/1
f 35/87/3 9/15/3 11/19/3
f 20/43/2 10/18/2 2/2/2
f 18/38/2 2/3/2 4/5/2
f 26/61/7 27/64/7 28/66/7
f 30/72/7 25/58/7 26/60/7
f 32/79/7 28/68/7 27/63/7
f 30/73/2 6/10/2 12/20/2
f 31/77/4 57/150/4 15/29/4
f 25/59/5 11/19/5 5/8/5
f 32/81/5 7/11/5 14/25/5
f 36/89/2 30/74/2 12/20/2
f 45/115/6 38/95/6 37/92/6
f 46/117/2 34/85/2 38/95/2
f 44/111/2 40/102/2 36/88/2
f 33/82/1 21/47/1 9/15/1
f 34/86/2 12/22/2 10/16/2
f 37/93/6 22/50/6 21/45/6
f 39/97/5 11/19/5 29/70/5
f 40/103/7 29/71/7 30/73/7
f 54/139/2 42/107/2 46/118/2
f 52/133/2 48/124/2 44/110/2
f 51/131/3 41/104/3 43/109/3
f 42/108/2 36/91/2 34/83/2
f 47/119/5 35/87/5 39/97/5
f 48/125/7 39/99/7 40/100/7
f 41/104/1 37/94/1 33/82/1
f 43/109/3 33/82/3 35/87/3
f 66/175/2 50/129/2 54/140/2
f 64/168/2 56/146/2 52/132/2
f 62/165/3 49/126/3 51/131/3
f 53/137/6 46/118/6 45/114/6
f 50/130/2 44/113/2 42/105/2
f 55/141/5 43/109/5 47/119/5
f 56/147/7 47/121/7 48/122/7
f 49/126/1 45/116/1 41/104/1
f 63/166/1 53/138/1 49/126/1
f 24/56/4 58/152/4 23/52/4
f 68/180/7 55/143/7 56/144/7
f 32/78/4 14/26/4 57/148/4
f 67/177/5 51/131/5 55/141/5
f 14/26/4 58/153/4 57/148/4
f 72/188/6 66/174/6 65/171/6
f 73/189/2 61/163/2 66/174/2
f 71/184/2 68/179/2 64/167/2
f 69/181/3 63/166/3 62/165/3
f 79/202/1 70/182/1 77/198/1
f 68/180/4 93/236/4 67/176/4
f 65/173/6 54/140/6 53/136/6
f 61/164/2 52/135/2 50/127/2
f 78/201/2 75/194/2 71/183/2
f 76/196/3 70/182/3 69/181/3
f 63/166/1 72/188/1 65/171/1
f 92/235/2 97/246/2 82/206/2
f 81/205/3 69/181/3 74/191/3
f 60/160/2 71/185/2 59/154/2
f 59/156/2 64/170/2 61/161/2
f 74/191/8 62/165/8 67/177/8
f 80/204/2 84/214/2 60/158/2
f 78/201/2 92/234/2 82/206/2
f 76/196/3 86/218/3 77/197/3
f 77/198/1 89/227/1 79/202/1
f 91/231/9 99/251/9 92/235/9
f 81/205/3 85/217/3 76/196/3
f 80/204/2 59/157/2 73/190/2
f 79/203/6 73/190/6 72/187/6
f 89/228/6 114/292/6 90/230/6
f 90/230/2 109/279/2 84/213/2
f 87/222/2 116/296/2 92/233/2
f 85/217/3 111/283/3 86/218/3
f 86/219/1 113/289/1 89/227/1
f 92/235/7 115/293/7 91/231/7
f 79/203/6 90/230/6 80/204/6
f 60/160/2 87/223/2 78/199/2
f 100/252/9 107/272/9 99/251/9
f 94/238/4 101/254/4 93/236/4
f 93/237/10 104/266/10 96/244/10
f 74/191/3 98/249/3 81/205/3
f 67/177/10 96/244/10 74/191/10
f 82/208/2 95/241/2 75/192/2
f 81/205/11 100/253/11 91/232/11
f 75/195/2 94/239/2 68/180/2
f 103/261/7 101/256/7 102/257/7
f 105/267/7 104/265/7 103/260/7
f 105/267/7 108/276/7 106/270/7
f 99/251/2 105/268/2 97/245/2
f 96/244/3 106/271/3 98/249/3
f 95/243/2 102/259/2 94/238/2
f 98/249/11 108/277/11 100/253/11
f 97/248/2 103/263/2 95/240/2
f 115/294/5 117/298/5 110/282/5
f 109/280/2 119/303/2 112/285/2
f 113/290/6 122/312/6 114/292/6
f 114/292/2 83/211/2 109/278/2
f 112/287/2 124/318/2 116/295/2
f 110/282/3 118/300/3 111/283/3
f 84/216/2 112/288/2 87/220/2
f 91/232/5 110/282/5 85/217/5
f 83/212/9 120/307/9 119/302/9
f 122/314/9 88/225/9 83/209/9
f 117/299/9 123/315/9 120/306/9
f 124/319/9 120/308/9 123/317/9
f 88/226/9 117/299/9 120/306/9
f 121/311/9 118/301/9 88/226/9
f 116/297/7 123/317/7 115/293/7
f 111/284/1 121/311/1 113/289/1
f 21/47/1 19/41/1 1/1/1
f 10/17/2 12/21/2 6/10/2
f 28/66/2 31/75/2 15/27/2
f 8/13/2 4/6/2 2/3/2
f 3/4/3 7/11/3 5/8/3
f 38/96/2 34/84/2 10/18/2
f 17/35/1 23/53/1 13/23/1
f 27/65/5 25/59/5 5/8/5
f 11/19/3 9/15/3 1/1/3
f 15/28/4 57/149/4 58/151/4
f 13/23/3 14/25/3 7/11/3
f 15/29/2 16/31/2 4/7/2
f 26/60/2 28/67/2 8/14/2
f 18/36/6 17/33/6 19/40/6
f 24/55/6 23/54/6 17/34/6
f 21/46/6 22/48/6 20/42/6
f 24/56/2 18/37/2 4/7/2
f 19/41/1 17/35/1 3/4/1
f 35/87/3 33/82/3 9/15/3
f 20/43/2 22/49/2 10/18/2
f 18/38/2 20/44/2 2/3/2
f 26/61/7 25/57/7 27/64/7
f 30/72/7 29/69/7 25/58/7
f 32/79/7 31/76/7 28/68/7
f 30/73/2 26/62/2 6/10/2
f 31/77/4 32/80/4 57/150/4
f 25/59/5 29/70/5 11/19/5
f 32/81/5 27/65/5 7/11/5
f 36/89/2 40/101/2 30/74/2
f 45/115/6 46/117/6 38/95/6
f 46/117/2 42/106/2 34/85/2
f 44/111/2 48/123/2 40/102/2
f 33/82/1 37/94/1 21/47/1
f 34/86/2 36/90/2 12/22/2
f 37/93/6 38/96/6 22/50/6
f 39/97/5 35/87/5 11/19/5
f 40/103/7 39/98/7 29/71/7
f 54/139/2 50/128/2 42/107/2
f 52/133/2 56/145/2 48/124/2
f 51/131/3 49/126/3 41/104/3
f 42/108/2 44/112/2 36/91/2
f 47/119/5 43/109/5 35/87/5
f 48/125/7 47/120/7 39/99/7
f 41/104/1 45/116/1 37/94/1
f 43/109/3 41/104/3 33/82/3
f 66/175/2 61/162/2 50/129/2
f 64/168/2 68/178/2 56/146/2
f 62/165/3 63/166/3 49/126/3
f 53/137/6 54/139/6 46/118/6
f 50/130/2 52/134/2 44/113/2
f 55/141/5 51/131/5 43/109/5
f 56/147/7 55/142/7 47/121/7
f 49/126/1 53/138/1 45/116/1
f 63/166/1 65/172/1 53/138/1
f 24/56/4 16/32/4 58/152/4
f 68/180/7 67/176/7 55/143/7
f 67/177/5 62/165/5 51/131/5
f 14/26/4 13/24/4 58/153/4
f 72/188/6 73/189/6 66/174/6
f 73/189/2 59/155/2 61/163/2
f 71/184/2 75/193/2 68/179/2
f 69/181/3 70/182/3 63/166/3
f 79/202/1 72/187/1 70/182/1
f 68/180/4 94/238/4 93/236/4
f 65/173/6 66/175/6 54/140/6
f 61/164/2 64/169/2 52/135/2
f 78/201/2 82/207/2 75/194/2
f 76/196/3 77/197/3 70/182/3
f 63/166/1 70/182/1 72/188/1
f 92/235/2 99/250/2 97/246/2
f 81/205/3 76/196/3 69/181/3
f 60/160/2 78/200/2 71/185/2
f 59/156/2 71/186/2 64/170/2
f 74/191/3 69/181/3 62/165/3
f 80/204/2 90/229/2 84/214/2
f 78/201/2 87/221/2 92/234/2
f 76/196/3 85/217/3 86/218/3
f 77/198/1 86/219/1 89/227/1
f 91/231/9 100/252/9 99/251/9
f 81/205/12 91/232/12 85/217/12
f 80/204/2 60/159/2 59/157/2
f 79/203/6 80/204/6 73/190/6
f 89/228/6 113/290/6 114/292/6
f 90/230/2 114/291/2 109/279/2
f 87/222/2 112/286/2 116/296/2
f 85/217/3 110/282/3 111/283/3
f 86/219/1 111/284/1 113/289/1
f 92/235/7 116/297/7 115/293/7
f 79/203/6 89/228/6 90/230/6
f 60/160/2 84/215/2 87/223/2
f 100/252/9 108/275/9 107/272/9
f 94/238/4 102/258/4 101/254/4
f 93/237/10 101/255/10 104/266/10
f 74/191/3 96/244/3 98/249/3
f 67/177/10 93/237/10 96/244/10
f 82/208/2 97/247/2 95/241/2
f 81/205/11 98/249/11 100/253/11
f 75/195/2 95/242/2 94/239/2
f 103/261/7 104/264/7 101/256/7
f 105/267/7 106/270/7 104/265/7
f 105/267/7 107/273/7 108/276/7
f 99/251/2 107/274/2 105/268/2
f 96/244/3 104/266/3 106/271/3
f 95/243/2 103/262/2 102/259/2
f 98/249/11 106/271/11 108/277/11
f 97/248/2 105/269/2 103/263/2
f 115/294/5 123/316/5 117/298/5
f 109/280/2 83/210/2 119/303/2
f 113/290/6 121/309/6 122/312/6
f 114/292/2 122/313/2 83/211/2
f 112/287/2 119/304/2 124/318/2
f 110/282/3 117/298/3 118/300/3
f 84/216/2 109/281/2 112/288/2
f 91/232/5 115/294/5 110/282/5
f 83/212/9 88/224/9 120/307/9
f 122/314/9 121/310/9 88/225/9
f 124/319/9 119/305/9 120/308/9
f 88/226/9 118/301/9 117/299/9
f 116/297/7 124/319/7 123/317/7
f 111/284/1 118/301/1 121/311/1
